<svg width="140" height="52" viewBox="0 0 140 52" fill="none" xmlns="http://www.w3.org/2000/svg">
<g clip-path="url(#clip0_27_2010)">
<mask id="mask0_27_2010" style="mask-type:luminance" maskUnits="userSpaceOnUse" x="0" y="0" width="140" height="52">
<path d="M140 0H0V52H140V0Z" fill="white"/>
</mask>
<g mask="url(#mask0_27_2010)">
<path d="M45.2049 -0.000549316V0.00907323L40.8311 4.59796V-0.000549316H36.4559L29.1654 7.64634V27.5286H32.0816V9.17625L37.9146 3.05843V27.5286H40.8311V9.17625L46.6631 3.05843V27.5286H49.5796V-0.000549316H45.2049Z" fill="white"/>
<path d="M0.001762 27.5289H11.6674V-0.000221109H7.29211L0 7.64684L0.001762 7.64862V27.5289ZM8.75081 3.05876V24.47H2.91829V9.17625L8.75081 3.05876Z" fill="white"/>
<path d="M26.2485 -0.000366211H14.5833V27.5286H26.2485V-0.000366211ZM17.4994 3.05846H23.3321V24.4701H17.4994V3.05846Z" fill="white"/>
<path d="M0.00243378 33.6477H49.5804V30.5886H0.00243378V33.6477Z" fill="white"/>
<path d="M0.00243378 36.7063V52H2.91896V48.9415H20.4171V36.7063H0.00243378ZM17.5006 45.8826H2.91896V39.7652H17.5006V45.8826Z" fill="white"/>
<path d="M23.3333 36.7063V48.9415H34.999V52H37.9151V48.9415H49.5806V36.7063H23.3333ZM26.2494 39.7652H34.9985V45.8826H26.2494V39.7652ZM46.6641 45.8826H37.9151V39.7652H46.6641V45.8826Z" fill="white"/>
<path d="M95.6607 34.4095H90.4202V20.6479H99.0796V23.0441H92.9767V25.8266H95.6607C98.29 25.8266 99.9065 27.607 99.9065 30.1183C99.9065 32.6319 98.308 34.4095 95.6607 34.4095ZM95.5322 28.2247H92.9767V32.0142H95.5322C96.6716 32.0142 97.3516 31.2602 97.3516 30.1183C97.3516 28.9984 96.6716 28.2247 95.5322 28.2247Z" fill="white"/>
<path d="M110.832 34.4095L110.059 31.9752H105.408L104.617 34.4095H101.953L106.714 20.6479H108.717L113.498 34.4095H110.832ZM107.78 24.7072L106.125 29.7129H109.379L107.78 24.7072Z" fill="white"/>
<path d="M123.164 34.4095V28.6484H118.734V34.4095H116.18V20.6479H118.734V26.2715H123.164V20.6479H125.721V34.4095H123.164Z" fill="white"/>
<path d="M129.724 34.4095V20.6479H132.278V27.1814L136.507 20.6479H139.56L135.165 27.1048L140 34.4095H136.876L132.278 27.2189V34.4095H129.724Z" fill="white"/>
<path d="M72.9099 51.9949H69.994V0.00732422H72.9099V51.9949Z" fill="#7FCB2C"/>
</g>
</g>
<defs>
<clipPath id="clip0_27_2010">
<rect width="140" height="52" fill="white"/>
</clipPath>
</defs>
</svg>
