<svg width="149" height="30" viewBox="0 0 149 30" fill="none" xmlns="http://www.w3.org/2000/svg">
<g clip-path="url(#clip0_27_2132)">
<path d="M34.9437 10.9308C35.8728 10.9308 36.9069 10.9632 37.8037 11.5787C38.4016 11.9756 39.1045 12.7613 39.1045 14.1625C39.1045 15.7015 38.1269 17.5158 35.4446 17.5158H33.1824V21.7357H31.2029V10.9308H34.9437ZM35.0245 15.9283C35.4608 15.9283 36.0909 15.9445 36.6 15.4747C36.9473 15.1588 37.1332 14.6242 37.1332 14.1707C37.1332 13.7495 36.9635 13.2392 36.6161 12.9395C36.2687 12.6398 35.7193 12.494 35.1053 12.494H33.1905V15.9283H35.0245Z" fill="white"/>
<path d="M40.9298 14.5181C41.4792 13.9998 42.2952 13.5461 43.5152 13.5461C44.7433 13.5461 45.5593 13.9998 46.1087 14.5181C46.9247 15.2876 47.3448 16.4863 47.3448 17.7094C47.3448 18.9325 46.9247 20.1312 46.1087 20.9007C45.5593 21.4191 44.7433 21.8808 43.5152 21.8808C42.2952 21.8808 41.4711 21.4271 40.9298 20.9007C40.1138 20.1312 39.6855 18.9325 39.6855 17.7094C39.6855 16.4783 40.1138 15.2876 40.9298 14.5181ZM42.2629 19.9773C42.4326 20.1798 42.8284 20.5605 43.5152 20.5605C44.21 20.5605 44.5978 20.1879 44.7675 19.9773C44.8967 19.8396 45.3654 19.2078 45.3654 17.7094C45.3654 16.211 44.8967 15.5873 44.7675 15.4415C44.5978 15.239 44.2019 14.8583 43.5152 14.8583C42.8284 14.8583 42.4326 15.2309 42.2629 15.4415C42.1417 15.5873 41.665 16.211 41.665 17.7094C41.665 19.1998 42.1417 19.8315 42.2629 19.9773Z" fill="white"/>
<path d="M53.6068 16.6413C53.5744 16.2363 53.4209 15.7584 53.2109 15.4588C53.025 15.1753 52.6453 14.8594 52.0232 14.8594C51.4092 14.8594 50.9971 15.1753 50.7466 15.5964C50.3508 16.2444 50.3265 17.2488 50.3265 17.7105C50.3265 18.4475 50.4316 19.3304 50.7466 19.8326C50.9486 20.1484 51.3607 20.5535 52.0232 20.5535C52.4918 20.5535 52.8796 20.3671 53.1866 19.9541C53.4209 19.622 53.5825 19.1522 53.6148 18.7391L55.2792 18.9416C55.1822 19.6787 54.859 20.5049 54.2773 21.0313C53.7925 21.4687 53.0331 21.8656 51.9666 21.8656C50.7789 21.8656 50.0033 21.3958 49.5509 20.9665C48.9369 20.3834 48.3552 19.3466 48.3552 17.7105C48.3552 16.1877 48.8722 15.2724 49.2762 14.7864C49.8579 14.0899 50.8436 13.5229 52.007 13.5229C52.9927 13.5229 53.8168 13.8712 54.3258 14.4058C54.8429 14.9241 55.158 15.7098 55.2711 16.4145L53.6068 16.6413Z" fill="white"/>
<path d="M61.396 16.6413C61.3637 16.2363 61.2101 15.7584 61.0082 15.4588C60.8224 15.1753 60.4426 14.8594 59.8124 14.8594C59.1984 14.8594 58.7945 15.1753 58.544 15.5964C58.1561 16.2444 58.1238 17.2488 58.1238 17.7105C58.1238 18.4475 58.2369 19.3304 58.544 19.8326C58.746 20.1484 59.158 20.5535 59.8124 20.5535C60.281 20.5535 60.6769 20.3671 60.9758 19.9541C61.2101 19.622 61.3637 19.1522 61.396 18.7391L63.06 18.9416C62.9634 19.6787 62.6405 20.5049 62.0585 21.0313C61.5657 21.4687 60.8224 21.8656 59.7478 21.8656C58.5521 21.8656 57.7845 21.3958 57.3321 20.9665C56.7181 20.3834 56.1444 19.3466 56.1444 17.7105C56.1444 16.1877 56.6615 15.2724 57.0735 14.7864C57.6472 14.0899 58.6409 13.5229 59.8044 13.5229C60.79 13.5229 61.6061 13.8712 62.1312 14.4058C62.6486 14.9241 62.9634 15.7098 63.0762 16.4145L61.396 16.6413Z" fill="white"/>
<path d="M71.4545 19.3943C71.1721 20.3338 70.606 20.8846 70.1378 21.2167C69.5076 21.646 68.6915 21.8809 67.8268 21.8809C66.7445 21.8809 65.6454 21.4192 64.9833 20.7469C64.3692 20.1233 63.9166 19.0298 63.9166 17.742C63.9166 16.1058 64.5955 15.0205 65.3306 14.4048C65.7589 14.0485 66.5587 13.5382 67.7626 13.5382C69.2894 13.5382 70.2588 14.2429 70.7762 14.9718C71.3255 15.7251 71.5836 16.7781 71.5836 17.6933V18.0578H65.9041C65.9041 18.1469 65.8879 18.8759 66.171 19.4591C66.5911 20.342 67.3667 20.5606 67.8997 20.5606C68.328 20.5606 68.853 20.431 69.2975 19.9775C69.5643 19.694 69.669 19.4266 69.7177 19.1756L71.4545 19.3943ZM69.6042 16.8591C69.6042 16.4055 69.4994 15.8871 69.2569 15.5388C68.9583 15.1015 68.4247 14.8018 67.843 14.8018C67.2451 14.8018 66.7283 15.1015 66.4128 15.474C66.1628 15.7899 65.9446 16.2759 65.9446 16.8591H69.6042Z" fill="white"/>
<path d="M79.3322 13.7006V21.7273H77.5062V15.0532H75.4376C75.3896 16.1386 75.3572 16.5759 75.3248 17.3211C75.2762 18.1554 75.2113 19.913 74.5087 20.8769C74.121 21.3952 73.6359 21.5977 73.2887 21.6949C73.0867 21.7597 72.8685 21.7921 72.6422 21.7921C72.4888 21.7921 72.3273 21.7759 72.174 21.7273V20.3423H72.3273C72.5618 20.3261 72.8766 20.2046 73.0867 20.0426C73.717 19.5404 73.7737 18.4064 73.8379 17.5074C73.919 16.3248 73.9352 15.6202 73.9433 14.551L73.9595 13.7006H79.3322Z" fill="white"/>
<path d="M83.0728 16.5597H85.0846C85.6014 16.5597 86.6114 16.6245 87.266 17.2887C87.8639 17.8719 87.9206 18.6899 87.9206 19.1273C87.9206 20.2775 87.4518 20.8607 87.0883 21.1604C86.9586 21.2576 86.3689 21.7273 85.2299 21.7273H81.2468V13.7006H83.0647V16.5597H83.0728ZM83.0728 20.399H84.5029C84.8502 20.399 85.2218 20.3828 85.5372 20.1155C85.723 19.9373 85.9487 19.6457 85.9487 19.1354C85.9487 18.6981 85.8196 18.3497 85.4643 18.1149C85.1488 17.9124 84.7529 17.88 84.5029 17.88H83.0728V20.399Z" fill="white"/>
<path d="M90.5702 13.7006L92.0483 16.1952L93.5838 13.7006H95.2478L92.9049 17.3292L95.6842 21.7192H93.5514L91.7335 18.6981L89.8183 21.7192H88.1544L90.8769 17.556L88.4368 13.7006H90.5702Z" fill="white"/>
<path d="M97.09 14.5181C97.6393 13.9998 98.4553 13.5461 99.6754 13.5461C100.904 13.5461 101.719 13.9998 102.269 14.5181C103.085 15.2876 103.505 16.4863 103.505 17.7094C103.505 18.9325 103.077 20.1312 102.269 20.9007C101.719 21.4191 100.904 21.8808 99.6754 21.8808C98.4472 21.8808 97.6393 21.4271 97.09 20.9007C96.2739 20.1312 95.8456 18.9325 95.8456 17.7094C95.8537 16.4783 96.2739 15.2876 97.09 14.5181ZM98.4229 19.9773C98.5925 20.1798 98.9884 20.5605 99.6754 20.5605C100.37 20.5605 100.758 20.1879 100.935 19.9773C101.057 19.8396 101.533 19.2078 101.533 17.7094C101.533 16.211 101.065 15.5873 100.935 15.4415C100.766 15.239 100.37 14.8583 99.6754 14.8583C98.9884 14.8583 98.5925 15.2309 98.4229 15.4415C98.302 15.5873 97.825 16.211 97.825 17.7094C97.825 19.1998 98.302 19.8315 98.4229 19.9773Z" fill="white"/>
<path d="M104.482 15.8708C104.716 14.8988 105.33 14.3642 105.766 14.097C106.033 13.9268 106.768 13.5461 108.029 13.5461C108.812 13.5461 109.612 13.6838 110.21 14.016C111.091 14.502 111.309 15.2066 111.309 15.7169C111.309 16.2676 111.042 17.3206 109.677 17.4745V17.5069C110.145 17.5717 110.671 17.7742 110.978 18.1063C111.261 18.406 111.479 18.9081 111.479 19.4428C111.479 20.2446 111.01 20.9574 110.412 21.3461C109.693 21.816 108.7 21.8808 107.964 21.8808C107.221 21.8808 106.098 21.7998 105.306 21.1761C104.87 20.8278 104.458 20.2284 104.336 19.4751L105.985 19.1916C106.049 19.4428 106.186 19.8235 106.38 20.0421C106.784 20.52 107.431 20.5605 107.843 20.5605C108.247 20.5605 108.691 20.5119 109.031 20.277C109.345 20.0583 109.499 19.7586 109.499 19.3618C109.499 19.0296 109.435 18.7624 109.16 18.5275C108.796 18.2278 108.311 18.1792 107.859 18.1792H107.027V16.948H107.859C108.174 16.948 108.627 16.8832 108.877 16.7618C109.208 16.5916 109.394 16.3081 109.394 15.8546C109.394 15.6035 109.297 15.3605 109.063 15.1742C108.7 14.8745 108.182 14.8583 107.915 14.8583C107.552 14.8583 107.019 14.9069 106.582 15.2795C106.397 15.4334 106.146 15.7331 106.066 16.211L104.482 15.8708Z" fill="white"/>
<path d="M120.795 12.818H115.6V15.2074H117.91C118.742 15.2074 119.542 15.2722 120.358 15.8392C121.158 16.39 121.659 17.208 121.659 18.3906C121.659 19.4922 121.255 20.3102 120.73 20.8286C119.946 21.6143 119.049 21.7277 118.112 21.7277H113.087V10.9308H120.795V12.818ZM115.6 19.8323H117.628C118.007 19.8323 118.355 19.8161 118.71 19.4517C119.057 19.1033 119.106 18.7145 119.106 18.4148C119.106 18.0666 119.009 17.7264 118.71 17.4267C118.355 17.0703 117.894 17.0298 117.563 17.0298H115.6V19.8323Z" fill="white"/>
<path d="M122.952 15.9276C123.202 14.8423 123.914 14.2915 124.334 14.0404C124.956 13.6759 125.788 13.5382 126.822 13.5382C128.139 13.5382 129.48 13.7083 130.07 14.9556C130.385 15.5955 130.353 16.2921 130.353 16.8915V19.9936C130.353 20.6416 130.45 21.241 130.587 21.727H128.309C128.244 21.4111 128.204 20.9899 128.187 20.4553C127.889 20.9899 127.169 21.889 125.505 21.889C124.77 21.889 124.01 21.7027 123.494 21.2734C122.992 20.8603 122.677 20.2043 122.677 19.4834C122.677 18.6815 123.025 17.7176 124.39 17.1506C125.271 16.7861 126.701 16.6647 127.347 16.6323L128.099 16.5999V16.4298C128.099 16.2111 128.083 15.7413 127.864 15.4821C127.565 15.1338 126.967 15.1257 126.733 15.1257C126.41 15.1257 126.014 15.1581 125.683 15.3606C125.481 15.4821 125.214 15.7413 125.118 16.1787L122.952 15.9276ZM127.396 17.9282C126.612 17.993 125.828 18.074 125.384 18.6167C125.263 18.7706 125.134 19.0136 125.134 19.3376C125.134 19.6858 125.303 19.9208 125.481 20.0423C125.699 20.2123 126.03 20.2933 126.345 20.2933C126.814 20.2933 127.363 20.0908 127.679 19.7101C127.727 19.6616 128.099 19.1918 128.099 18.2765V17.8553L127.396 17.9282Z" fill="white"/>
<path d="M134.514 13.7006V16.7055H137.043V13.7006H139.378V21.7192H137.043V18.3497H134.514V21.7192H132.179V13.7006H134.514Z" fill="white"/>
<path d="M143.538 13.7006V16.7865H144.168C144.847 16.7865 145.13 16.4544 145.299 16.0899C145.63 15.3852 145.614 14.8345 145.913 14.2837C146.148 13.8463 146.463 13.7329 146.665 13.7006H148.595C148.345 13.9678 148.127 14.2837 147.982 14.5672C147.731 15.0856 147.497 15.9361 147.352 16.3006C147.166 16.8027 146.85 17.3049 146.051 17.3697V17.4021C146.479 17.4669 146.915 17.6856 147.246 18.1716C147.448 18.4712 147.586 18.8601 147.812 19.4756C148.03 20.1074 148.127 20.3261 148.329 20.8121C148.491 21.1766 148.58 21.3952 148.846 21.7273H146.648C146.301 21.6139 146.067 21.3791 145.784 20.561C145.566 19.9292 145.534 19.7105 145.388 19.3622L145.275 19.0787C145.041 18.4794 144.726 18.3497 144.241 18.3497H143.538V21.7192H141.203V13.7006H143.538Z" fill="white"/>
<path fill-rule="evenodd" clip-rule="evenodd" d="M13.293 30C5.96256 30 0 24.0224 0 16.6798C0 12.46 1.93363 8.57675 5.29729 6.03366L5.44029 5.92146V0H13.0691V3.35965C13.1437 3.35965 13.2184 3.35965 13.293 3.35965C20.6233 3.35965 26.5797 9.33719 26.5797 16.6861C26.5797 24.0224 20.6171 30 13.293 30Z" fill="#245E2E"/>
<path fill-rule="evenodd" clip-rule="evenodd" d="M9.44342 16.892L12.2101 14.1681V12.3169L9.44342 15.0283V16.892Z" fill="#FFCC00"/>
<path fill-rule="evenodd" clip-rule="evenodd" d="M9.44342 9.99112L12.2101 7.261V5.51575L9.44342 8.22712V9.99112Z" fill="#FFCC00"/>
<path fill-rule="evenodd" clip-rule="evenodd" d="M9.44342 12.2725L12.2101 9.54866V7.80334L9.44342 10.5148V12.2725Z" fill="#FFCC00"/>
<path fill-rule="evenodd" clip-rule="evenodd" d="M8.65497 5.53543L8.28191 5.18015V0.860596H7.86533V4.76876L7.50474 4.40724V0.860596H7.08193V4.00209L6.7151 3.64057V0.860596H6.29852V4.98069L9.07154 7.70456V0.860596H8.65497V5.53543Z" fill="#FFCC00"/>
<path fill-rule="evenodd" clip-rule="evenodd" d="M9.44342 14.554L12.2101 11.8302V10.0848L9.44342 12.7963V14.554Z" fill="#FFCC00"/>
<path fill-rule="evenodd" clip-rule="evenodd" d="M6.29852 14.1681L9.07154 16.892V15.0283L6.29852 12.3169V14.1681Z" fill="#FFCC00"/>
<path fill-rule="evenodd" clip-rule="evenodd" d="M11.7936 3.64057L11.4267 4.00209V0.860596H11.0102V4.41348L10.6433 4.76876V0.860596H10.2268V5.17391L9.86 5.53543V0.860596H9.44342V7.70456L12.2101 4.98069V0.860596H11.7936V3.64057Z" fill="#FFCC00"/>
<path fill-rule="evenodd" clip-rule="evenodd" d="M6.29852 7.261L9.07154 9.99112V8.22712L6.29852 5.51575V7.261Z" fill="#FFCC00"/>
<path fill-rule="evenodd" clip-rule="evenodd" d="M6.29852 9.54866L9.07154 12.2725V10.5148L6.29852 7.80334V9.54866Z" fill="#FFCC00"/>
<path fill-rule="evenodd" clip-rule="evenodd" d="M6.29852 11.8302L9.07154 14.554V12.7963L6.29852 10.0848V11.8302Z" fill="#FFCC00"/>
<path fill-rule="evenodd" clip-rule="evenodd" d="M22.7933 13.2706H16.352H16.0597C16.2027 13.0462 16.2836 12.7844 16.2836 12.5039C16.2836 11.6999 15.6307 11.0516 14.8287 11.0516C14.0266 11.0516 13.38 11.7061 13.38 12.5039C13.38 12.8218 13.4795 13.1086 13.6536 13.3454C13.5292 13.4264 13.4422 13.5698 13.4422 13.7319C13.4422 13.8939 13.5292 14.0373 13.6536 14.1183C13.4857 14.3552 13.38 14.6481 13.38 14.9598C13.38 15.7639 14.0266 16.4121 14.8287 16.4121C15.6307 16.4121 16.2836 15.7639 16.2836 14.9598C16.2836 14.6793 16.2027 14.4113 16.0597 14.1931H17.2783H21.071V14.4985H20.5736V14.9286H21.071V15.3712H20.5736V16.1877H21.071V15.8199H21.8047V16.1877H22.2958V15.3712H21.8047V14.9286H22.2958V14.4985H21.8047V14.1931H22.7933C22.986 14.1931 23.1415 14.0311 23.1415 13.8378V13.6196C23.1415 13.4327 22.9798 13.2706 22.7933 13.2706ZM15.581 14.966C15.581 15.3774 15.2453 15.714 14.8287 15.714C14.4183 15.714 14.0826 15.3774 14.0826 14.966C14.0826 14.8164 14.1261 14.6731 14.2069 14.5546L14.4121 14.1993C14.2816 14.0871 14.2007 13.9188 14.2007 13.7319C14.2007 13.5449 14.2816 13.3766 14.4121 13.2644L14.2069 12.9091C14.1261 12.7906 14.0826 12.6535 14.0826 12.4977C14.0826 12.0863 14.4183 11.7497 14.8287 11.7497C15.239 11.7497 15.581 12.0863 15.581 12.4977C15.581 12.8031 15.2328 13.5324 15.2328 13.5324V13.9251C15.2266 13.9313 15.581 14.6606 15.581 14.966Z" fill="#FFCC00"/>
<path fill-rule="evenodd" clip-rule="evenodd" d="M3.78076 12.3859V14.1997C3.78076 15.9326 4.53307 17.0482 4.9683 17.4784C5.22322 17.7277 7.79725 20.2646 7.83453 20.3019C8.63663 21.0873 8.77342 21.3491 8.95371 21.7917V19.7846C8.95371 17.9957 8.05217 17.3038 7.58584 16.8488C6.504 15.7892 5.77657 15.0911 5.19213 14.5052C4.0792 13.3894 3.78076 12.3859 3.78076 12.3859Z" fill="white"/>
<path fill-rule="evenodd" clip-rule="evenodd" d="M7.5854 21.3297C6.50356 20.2638 5.77613 19.572 5.19169 18.986C4.07877 17.8703 3.78654 17.1161 3.78654 17.1161V18.6806C3.78654 20.4134 4.56994 21.5167 4.96786 21.9717C5.22278 22.221 7.80298 24.7517 7.83409 24.7828C8.63613 25.5682 8.77291 25.9422 8.95321 26.3848V24.2655C8.95321 22.4766 8.04549 21.7847 7.5854 21.3297Z" fill="white"/>
<path fill-rule="evenodd" clip-rule="evenodd" d="M13.2931 4.21387C13.0941 4.21387 12.8952 4.2201 12.6962 4.22634V5.07404C12.8889 5.06157 13.0879 5.05534 13.2931 5.05534C19.6909 5.05534 24.8762 10.2537 24.8762 16.6739C24.8762 23.0877 19.6909 28.2862 13.2931 28.2862C6.89533 28.2862 1.7037 23.0877 1.7037 16.6739C1.7037 13.1147 3.30159 9.92962 5.81966 7.79794V6.71337C2.80419 8.98844 0.858124 12.6036 0.858124 16.6739C0.858124 23.5552 6.42277 29.1339 13.2931 29.1339C20.1571 29.1339 25.7218 23.5552 25.7218 16.6739C25.7218 9.7925 20.1571 4.21387 13.2931 4.21387Z" fill="white"/>
<path fill-rule="evenodd" clip-rule="evenodd" d="M22.0834 23.1877C22.2761 22.9259 22.4565 22.6517 22.6305 22.3712V20.7007H22.0834V23.1877Z" fill="white"/>
<path fill-rule="evenodd" clip-rule="evenodd" d="M23.6751 20.0891C23.7497 19.8459 23.8243 19.6029 23.8865 19.3597H22.0834V19.8023H22.357C22.8357 19.7899 23.3767 19.7836 23.6751 20.0891Z" fill="white"/>
<path d="M11.6702 19.2975H11.1791V24.2653H11.6702V19.2975Z" fill="white"/>
<path fill-rule="evenodd" clip-rule="evenodd" d="M10.0539 18.344H11.6705C12.0871 18.344 12.3793 18.4313 12.5472 18.5933C12.7151 18.7554 12.7959 19.0483 12.7959 19.4659V24.1096C12.7959 24.5273 12.7212 24.8202 12.5472 24.9822C12.2922 25.2378 11.8197 25.2378 11.428 25.2378C11.341 25.2316 11.2539 25.2316 11.1793 25.2316V27.4319C11.341 27.4631 11.5026 27.4942 11.6705 27.5191V25.7116C12.4166 25.7116 12.9015 25.456 13.1316 24.9449V27.6376C13.1813 27.6376 13.2373 27.6376 13.2932 27.6376C13.399 27.6376 13.4984 27.6376 13.6041 27.6314V19.547C13.6041 19.1169 13.6912 18.8177 13.8528 18.6494C14.0145 18.4749 14.3067 18.3939 14.7171 18.3939C15.1336 18.3939 15.7492 18.3316 16.0663 18.6494C16.2279 18.8177 16.3025 19.1231 16.3025 19.547V21.9281H15.1958V19.3849H14.7171V27.5441C14.8787 27.5254 15.0342 27.5004 15.1958 27.4693V22.408H16.3025V27.2137C16.5326 27.1514 16.7564 27.0766 16.9802 26.9956V22.595C16.9802 22.0963 17.0983 21.7224 17.6082 21.5478L17.0486 18.4874H18.1678L18.3543 21.8283H18.4911L18.6776 18.4874H19.8589L19.2247 21.5478C19.7532 21.7348 19.8589 22.0589 19.8589 22.595V25.4373C20.1884 25.1879 20.4993 24.9262 20.7977 24.6394V18.4624H24.0806C24.1055 18.3128 24.1241 18.1695 24.1427 18.0136H16.458L16.5636 18.5684C16.3212 18.1196 15.8611 17.8952 15.1833 17.8952H14.7046C13.8901 17.8952 13.3927 18.2193 13.2062 18.8676C13.0321 18.1882 12.5161 17.8516 11.6643 17.8516H9.56274V26.9706C9.7244 27.0267 9.88606 27.0828 10.0477 27.1327V18.344H10.0539ZM20.2444 21.8532L19.7159 21.3484L20.2444 18.6058V21.8532Z" fill="white"/>
<path fill-rule="evenodd" clip-rule="evenodd" d="M18.1617 26.4906C18.3296 26.4033 18.5036 26.3161 18.6653 26.2226V22.464H18.1617V26.4906Z" fill="white"/>
</g>
<defs>
<clipPath id="clip0_27_2132">
<rect width="149" height="30" fill="white"/>
</clipPath>
</defs>
</svg>
