<svg width="120" height="54" viewBox="0 0 120 54" fill="none" xmlns="http://www.w3.org/2000/svg">
<g clip-path="url(#clip0_27_2027)">
<path fill-rule="evenodd" clip-rule="evenodd" d="M0 53.7102H57.9816V0.313171H0V53.7102Z" fill="#001689"/>
<path fill-rule="evenodd" clip-rule="evenodd" d="M17.6026 17.5653C18.0305 18.4356 18.7308 19.3284 20.6479 20.5335C21.0728 20.8035 21.5459 21.3642 21.1888 22.1535C20.8249 22.9419 20.1511 24.0615 20.5525 24.4998C20.9587 24.9354 22.4026 25.1631 23.5761 24.7293C23.5761 24.7293 23.822 25.4115 24.2538 25.8489C24.2538 25.8489 24.0502 26.2251 23.3744 26.0352C23.3744 26.0352 23.6203 26.5959 23.281 27.1989C23.281 27.1989 22.4941 27.0747 22.1557 26.4087C22.1557 26.4087 21.838 26.9271 21.2075 27.1143C21.2075 27.1143 20.6892 26.8677 20.8043 25.9083C20.8043 25.9083 20.4187 26.7624 19.2492 26.9055C19.2492 26.9055 18.5705 26.118 19.4498 25.0596C19.4498 25.0596 18.8184 25.5789 17.6725 25.3296C17.6725 25.3296 17.4895 24.7896 18.5252 24.0426C18.5252 24.0426 17.3528 24.0003 16.9033 23.0868C16.9033 23.0868 17.399 22.5252 18.6147 22.6512C18.6147 22.6512 17.4895 22.4217 17.2407 21.1761C17.2407 21.1761 18.0521 20.6991 19.3377 21.4668C19.3377 21.4668 19.1095 21.0735 18.5705 20.6793C18.0305 20.2833 17.3754 19.1835 17.6026 17.5653ZM22.321 30.0879C22.1624 29.8975 22.0303 29.6898 21.9275 29.4696C22.1302 30.9798 22.2 31.9977 23.0862 32.976C23.0862 32.976 23.6203 32.3217 23.277 30.7323C23.1074 30.6869 22.9465 30.6177 22.8 30.5271C22.8 30.5271 23.0016 31.1724 22.8738 31.8213C22.8738 31.8213 22.557 31.6089 22.321 30.0879ZM20.7885 29.9313C20.6348 29.751 20.4955 29.561 20.3715 29.3625C20.2987 30.24 20.0459 32.5467 20.8859 33.2703C20.8859 33.2703 21.4623 32.8824 21.6629 29.5146C21.542 29.7036 21.3285 29.9043 21.2233 30.0141C21.2233 30.0141 21.3639 31.0824 20.9479 31.8366C20.9479 31.8366 20.5318 31.545 20.7885 29.9313ZM18.7869 31.6953C19.4902 30.9168 19.7036 28.5849 19.7036 28.5849C19.802 28.5237 19.8984 28.4589 19.9997 28.386C20.0351 28.3554 20.0764 28.3257 20.1128 28.2924C20.1128 28.3761 20.1167 28.4652 20.1266 28.5534C20.0243 29.9574 19.9043 31.4028 19.4282 32.1228C18.962 32.8293 18.1033 33.1947 18.1033 33.1947C17.3016 31.878 18.2705 30.1122 19.0869 28.8837C19.1852 28.8495 19.2866 28.8054 19.3908 28.7577C19.1056 29.7027 18.5616 30.8286 18.7869 31.6953ZM16.7921 27.6471C16.7869 27.7951 16.8164 27.9424 16.8787 28.0791C16.2049 28.6875 15.7062 29.2698 14.7088 30.5451C13.7105 31.8213 12.1288 31.8726 12.1288 31.8726C12.2823 30.8385 12.5862 30.0222 13.4341 29.1411C14.28 28.2609 15.362 27.4554 16.1567 26.9235C16.4347 27.0357 16.7435 27.0677 17.042 27.0153C16.9475 27.1275 16.8783 27.2556 16.8384 27.3924C16.2344 27.7101 14.4875 28.5264 13.7793 29.8431C13.7793 29.8431 14.8849 29.5209 16.7921 27.6471ZM15.541 26.361L15.6049 26.2512C15.6305 26.2152 15.6502 26.1828 15.6777 26.1522C15.0266 26.3835 12.7121 27.1881 11.9636 27.5445C11.2141 27.9045 10.1292 28.7145 9.54098 30.3642C9.54098 30.3642 11.1029 30.492 12.3915 29.511C13.682 28.5255 15.1849 27.1557 15.8262 26.721C15.771 26.6749 15.7212 26.6236 15.6777 26.568C15.6777 26.568 13.9318 27.99 12.0875 28.6056C12.0875 28.6056 12.481 27.945 13.2118 27.4671C14.099 26.8866 14.7639 26.6913 15.541 26.361ZM14.2151 25.3863C14.2407 25.3296 14.2662 25.2756 14.2938 25.2252C13.5285 25.3674 11.6213 25.5789 10.7666 25.8183C9.91475 26.0613 8.37245 26.6346 7.45672 28.2438C7.45672 28.2438 8.80032 28.6245 11.3351 27.5274C13.8698 26.4276 14.6656 26.199 15.1485 26.0811C14.8659 26.0656 14.5915 25.9878 14.3488 25.8543C13.3377 26.2701 11.9852 26.7597 10.6426 26.793C10.6426 26.793 11.3026 26.3628 12 26.091C12.7534 25.803 13.5836 25.5375 14.2151 25.3863ZM14.281 24.2307C14.5279 24.3378 14.7187 24.3909 15.0433 24.4215C14.8662 24.5277 14.699 24.6609 14.5495 24.8409C13.6554 25.0785 12.1308 25.3368 9.6177 25.5042C7.10754 25.6689 5.7659 25.2459 5.7659 25.2459C6.64131 24.7527 8.03803 24.2523 8.98229 24.0849C9.92655 23.9157 12.4052 23.9355 13.4921 23.7987C13.5039 23.8104 13.6357 23.9085 13.8502 24.0273C12.9354 24.1029 10.9879 24.1857 9.98459 24.6573C9.98459 24.6573 11.8377 24.8832 14.281 24.2307ZM14.0911 22.8996C14.219 22.8312 14.3705 22.7619 14.5584 22.698C13.2856 22.3443 11.5407 21.7764 8.91049 21.6198C6.9836 21.5028 5.59377 21.6054 4.87278 21.7764C4.87278 21.7764 6.6295 22.9149 8.63409 23.3154C10.6426 23.7186 12.2725 23.4648 13.4636 23.4747C13.5403 23.3667 13.6308 23.2443 13.7705 23.1228C12.3757 23.1309 10.0593 22.7988 9.23016 22.5432C9.23016 22.5432 11.2515 22.1562 14.0911 22.8996ZM14.0852 21.5226C14.0911 21.5559 14.2407 22.2156 15.0718 22.581C13.2856 21.861 9.76819 21.447 7.87573 20.7234C5.32032 19.7442 4.85213 18.5229 4.85213 18.5229C7.06524 18.4689 8.85344 18.9657 10.2325 19.3563C11.8466 19.8108 14.3046 20.6568 15.1643 21.0105C14.8178 21.0212 14.4811 21.1183 14.1905 21.2913C12.9905 20.8665 12.4308 20.6865 11.341 20.4057C10.4784 20.1834 9.84295 20.1402 9.30491 20.0925C9.30491 20.0925 10.0623 20.5533 11.3095 20.9205C12.5459 21.285 13.082 21.3453 14.0852 21.5226ZM13.9505 19.7271C14.0213 19.8432 14.2328 20.1213 14.3164 20.2311C11.4925 19.7955 8.38623 17.829 7.42623 16.6095C6.46623 15.3891 6.7377 13.5702 6.7377 13.5702C7.66918 13.7412 9.69344 15.3495 10.2177 15.8346C10.7429 16.3161 12.3246 17.7363 13.4213 18.5274L13.7626 19.4427C12.8578 18.7793 11.9423 18.1283 11.0164 17.4897C10.4813 17.1189 9.68164 16.5915 8.88491 16.3422C8.88491 16.3422 9.61868 17.2206 10.2098 17.6508C10.8925 18.1476 11.5869 18.5778 12.1574 18.8658C12.6639 19.1232 12.9246 19.2681 13.9505 19.7271Z" fill="white"/>
<path fill-rule="evenodd" clip-rule="evenodd" d="M21.9147 27.0063C21.9925 26.9441 22.0664 26.878 22.1361 26.8083C22.2669 26.9586 22.7036 27.4599 22.92 27.9603C23.0803 28.3869 23.2544 28.9683 23.341 29.3004C23.4275 29.6307 23.6823 30.3237 23.8397 30.5604C23.8397 30.5604 23.1511 30.6396 22.6426 30.0915C22.142 29.5542 21.9738 29.0133 21.8951 28.4589C21.8292 28.0242 21.8538 27.4212 21.9147 27.0072M20.8308 27.0891C20.9587 27.2466 21.0816 27.3105 21.0934 27.3177L21.1879 27.3618L21.2823 27.3312C21.3708 27.3069 21.4475 27.2781 21.5213 27.2439C21.6226 27.5004 21.6639 27.6237 21.6875 27.8406C21.719 28.1304 21.78 28.5876 21.6639 28.9593C21.5213 29.4129 21.2233 29.691 21.061 29.8647C21.061 29.8647 20.6105 29.4084 20.4826 29.0331C20.3488 28.6389 20.3006 28.1808 20.4669 27.711C20.5574 27.4563 20.701 27.2232 20.8308 27.0891ZM19.2806 27.1323C19.6679 27.0895 20.0367 26.9565 20.3518 26.7462C20.4108 26.8956 20.5013 27.0963 20.4354 27.3807C20.3646 27.666 20.1511 27.9801 19.8452 28.2087C19.378 28.5489 18.7593 28.8702 18.0728 28.773C18.0728 28.773 17.9154 28.296 19.2806 27.1323ZM18.7593 26.3403C18.8174 26.7624 19.0357 27.0279 19.0505 27.0486C18.8911 27.225 18.3128 28.1385 17.1069 27.9873C17.1069 27.9873 16.7784 27.3636 17.5829 26.8677C18.1259 26.532 18.3865 26.4627 18.7593 26.3403ZM18.8656 25.5573C18.4542 25.6489 18.0246 25.6468 17.6144 25.551L17.4747 25.5204L17.4315 25.3962C16.8118 25.8615 16.0741 25.9407 15.8213 26.3628C15.8213 26.3628 16.1311 26.8875 16.9357 26.802C17.2953 26.7676 17.6435 26.6671 17.9595 26.5066C18.2756 26.346 18.553 26.1288 18.7751 25.8678C18.7918 25.794 18.8282 25.6536 18.8646 25.5582M17.4747 24.903C17.5869 24.7464 17.6656 24.5043 17.9075 24.2595C17.3658 24.1679 16.8097 24.1746 16.2708 24.2793C15.5292 24.4062 14.7718 24.5673 14.3931 25.6095C14.3931 25.6095 14.8672 25.9821 15.7338 25.821C16.4695 25.6806 17.1079 25.3908 17.4747 24.903ZM17.158 23.7753C16.9522 23.6116 16.7877 23.4089 16.6761 23.1813L16.6161 23.0517C15.9728 22.8105 15.3029 22.6872 14.6439 22.9104C13.9879 23.1381 13.8157 23.3964 13.6505 23.6232C13.6505 23.6232 14.3784 24.1839 15.2124 24.2028C16.0485 24.2289 16.8216 24.0048 17.158 23.7762M17.3528 22.5594C17.4629 22.5207 17.5869 22.4847 17.7265 22.4586C17.3731 22.1643 17.1289 21.7763 17.0282 21.3489C16.7292 21.4128 16.0288 21.4128 15.72 21.3057C15.4102 21.1968 14.8033 21.1914 14.3302 21.4785C14.3302 21.4785 14.4875 22.2444 15.5577 22.5054C16.5688 22.7502 16.9406 22.6872 17.3528 22.5594ZM16.9672 21.0681L17.1079 20.9844C17.1275 20.9736 17.3665 20.8377 17.7757 20.808C17.4315 20.5722 16.6072 19.9368 16.0288 19.6317C15.3915 19.3041 14.337 18.8703 13.801 18.8046C13.801 18.8046 14.3046 20.0196 14.8879 20.5119C15.4987 21.0213 15.9246 21.2094 16.9672 21.0681ZM18.0521 20.5083C17.7924 20.2014 17.5908 19.7775 17.4423 19.2762C17.3213 18.8703 17.0429 17.8596 16.8787 17.5986C16.7144 17.3358 16.1213 16.4214 14.9626 16.1352C14.9626 16.1352 14.6538 17.3304 15.237 18.2727C15.7387 19.0872 16.7705 19.9449 18.0521 20.5083ZM24.482 26.0559C24.6246 26.1909 24.7347 26.2629 24.9934 26.3826C24.9934 26.3826 25.3633 27.0324 24.9147 27.8181C24.4652 28.6029 24.0885 29.4021 23.9085 29.8494C23.9085 29.8494 23.6675 29.8152 23.4 28.5876C23.22 27.7551 22.9908 27.5463 22.7508 27.261C23.0124 27.3816 23.2229 27.4176 23.2406 27.4212L23.4197 27.4491L23.5003 27.3024C23.6741 26.9983 23.7417 26.6528 23.6941 26.3124C24.1111 26.3223 24.3324 26.1288 24.419 26.0307C24.4249 26.0199 24.4328 26.0145 24.4367 26.0055L24.482 26.0559Z" fill="white"/>
<path fill-rule="evenodd" clip-rule="evenodd" d="M14.638 16.6356C14.6327 16.7607 14.6314 16.8858 14.6341 17.0109L14.6577 17.3043C13.9721 16.4997 13.1547 15.5313 12.3738 14.6367C11.8377 14.0247 11.3843 13.6539 10.8826 13.3551C11.3026 14.4891 12.0649 15.3954 12.601 15.8481C13.1361 16.2981 13.917 17.0604 14.6744 17.5248L14.7472 17.7552C14.8062 17.9658 14.8967 18.1827 15.0236 18.3861C15.1987 18.6732 15.4318 18.9558 15.7062 19.2294C15.4859 19.1286 15.2341 19.0197 14.9784 18.9207L14.7443 18.8307C12.657 17.8119 10.5915 15.7014 9.75245 14.2326C8.91245 12.7647 9.2636 11.0601 9.48393 10.1475C10.4311 10.8873 11.7934 12.3417 12.3875 13.1346C13.1193 14.1048 14.0577 15.4809 14.6351 16.6014L14.638 16.6356ZM43.8885 22.8996C43.7408 22.8197 43.5854 22.7522 43.4243 22.698C44.6941 22.3443 46.442 21.7764 49.0702 21.6198C50.998 21.5028 52.3908 21.6054 53.1098 21.7764C53.1098 21.7764 51.3551 22.9149 49.3465 23.3154C47.34 23.7186 45.7102 23.4648 44.519 23.4747C44.4321 23.3466 44.3287 23.2285 44.2111 23.1228C45.6059 23.1309 47.9252 22.7988 48.7525 22.5432C48.7525 22.5432 46.7302 22.1562 43.8885 22.8996ZM43.8964 21.5226C43.8895 21.5559 43.74 22.2156 42.9088 22.581C44.6951 21.861 48.2154 21.447 50.1049 20.7234C52.6623 19.7442 53.1295 18.5229 53.1295 18.5229C50.9164 18.4689 49.1282 18.9657 47.7492 19.3563C46.1361 19.8108 43.677 20.6568 42.8154 21.0105C43.14 21.0213 43.4911 21.1086 43.7911 21.2913C44.9921 20.8665 45.5508 20.6865 46.6426 20.4057C47.5023 20.1834 48.1377 20.1402 48.6767 20.0925C48.6767 20.0925 47.9203 20.5533 46.6721 20.9205C45.4338 21.285 44.8997 21.3453 43.8964 21.5226ZM44.0311 19.7271C43.9623 19.8432 43.7488 20.1213 43.6652 20.2311C46.4892 19.7955 49.5964 17.829 50.5554 16.6095C51.5193 15.3891 51.2449 13.5702 51.2449 13.5702C50.3115 13.7412 48.2882 15.3495 47.7639 15.8346C47.2397 16.3161 45.657 17.7363 44.5593 18.5274L44.218 19.4427C45.1564 18.7461 46.2708 17.9712 46.9672 17.4897C47.5003 17.1189 48.3 16.5915 49.0957 16.3422C49.0957 16.3422 48.3639 17.2206 47.7718 17.6508C47.1598 18.1036 46.5085 18.51 45.8243 18.8658C45.3187 19.1232 45.059 19.2681 44.0311 19.7271ZM43.3456 16.6356C43.3495 16.7517 43.3525 16.8768 43.3465 17.0109L43.3229 17.3043C44.0075 16.4997 44.8279 15.5313 45.6088 14.6367C46.1449 14.0247 46.5993 13.6539 47.101 13.3551C46.6761 14.4891 45.9187 15.3954 45.3797 15.8481C44.8446 16.2981 44.0685 17.0604 43.3092 17.5248L43.2344 17.7552C43.1754 17.9658 43.0869 18.1827 42.959 18.3861C42.782 18.6732 42.5528 18.9558 42.2754 19.2294C42.4957 19.1286 42.7475 19.0197 43.0033 18.9207L43.2374 18.8307C45.3246 17.8119 47.3931 15.7014 48.2292 14.2326C49.0652 12.7647 48.721 11.0601 48.4977 10.1475C47.5505 10.8873 46.1872 12.3417 45.5921 13.1346C44.8613 14.1048 43.9259 15.4809 43.3456 16.6014V16.6356ZM17.3016 28.2339C16.442 29.0259 14.6302 30.8016 14.7984 32.7285C14.7984 32.7285 16.4843 32.2443 17.1757 31.1067C17.8711 29.9718 18.299 29.259 18.5892 29.0034C18.4023 29.025 18.2154 29.025 18.0334 28.9971L17.882 28.9755C17.4541 29.6928 16.6072 30.8637 15.8459 31.2732C15.8459 31.2732 15.6502 30.3237 17.8908 28.3977C17.9213 28.3194 17.9675 28.2276 18.0305 28.1286C17.8259 28.1979 17.5918 28.2366 17.3302 28.233M40.379 17.5653C39.9511 18.4356 39.2479 19.3284 37.3377 20.5335C36.9079 20.8035 36.4357 21.3642 36.7957 22.1535C37.1547 22.9419 37.8334 24.0615 37.4252 24.4998C37.022 24.9354 35.579 25.1631 34.4046 24.7293C34.4046 24.7293 34.1587 25.4115 33.7308 25.8489C33.7308 25.8489 33.9315 26.2251 34.6102 26.0352C34.6102 26.0352 34.3623 26.5959 34.6987 27.1989C34.6987 27.1989 35.4885 27.0747 35.8239 26.4087C35.8239 26.4087 36.1406 26.9271 36.7741 27.1143C36.7741 27.1143 37.2944 26.8677 37.1793 25.9083C37.1793 25.9083 37.561 26.7624 38.7354 26.9055C38.7354 26.9055 39.4121 26.118 38.5298 25.0596C38.5298 25.0596 39.1623 25.5789 40.3121 25.3296C40.3121 25.3296 40.4921 24.7896 39.4525 24.0426C39.4525 24.0426 40.6288 24.0003 41.0803 23.0868C41.0803 23.0868 40.5826 22.5252 39.3669 22.6512C39.3669 22.6512 40.4921 22.4217 40.74 21.1761C40.74 21.1761 39.9285 20.6991 38.6449 21.4668C38.6449 21.4668 38.8692 21.0735 39.4092 20.6793C39.9511 20.2833 40.6062 19.1835 40.379 17.5653ZM35.6616 30.0879C35.8176 29.8957 35.9499 29.6884 36.0561 29.4696C35.8544 30.9798 35.7807 31.9977 34.8954 32.976C34.8954 32.976 34.3623 32.3217 34.7036 30.7323C34.8551 30.6927 35.0203 30.627 35.1836 30.5271C35.1836 30.5271 34.98 31.1724 35.1049 31.8213C35.1049 31.8213 35.4295 31.6089 35.6616 30.0879ZM37.1941 29.9313C37.3003 29.808 37.5059 29.5479 37.6111 29.3625C37.6839 30.24 37.9347 32.5467 37.0947 33.2703C37.0947 33.2703 36.5193 32.8824 36.3157 29.5146C36.4387 29.7036 36.6521 29.9043 36.7544 30.0141C36.7544 30.0141 36.6167 31.0824 37.0328 31.8366C37.0328 31.8366 37.4498 31.545 37.1941 29.9313ZM39.1967 31.6953C38.4885 30.9168 38.277 28.5849 38.277 28.5849C38.1332 28.4965 37.9965 28.3987 37.8679 28.2924C37.8679 28.3761 37.8649 28.4652 37.857 28.5534C37.9554 29.9574 38.0803 31.4028 38.5534 32.1228C39.0197 32.8293 39.8754 33.1947 39.8754 33.1947C40.681 31.878 39.7082 30.1122 38.8957 28.8837C38.7925 28.8472 38.6916 28.8051 38.5938 28.7577C38.877 29.7027 39.42 30.8286 39.1967 31.6953ZM41.1866 27.6471C41.1944 27.7965 41.162 27.9216 41.1403 27.9828C41.1297 28.0153 41.1179 28.0474 41.1049 28.0791C41.7747 28.6875 42.2754 29.2698 43.2728 30.5451C44.2711 31.8213 45.8518 31.8726 45.8518 31.8726C45.7013 30.8385 45.3954 30.0222 44.5485 29.1411C43.7026 28.2609 42.6226 27.4554 41.8259 26.9235C41.5723 27.0255 41.2927 27.061 41.0184 27.0261C40.9918 27.0248 40.9655 27.0212 40.9397 27.0153C41.0449 27.1449 41.1088 27.2736 41.1443 27.3924C41.7462 27.7101 43.498 28.5264 44.2033 29.8431C44.2033 29.8431 43.0967 29.5209 41.1866 27.6471ZM42.4426 26.361L42.3757 26.2512C42.3552 26.2169 42.3322 26.1838 42.3069 26.1522C42.9561 26.3835 45.2715 27.1881 46.019 27.5445C46.7675 27.9045 47.8495 28.7145 48.4377 30.3642C48.4377 30.3642 46.8787 30.492 45.5882 29.511C44.2997 28.5255 42.7948 27.1557 42.1554 26.721C42.2203 26.6661 42.2685 26.613 42.3059 26.568C42.3059 26.568 44.0508 27.99 45.8931 28.6056C45.8931 28.6056 45.4997 27.945 44.7738 27.4671C43.8826 26.8866 43.2197 26.6913 42.4426 26.361ZM43.7636 25.3863C43.7415 25.3314 43.7162 25.2777 43.6879 25.2252C44.4521 25.3674 46.3623 25.5789 47.2161 25.8183C48.0659 26.0613 49.6102 26.6346 50.5249 28.2438C50.5249 28.2438 49.1823 28.6245 46.6446 27.5274C44.1088 26.4276 43.318 26.199 42.8341 26.0811C43.2177 26.055 43.4911 25.9353 43.6338 25.8543C44.6449 26.2701 45.9984 26.7597 47.34 26.793C47.34 26.793 46.6761 26.3628 45.9826 26.091C45.2604 25.8125 44.5191 25.5771 43.7636 25.3863ZM43.7026 24.2307C43.4637 24.3379 43.2047 24.4026 42.9393 24.4215C43.1164 24.5277 43.2846 24.6609 43.4361 24.8409C44.3292 25.0785 45.8488 25.3368 48.3639 25.5042C50.8761 25.6689 52.2147 25.2459 52.2147 25.2459C51.3403 24.7527 49.9466 24.2523 49.0023 24.0849C48.0561 23.9157 45.5764 23.9355 44.4885 23.7987C44.3758 23.8829 44.2565 23.9593 44.1315 24.0273C45.0472 24.1029 46.9938 24.1857 47.999 24.6573C47.999 24.6573 46.1449 24.8832 43.7026 24.2307Z" fill="white"/>
<path fill-rule="evenodd" clip-rule="evenodd" d="M36.0659 27.0063C35.9889 26.9425 35.9141 26.8764 35.8417 26.8083C35.7138 26.9586 35.278 27.4599 35.0646 27.9603C34.9013 28.3869 34.7272 28.9683 34.6426 29.3004C34.5541 29.6307 34.2964 30.3237 34.141 30.5604C34.141 30.5604 34.8295 30.6396 35.339 30.0915C35.8407 29.5542 36.0079 29.0133 36.0895 28.4589C36.1439 27.9758 36.136 27.4886 36.0659 27.0072M37.1479 27.0891C37.021 27.2466 36.9 27.3105 36.8872 27.3177L36.7958 27.3618L36.6964 27.3312C36.6153 27.308 36.5363 27.2788 36.4603 27.2439C36.3755 27.4349 36.3199 27.6357 36.2951 27.8406C36.2607 28.1304 36.2007 28.5876 36.3158 28.9593C36.4613 29.4129 36.7544 29.691 36.9197 29.8647C36.9197 29.8647 37.3702 29.4084 37.5 29.0331C37.6328 28.6389 37.681 28.1808 37.5177 27.711C37.4378 27.4844 37.3124 27.2735 37.1479 27.0891ZM38.702 27.1323C38.3145 27.0893 37.9454 26.9564 37.6298 26.7462C37.5728 26.8956 37.4803 27.0963 37.5492 27.3807C37.6151 27.666 37.8295 27.9801 38.1413 28.2087C38.6017 28.5489 39.2233 28.8702 39.9108 28.773C39.9108 28.773 40.0682 28.296 38.702 27.1323ZM39.2194 26.3403C39.1653 26.7624 38.9459 27.0279 38.9282 27.0486C39.0885 27.225 39.6669 28.1385 40.8797 27.9873C40.8797 27.9873 41.2023 27.3636 40.4017 26.8677C39.8528 26.532 39.5951 26.4627 39.2194 26.3403ZM39.1141 25.5573C39.5268 25.6488 39.9576 25.6466 40.3692 25.551L40.5089 25.5204L40.5482 25.3962C41.1698 25.8615 41.9066 25.9407 42.1603 26.3628C42.1603 26.3628 41.8505 26.8875 41.0469 26.802C40.6871 26.7677 40.3385 26.6672 40.0221 26.5067C39.7057 26.3462 39.428 26.1289 39.2056 25.8678C39.1843 25.7625 39.1537 25.6581 39.1141 25.5573ZM40.5089 24.903C40.3938 24.7464 40.3121 24.5043 40.0741 24.2595C40.6158 24.168 41.1719 24.1747 41.7108 24.2793C42.4525 24.4062 43.2099 24.5673 43.5895 25.6095C43.5895 25.6095 43.1105 25.9821 42.2449 25.821C41.5131 25.6806 40.8738 25.3908 40.5089 24.903ZM40.8226 23.7753C41.0095 23.6259 41.1807 23.4333 41.3046 23.1813L41.3656 23.0517C42.0108 22.8105 42.6817 22.6872 43.3348 22.9104C43.9938 23.1381 44.1649 23.3964 44.3341 23.6232C44.3341 23.6232 43.6062 24.1839 42.7682 24.2028C41.9321 24.2289 41.159 24.0048 40.8226 23.7762M40.6289 22.5594C40.5065 22.5165 40.3805 22.4828 40.2521 22.4586C40.5384 22.2282 40.8187 21.8745 40.9544 21.3489C41.2535 21.4128 41.9548 21.4128 42.2636 21.3057C42.5725 21.1968 43.1784 21.1914 43.6525 21.4785C43.6525 21.4785 43.498 22.2444 42.423 22.5054C41.4098 22.7502 41.039 22.6872 40.6289 22.5594ZM41.0135 21.0681L40.8738 20.9844C40.8541 20.9736 40.6141 20.8377 40.202 20.808C40.5502 20.5722 41.3695 19.9368 41.9548 19.6317C42.5902 19.3041 43.6426 18.8703 44.1836 18.8046C44.1836 18.8046 43.678 20.0196 43.0918 20.5119C42.4839 21.0213 42.058 21.2094 41.0135 21.0681ZM39.9285 20.5083C40.1882 20.2014 40.3898 19.7775 40.5384 19.2762C40.6623 18.8703 40.9397 17.8596 41.1049 17.5986C41.2712 17.3358 41.8623 16.4214 43.021 16.1352C43.021 16.1352 43.3298 17.3304 42.7456 18.2727C42.242 19.0872 41.2131 19.9449 39.9285 20.5083ZM33.5036 26.0559C33.3544 26.192 33.1799 26.3026 32.9882 26.3826C32.9882 26.3826 32.6164 27.0324 33.0669 27.8181C33.5135 28.6029 33.8912 29.4021 34.0741 29.8494C34.0741 29.8494 34.3141 29.8152 34.5807 28.5876C34.7626 27.7551 34.9918 27.5463 35.2289 27.261C34.9682 27.3816 34.7607 27.4176 34.742 27.4212L34.5639 27.4491L34.4813 27.3024C34.3429 27.0616 34.272 26.7932 34.2748 26.5212C34.2748 26.4474 34.2787 26.3772 34.2876 26.3133C33.8705 26.3223 33.6482 26.1288 33.5656 26.0307C33.5558 26.0199 33.5489 26.0145 33.5439 26.0055L33.5036 26.0559Z" fill="white"/>
<path fill-rule="evenodd" clip-rule="evenodd" d="M40.681 28.2339C41.5397 29.0259 43.3525 30.8016 43.1803 32.7285C43.1803 32.7285 41.4964 32.2443 40.8059 31.1067C40.1105 29.9718 39.6846 29.259 39.3925 29.0034C39.5774 29.025 39.7643 29.025 39.9482 28.9971L40.1026 28.9755C40.5285 29.6928 41.3754 30.8637 42.1377 31.2732C42.1377 31.2732 42.3305 30.3237 40.0918 28.3977C40.0531 28.3046 40.0061 28.2146 39.9512 28.1286C40.1548 28.1979 40.3898 28.2366 40.6505 28.233M27.6757 12.8646C27.6757 12.7224 28.2659 12.6054 28.9908 12.6054C29.7187 12.6054 30.3059 12.7224 30.3059 12.8646C30.3059 13.0059 29.7177 13.122 28.9908 13.122C28.2649 13.122 27.6757 13.005 27.6757 12.8646ZM29.2475 13.4325C29.2478 13.4635 29.2414 13.4943 29.2286 13.5231C29.2158 13.5518 29.197 13.578 29.1731 13.6001C29.1493 13.6221 29.1209 13.6397 29.0896 13.6517C29.0583 13.6637 29.0248 13.67 28.9908 13.6701C28.9219 13.6699 28.8559 13.6448 28.8071 13.6003C28.7583 13.5558 28.7307 13.4955 28.7302 13.4325C28.7302 13.3011 28.8482 13.1949 28.9908 13.1949C29.1344 13.1949 29.2466 13.3011 29.2466 13.4325M27.5803 12.6126C27.1456 11.6523 26.8525 10.9422 26.8623 10.7055C26.8702 10.5633 27.0561 10.4562 27.2321 10.4067C27.4043 10.3563 27.5587 10.3464 27.6748 10.4283C27.9039 10.5894 28.1134 11.8863 28.1931 12.4245C27.9728 12.4632 27.838 12.4893 27.5803 12.6126ZM28.381 12.4047C28.4902 12.3912 28.6052 12.3867 28.7203 12.3822C28.6352 11.8054 28.5097 11.2342 28.3446 10.6722C28.2295 10.3329 28.0849 10.0899 27.843 10.0287C27.843 10.0287 28.0298 10.5003 28.1341 10.9872C28.2364 11.475 28.3151 11.9403 28.381 12.4047ZM26.9961 14.1237C27.478 14.0193 27.9728 13.5441 27.9728 13.5441C27.1928 13.6476 26.9961 14.1237 26.9961 14.1237ZM27.719 14.0814C27.0452 14.4414 26.2928 14.3874 26.2928 14.3874C26.4384 14.1408 26.5751 13.9131 26.9961 13.6368C27.4171 13.3596 28.1036 13.2903 28.3731 13.3245C28.3131 13.509 28.0387 13.9077 27.719 14.0805M25.2069 15.0993V15.0498C24.5459 15.1272 23.7669 15.0957 23.7669 15.0957C23.8062 15.3216 23.9085 15.4935 24.0826 15.5988C24.1249 15.1038 25.2069 15.0993 25.2069 15.0993ZM23.0125 14.4468C23.0125 14.4468 23.8485 14.7321 24.6866 14.6961C25.5207 14.6565 27.063 14.6412 27.5587 14.4171C27.5587 14.4171 27.479 14.7069 27.0807 14.8734C27.0807 14.8734 27.2902 14.8734 27.4938 15.039C27.4938 15.039 27.3748 15.2775 27.0187 15.4044C27.0187 15.4044 27.6561 16.0128 28.3397 15.9696C28.3397 15.9696 28.0249 16.3296 27.3266 16.191C26.6282 16.0524 26.4039 15.6924 26.2859 15.5538C26.2859 15.5538 26.3764 15.8985 26.3331 16.0371C26.3331 16.0371 26.0262 16.02 25.7872 15.7428C25.7872 15.7428 25.9613 16.02 25.9977 16.254C25.9977 16.254 25.8049 16.2738 25.4597 16.0866C25.4597 16.0866 25.5315 16.2594 25.5453 16.4574C25.5453 16.4574 24.7377 16.2198 24.3462 15.8814C24.3462 15.8814 24.3413 16.1154 24.361 16.2468C24.361 16.2468 23.1089 16.1298 23.0125 14.4468ZM22.8197 14.5638C22.8502 14.9283 22.9515 15.2874 23.0902 15.5421C23.0902 15.5421 22.5974 15.2019 22.4774 14.9121C22.3544 14.6241 22.3249 14.4252 22.8187 14.5638M21.8292 15.948C21.884 15.948 21.9365 15.9281 21.9752 15.8926C22.014 15.8572 22.0357 15.8091 22.0357 15.759C22.0357 15.7089 22.014 15.6608 21.9752 15.6253C21.9365 15.5899 21.884 15.57 21.8292 15.57C21.8024 15.5703 21.7759 15.5755 21.7513 15.5853C21.7266 15.595 21.7044 15.6091 21.6857 15.6268C21.6671 15.6444 21.6524 15.6653 21.6426 15.6881C21.6328 15.711 21.628 15.7353 21.6285 15.7599C21.6285 15.8652 21.719 15.948 21.8292 15.948ZM23.0371 15.7266C23.3666 15.8652 23.6607 16.1937 23.6607 16.1937C23.161 16.299 22.9397 16.4304 22.9397 16.4304C21.9816 15.8094 21.1938 16.434 21.1938 16.434C20.6754 16.1658 20.5761 15.5052 20.8348 15.156C21.0934 14.805 21.6777 14.868 21.9541 14.9283C22.1302 15.4395 22.741 15.6033 23.0371 15.7266ZM23.7698 16.3071C23.7698 16.3071 24.1171 16.7355 24.3728 16.9236C24.3728 16.9236 23.0843 16.9128 22.7597 17.9397C22.7597 17.9397 22.3141 17.3097 22.6397 16.9002C22.9908 16.4592 23.3125 16.4052 23.7698 16.3071Z" fill="white"/>
<path fill-rule="evenodd" clip-rule="evenodd" d="M25.1823 16.5627C25.1823 16.5627 25.5984 16.6752 25.738 16.7085C25.738 16.7085 25.742 16.4871 25.7341 16.38C25.859 16.4079 26.0144 16.4448 26.1482 16.4574C26.1482 16.4574 26.5623 17.3106 26.8879 17.6544C26.8879 17.6544 26.9066 17.8434 26.7256 18.1314C26.7256 18.1314 26.4895 17.6274 26.0675 17.2224C25.8295 16.9956 25.6771 16.8795 25.1823 16.5627ZM24.0885 16.38C24.2233 16.4133 24.8882 16.605 25.2069 16.8192C25.6112 17.0838 25.8885 17.3889 25.8443 17.9145C25.8443 17.9145 25.5197 17.4978 25.1607 17.3106C24.8764 17.1603 24.361 16.7463 24.0885 16.38ZM24.0984 12.5199C24.2203 12.5199 24.4574 12.5739 24.4574 12.7548C24.4574 12.9393 24.1515 13.3785 24.0679 13.5738H24.06C23.9784 13.3785 23.6675 12.9393 23.6675 12.7548C23.6675 12.5748 23.9085 12.5208 24.0305 12.5208H24.0974M23.8279 13.9383C23.7708 13.6827 23.6607 13.0185 23.4905 12.8727C23.3282 12.7314 23.0872 12.7179 22.9692 12.7242C22.9351 12.7265 22.9021 12.7358 22.8726 12.7515C22.8431 12.7672 22.8179 12.7888 22.7988 12.8147C22.7798 12.8407 22.7674 12.8702 22.7627 12.9011C22.7579 12.9321 22.761 12.9636 22.7715 12.9933C22.8187 13.1463 23.3518 13.8816 23.4216 13.9743C23.5456 13.9545 23.522 13.9617 23.8279 13.9383ZM24.301 13.9383C24.36 13.6827 24.4682 13.0185 24.6393 12.8727C24.8007 12.7314 25.0426 12.7179 25.1607 12.7242C25.1948 12.7265 25.228 12.7358 25.2577 12.7514C25.2874 12.767 25.3128 12.7885 25.3322 12.8144C25.3516 12.8402 25.3643 12.8697 25.3696 12.9007C25.3748 12.9317 25.3723 12.9633 25.3623 12.9933C25.3092 13.1463 24.7771 13.8816 24.7062 13.9743C24.5843 13.9545 24.6079 13.9617 24.301 13.9383ZM24.6443 11.628H24.2282V11.2059H23.8938V11.6289H23.4738V11.8953H23.8928V12.3912H24.2272V11.8962H24.6443V11.628ZM19.6072 14.3595C19.6072 14.2758 19.6111 14.1948 19.6249 14.1147C19.6564 13.9077 19.6593 13.7322 19.6348 13.5855C19.3348 13.6917 19.1331 13.7583 18.72 14.3712C18.72 14.3712 19.378 13.9986 19.6072 14.3595ZM20.1807 15.3288C20.1895 15.1776 20.2987 14.6961 20.4364 14.3604C20.6036 13.9419 20.5052 13.3398 20.3026 12.9726C20.1079 12.6198 20.0016 12.2886 20.0341 11.9223C20.0341 11.9223 19.6485 12.042 19.4233 12.1689C19.3879 12.5937 19.6564 13.0185 19.7843 13.2597C19.9357 13.545 19.9043 13.9167 19.8708 14.1453C19.8118 14.5323 19.8984 14.9427 20.1807 15.3288ZM20.2239 12.0843C20.2062 12.006 20.2106 11.9248 20.2367 11.8485C20.2367 11.8485 20.8505 11.2995 21.3659 11.2059C21.6905 11.1429 21.8892 11.277 21.9875 11.3499C21.9875 11.3499 21.8075 11.3319 21.5321 11.5389C21.2567 11.7432 20.9144 11.9898 20.6587 12.0519C20.402 12.1149 20.3489 12.0969 20.2239 12.0843ZM22.0387 11.3913C22.2669 11.6037 22.4636 11.8287 22.4577 12.0231C22.4548 12.2247 22.2 12.7314 22.0682 12.9231C21.9344 13.1157 21.7387 13.3686 21.7603 13.6755C21.7731 13.8285 21.8882 13.9851 22.0259 14.1156C22.0259 14.1156 21.2754 13.9518 21.182 13.5252C21.1033 13.1427 21.2803 12.8772 21.4013 12.6657C21.5125 12.4659 21.8577 12.0033 21.9462 11.8107C22.0249 11.6352 22.0682 11.4885 22.0387 11.3913ZM26.4207 16.1973C26.5682 16.6878 26.8239 17.1468 27.0757 17.5068C27.302 17.8371 27.4456 18.3699 27.4249 18.5508C27.4249 18.5508 27.7633 17.8623 27.5921 17.3763C27.4544 16.9983 27.0915 16.434 26.4207 16.1973ZM27.2646 16.3584C27.2646 16.3584 27.78 16.3674 28.02 16.5132C28.3289 16.7004 28.622 17.1117 28.7371 17.604C28.7371 17.604 28.2157 17.5203 27.96 17.2854C27.7023 17.0487 27.3856 16.695 27.2646 16.3584ZM24.602 17.2143C24.5036 17.2215 24.239 17.2773 24.1102 17.3133C24.1102 17.3133 24.5479 17.4312 24.7672 17.5986C24.9551 17.7399 25.1164 17.9586 25.1902 18.3276C25.2974 18.8433 25.6249 19.3986 25.7233 19.5651L25.7636 19.5588C25.7046 19.2033 25.9426 18.4671 26.0075 18.36C26.0075 18.36 25.6584 18.1602 25.498 17.9514C25.38 17.7984 25.1754 17.5428 24.603 17.2152M26.882 18.3222C27.0089 18.5922 27.3492 19.0728 27.1898 19.5732C27.0325 20.0736 26.6754 20.2887 26.4571 20.7144C26.4571 20.7144 26.2859 19.9467 26.3213 19.3554C26.3607 18.7641 26.5948 18.5364 26.882 18.3222ZM27.8695 18.342C27.8695 18.342 28.381 19.2555 28.4734 19.6128C28.562 19.9674 28.4793 20.2041 28.3043 20.421C28.1341 20.6343 27.838 20.8665 27.5656 21.3174C27.5656 21.3174 27.2498 20.9331 27.2125 20.7324C27.1761 20.5317 27.2351 20.052 27.3039 19.8522C27.3708 19.6479 27.6403 19.0017 27.8695 18.342ZM28.1312 21.2571C28.02 21.3696 27.423 22.0311 27.3423 22.2237C27.2616 22.4154 27.123 22.7808 27.3069 23.0355C27.4938 23.2902 27.9216 23.6925 28.2905 23.8635C28.2905 23.8635 27.8872 23.2839 27.9305 22.8078C27.9541 22.5027 28.2108 22.2318 28.26 22.0455C28.3092 21.8619 28.2777 21.5478 28.1312 21.2571ZM26.9607 20.8926C27.0531 21.0096 27.2125 21.2949 27.2351 21.5721C27.2577 21.8448 27.2085 22.0644 27.0462 22.4649C26.8436 22.9707 26.5249 23.5332 26.3774 23.7879C26.3774 23.7879 26.0971 23.4171 25.9416 23.0868C25.9416 23.0868 26.3803 22.5324 26.5692 22.1418C26.7846 21.681 26.8741 21.2553 26.9607 20.8926ZM26.759 20.6793C26.759 20.6793 26.5682 21.9798 25.738 22.9446C25.1754 23.598 24.719 23.8266 24.4151 23.8266C23.9597 23.8266 23.5003 23.4756 23.3489 23.0742C23.1934 22.6755 23.2446 22.0527 23.5397 21.8322C23.5397 21.8322 23.8111 22.6125 24.3964 22.6404C25.0584 22.6755 25.9072 21.9924 26.759 20.6784" fill="white"/>
<path fill-rule="evenodd" clip-rule="evenodd" d="M26.0764 20.1357C26.1452 20.3679 26.1679 20.7243 26.0764 21.0609C26.0075 21.3174 25.8393 21.6495 25.5138 21.8376C25.2334 21.9996 24.5675 22.0374 24.3177 21.4614C24.3177 21.4614 25.5275 21.5451 26.0764 20.1357ZM28.0554 25.3782C28.2207 25.7697 28.8108 26.2638 28.8089 26.5698C28.8 27.3771 28.4144 27.8721 28.3239 28.1385C28.3239 28.1385 27.6207 27.6255 27.4957 27.0369C27.4318 26.7345 27.5046 25.8264 28.0554 25.3782ZM27.2685 25.9506C27.3492 25.74 27.6098 25.1676 27.9079 24.9696C27.9079 24.9696 28.2905 23.9328 27.06 23.2929C27.06 23.2929 26.5534 23.9112 26.4207 24.4926C26.2859 25.0776 26.9548 25.4259 27.2685 25.9506ZM25.7292 23.3298C25.5325 23.5521 25.2512 23.8554 25.0348 23.9508C25.0348 23.9508 24.961 24.4134 25.0013 24.7221C25.0672 25.1793 25.383 25.6455 25.5207 25.9866C25.5207 25.9866 26.0587 25.3395 26.1207 24.9597C26.1816 24.5781 26.1738 24.2658 26.1944 24.0822C26.1944 24.0822 25.8944 23.634 25.7292 23.3298ZM24.3079 25.5546C24.1554 25.3386 23.6656 24.5556 23.6587 23.9841C23.6587 23.9841 24.2646 24.2811 24.7731 24.0624C24.7731 24.0624 24.838 24.8058 24.7426 25.0569C24.66 25.2603 24.5557 25.3818 24.3079 25.5546ZM24.4495 25.7121C24.5479 25.632 24.7898 25.4268 24.8921 25.3197C24.8921 25.3197 25.2934 25.9983 25.3623 26.1972C25.3623 26.1972 25.1607 26.2458 24.9384 26.0982C24.762 25.9841 24.5982 25.8554 24.4495 25.7121ZM26.3144 25.3134C26.2662 25.4844 25.6151 26.3178 25.503 26.4204C25.503 26.4204 25.5512 26.721 25.7941 27.1557C26.0341 27.5877 26.3695 27.8928 26.5485 28.0458C26.5485 28.0458 26.9528 27.4005 27.0718 27.1188C27.2046 26.793 27.1898 26.4735 27.1338 26.3538C26.9961 26.0721 26.5239 25.6653 26.3144 25.3134ZM27.2931 27.4923C27.4367 27.7596 27.8705 28.1997 27.9384 28.548C27.9925 28.8198 27.9452 29.043 27.8636 29.2347C27.782 29.4183 27.5233 29.7864 27.3492 30.0663C27.3492 30.0663 26.7541 29.5488 26.6243 29.1807C26.5285 28.8759 26.5572 28.5496 26.7049 28.2627C26.8466 28.0161 27.1574 27.7479 27.2931 27.4923ZM25.6112 27.4176C25.7636 27.729 26.1325 28.0368 26.2161 28.3077C26.3144 28.629 26.3469 28.8306 26.1787 29.205C26.0292 29.5308 25.8482 29.7225 25.7882 29.9223C25.7882 29.9223 25.3062 29.3463 25.2236 29.1069C25.1449 28.8675 25.1184 28.4733 25.2187 28.2249C25.3151 27.9711 25.4902 27.6471 25.6112 27.4176ZM27.9885 29.61C27.9885 29.61 27.1564 30.5343 27.1761 31.0248C27.2016 31.6341 27.6413 32.0418 27.7023 32.4162C27.7023 32.4162 28.1371 31.9626 28.3043 31.6575C28.4911 31.3155 28.6318 31.0248 28.5866 30.636C28.5334 30.2472 28.4233 29.9997 27.9885 29.61ZM26.4571 29.5191C26.5889 29.6964 26.9587 30.3012 26.8544 30.6585C26.7502 31.0203 26.341 31.5261 26.2023 31.7421C26.2023 31.7421 25.8748 31.1211 25.799 30.8358C25.7262 30.5541 25.7941 30.0888 26.4571 29.5191ZM28.9987 11.8638C29.0557 11.5164 29.4925 10.7694 29.4925 10.4445C29.4955 10.3823 29.4847 10.3202 29.4608 10.262C29.4368 10.2037 29.4002 10.1505 29.3532 10.1056C29.3062 10.0606 29.2497 10.0248 29.1872 10.0004C29.1247 9.97592 29.0574 9.96332 28.9893 9.96332C28.9213 9.96332 28.854 9.97592 28.7915 10.0004C28.729 10.0248 28.6725 10.0606 28.6255 10.1056C28.5784 10.1505 28.5419 10.2037 28.5179 10.262C28.494 10.3202 28.4832 10.3823 28.4862 10.4445C28.4862 10.7694 28.9279 11.5164 28.982 11.8638H28.9987ZM30.4003 12.6126C30.839 11.6523 31.1292 10.9422 31.1184 10.7055C31.1115 10.5633 30.9256 10.4562 30.7534 10.4067C30.5764 10.3563 30.42 10.3464 30.3059 10.4283C30.0797 10.5894 29.8652 11.8863 29.7875 12.4245C30.0118 12.4632 30.1446 12.4893 30.4003 12.6126ZM29.6007 12.4047C29.4905 12.3912 29.3764 12.3867 29.2633 12.3822C29.3321 11.8674 29.5249 11.0088 29.639 10.6722C29.7512 10.3329 29.8948 10.0899 30.1397 10.0287C30.1397 10.0287 29.9508 10.5003 29.8485 10.9872C29.7512 11.4574 29.6685 11.9301 29.6007 12.4047ZM30.0118 13.5441C30.0118 13.5441 30.5026 14.0193 30.9875 14.1237C30.9875 14.1237 30.7889 13.6467 30.0118 13.5441ZM29.6085 13.3245C29.88 13.2903 30.5656 13.3596 30.9875 13.6368C31.4095 13.9131 31.5452 14.1408 31.6898 14.3874C31.6898 14.3874 30.9364 14.4414 30.2636 14.0814C29.9449 13.9077 29.6705 13.509 29.6085 13.3245ZM33.898 15.5988C34.0741 15.4935 34.1734 15.3216 34.2167 15.0948C34.2167 15.0948 33.4357 15.1272 32.7708 15.0498V15.0993C32.7708 15.0993 33.8567 15.1047 33.898 15.5988ZM33.6226 16.2468C33.6413 16.1145 33.6344 15.8814 33.6344 15.8814C33.242 16.2198 32.4374 16.4574 32.4374 16.4574C32.4492 16.2594 32.518 16.0866 32.518 16.0866C32.1767 16.2738 31.9849 16.254 31.9849 16.254C32.0203 16.02 32.1954 15.7428 32.1954 15.7428C32.0627 15.9035 31.8656 16.0093 31.6475 16.0371C31.6052 15.8985 31.6967 15.5538 31.6967 15.5538C31.5777 15.6924 31.3554 16.0524 30.6541 16.191C29.9538 16.3305 29.643 15.9696 29.643 15.9696C30.3246 16.0128 30.961 15.4044 30.961 15.4044C30.6069 15.2784 30.4879 15.039 30.4879 15.039C30.6944 14.8734 30.902 14.8734 30.902 14.8734C30.5026 14.7069 30.42 14.418 30.42 14.418C30.9207 14.6412 32.46 14.6574 33.298 14.697C34.1341 14.733 34.9672 14.4468 34.9672 14.4468C34.8728 16.1298 33.6226 16.2468 33.6226 16.2468ZM35.1639 14.5638C35.1386 14.9022 35.0466 15.2336 34.8925 15.5421C34.8925 15.5421 35.3862 15.2019 35.5043 14.9121C35.6243 14.6241 35.6567 14.4252 35.1639 14.5638ZM36.3541 15.7599C36.3538 15.7098 36.332 15.6619 36.2933 15.6265C36.2546 15.5911 36.2022 15.5711 36.1475 15.5709C36.0928 15.5709 36.0402 15.5908 36.0015 15.6262C35.9628 15.6617 35.941 15.7098 35.941 15.7599C35.941 15.81 35.9628 15.8581 36.0015 15.8935C36.0402 15.929 36.0928 15.9489 36.1475 15.9489C36.2023 15.9489 36.2549 15.929 36.2936 15.8935C36.3323 15.8581 36.3541 15.81 36.3541 15.7599ZM36.0275 14.9283C36.3049 14.8671 36.8882 14.8059 37.1459 15.156C37.4075 15.5052 37.3053 16.1658 36.7869 16.434C36.7869 16.434 35.9971 15.8085 35.042 16.4304C35.042 16.4304 34.8177 16.299 34.319 16.1937C34.319 16.1937 34.6141 15.8652 34.9456 15.7266C35.2397 15.6033 35.8525 15.4386 36.0275 14.9283ZM34.2118 16.3071C34.2118 16.3071 33.8656 16.7355 33.6098 16.9236C33.6098 16.9236 34.8974 16.9128 35.223 17.9397C35.223 17.9397 35.6685 17.3097 35.341 16.9002C34.9918 16.4592 34.6702 16.4052 34.2118 16.3071Z" fill="white"/>
<path fill-rule="evenodd" clip-rule="evenodd" d="M32.7984 16.5627C32.7984 16.5627 32.3823 16.6752 32.2436 16.7085C32.2436 16.7085 32.2367 16.4871 32.2505 16.38C32.1246 16.4079 31.9702 16.4448 31.8354 16.4574C31.8354 16.4574 31.4184 17.3106 31.0957 17.6544C31.0957 17.6544 31.0761 17.8434 31.257 18.1314C31.257 18.1314 31.4921 17.6274 31.9121 17.2224C32.1521 16.9956 32.3036 16.8795 32.7984 16.5627ZM33.8911 16.38C33.7613 16.4133 33.0944 16.605 32.7718 16.8192C32.3705 17.0838 32.0941 17.3889 32.1364 17.9145C32.1364 17.9145 32.4629 17.4978 32.821 17.3106C33.1072 17.1603 33.6216 16.7463 33.8911 16.38ZM33.8823 12.5199C33.7613 12.5199 33.5223 12.5739 33.5223 12.7548C33.5223 12.9393 33.8311 13.3785 33.9128 13.5738H33.9207C34.0023 13.3785 34.3121 12.9393 34.3121 12.7548C34.3121 12.5748 34.0741 12.5208 33.9502 12.5208H33.8823M34.1548 13.9383C34.2118 13.6827 34.319 13.0185 34.4921 12.8727C34.6544 12.7314 34.8954 12.7179 35.0154 12.7242C35.0495 12.7262 35.0826 12.7354 35.1122 12.7511C35.1418 12.7667 35.167 12.7884 35.1858 12.8145C35.2047 12.8406 35.2167 12.8703 35.2209 12.9013C35.2252 12.9323 35.2215 12.9638 35.2102 12.9933C35.163 13.1463 34.6289 13.8816 34.557 13.9743C34.4341 13.9545 34.4587 13.9617 34.1548 13.9383ZM33.6807 13.9383C33.6216 13.6827 33.5134 13.0185 33.3413 12.8727C33.178 12.7314 32.937 12.7179 32.818 12.7242C32.7842 12.7268 32.7514 12.7363 32.7221 12.7521C32.6928 12.7679 32.6678 12.7895 32.649 12.8154C32.6302 12.8413 32.618 12.8708 32.6134 12.9016C32.6087 12.9324 32.6118 12.9637 32.6223 12.9933C32.6705 13.1463 33.2026 13.8816 33.2744 13.9743C33.3984 13.9545 33.3728 13.9617 33.6807 13.9383ZM33.3403 11.628H33.7534V11.2059H34.0879V11.6289H34.5059V11.8953H34.0879V12.3912H33.7534V11.8962H33.3403V11.628ZM28.4066 9.12332H28.8197V8.70032H29.159V9.12332H29.5751V9.38792H29.159V9.88652H28.8197V9.38792H28.4066V9.12332ZM38.3774 14.3595C38.374 14.2777 38.3671 14.196 38.3567 14.1147C38.3266 13.9396 38.3227 13.7616 38.3449 13.5855C38.6459 13.6917 38.8475 13.7583 39.2607 14.3712C39.2607 14.3712 38.6036 13.9986 38.3774 14.3595Z" fill="white"/>
<path fill-rule="evenodd" clip-rule="evenodd" d="M37.8 15.3288C37.7902 15.1776 37.6839 14.6961 37.5492 14.3604C37.38 13.9419 37.4754 13.3398 37.677 12.9726C37.8728 12.6198 37.982 12.2886 37.9456 11.9223C37.9456 11.9223 38.3341 12.042 38.5574 12.1689C38.5948 12.5937 38.3272 13.0185 38.1993 13.2597C38.0459 13.545 38.0764 13.9167 38.1108 14.1453C38.1698 14.5323 38.0793 14.9427 37.8 15.3288ZM37.7597 12.0843C37.7738 12.0056 37.7681 11.9249 37.743 11.8485C37.743 11.8485 37.1331 11.2995 36.6167 11.2059C36.5076 11.1823 36.3939 11.183 36.2852 11.2081C36.1765 11.2332 36.076 11.2818 35.9921 11.3499C35.9921 11.3499 36.1751 11.3319 36.4495 11.5389C36.7239 11.7432 37.0643 11.9898 37.3229 12.0519C37.5807 12.1149 37.6377 12.0969 37.7597 12.0843ZM35.942 11.3913C35.7138 11.6037 35.519 11.8287 35.5239 12.0231C35.5269 12.2247 35.7807 12.7314 35.9144 12.9231C36.0482 13.1157 36.243 13.3686 36.2193 13.6755C36.2075 13.8285 36.0915 13.9851 35.9577 14.1156C35.9577 14.1156 36.7072 13.9518 36.7967 13.5252C36.8793 13.1427 36.7043 12.8772 36.5823 12.6657C36.4702 12.4659 36.123 12.0033 36.0364 11.8107C35.9577 11.6352 35.9144 11.4885 35.942 11.3913ZM31.562 16.1973C31.4123 16.6601 31.1913 17.101 30.9059 17.5068C30.6777 17.8371 30.5341 18.3699 30.5607 18.5508C30.5607 18.5508 30.2193 17.8623 30.3934 17.3763C30.5252 16.9983 30.8882 16.434 31.562 16.1973ZM30.7151 16.3584C30.7151 16.3584 30.2036 16.3674 29.9636 16.5132C29.6528 16.7004 29.3557 17.1117 29.2436 17.604C29.2436 17.604 29.7649 17.5203 30.0226 17.2854C30.2803 17.0487 30.5951 16.695 30.7151 16.3584ZM33.3797 17.2143C33.48 17.2215 33.7416 17.2773 33.8715 17.3133C33.8715 17.3133 33.4318 17.4312 33.2154 17.5986C33.0285 17.7399 32.8633 17.9586 32.7905 18.3276C32.6862 18.8433 32.3548 19.3986 32.2564 19.5651L32.22 19.5588C32.279 19.2033 32.038 18.4671 31.977 18.36C31.977 18.36 32.3252 18.1602 32.4826 17.9514C32.5987 17.7984 32.8072 17.5419 33.3797 17.2143ZM31.0997 18.3222C30.9748 18.5922 30.6334 19.0728 30.7898 19.5732C30.9502 20.0736 31.3072 20.2887 31.5236 20.7144C31.5236 20.7144 31.6977 19.9467 31.6593 19.3554C31.62 18.7641 31.3898 18.5364 31.0997 18.3222ZM28.9967 19.7235C29.0213 19.4292 29.758 18.7236 29.7207 18.342C29.6823 17.9577 29.1305 17.6895 28.9938 17.6328H28.9869C28.8521 17.6895 28.2993 17.9577 28.26 18.342C28.2207 18.7236 28.9603 19.4292 28.982 19.7235H28.9967ZM30.1121 18.342C30.1121 18.342 29.6007 19.2555 29.5072 19.6128C29.4177 19.9674 29.5013 20.2041 29.6764 20.421C29.8485 20.6343 30.1416 20.8665 30.417 21.3174C30.417 21.3174 30.7308 20.9331 30.7711 20.7324C30.8085 20.5317 30.7466 20.052 30.6777 19.8522C30.6108 19.6479 30.3384 19.0017 30.1121 18.342ZM28.9967 21.8745C29.2289 21.6891 29.4374 21.4128 29.5043 21.249C29.5682 21.087 29.5849 20.8485 29.4295 20.664C29.2436 20.4471 29.0115 20.2014 28.9967 20.0025H28.9849C28.9672 20.2014 28.737 20.4471 28.5502 20.6649C28.3948 20.8485 28.4115 21.0861 28.4793 21.2499C28.5433 21.4128 28.7528 21.6891 28.9869 21.8745H28.9967ZM29.8515 21.2571C29.9636 21.3696 30.5607 22.0311 30.6413 22.2237C30.722 22.4154 30.8587 22.7808 30.6738 23.0355C30.4869 23.2902 30.0629 23.6925 29.6892 23.8635C29.6892 23.8635 30.0925 23.2839 30.0521 22.8078C30.0256 22.5027 29.7689 22.2318 29.7207 22.0455C29.6744 21.8619 29.7069 21.5478 29.8515 21.2571ZM31.02 20.8926C30.9275 21.0096 30.7692 21.2949 30.7446 21.5721C30.7249 21.8448 30.7731 22.0644 30.9364 22.4649C31.141 22.9707 31.4567 23.5332 31.6023 23.7879C31.6023 23.7879 31.8836 23.4171 32.039 23.0868C32.039 23.0868 31.6013 22.5324 31.4134 22.1418C31.1961 21.681 31.1085 21.2553 31.02 20.8926ZM31.2246 20.6793C31.2246 20.6793 31.4134 21.9798 32.2436 22.9446C32.8052 23.598 33.2636 23.8266 33.5656 23.8266C34.021 23.8266 34.4803 23.4756 34.6348 23.0742C34.7862 22.6755 34.739 22.0527 34.4439 21.8322C34.4439 21.8322 34.1705 22.6125 33.5852 22.6404C32.9262 22.6755 32.0754 21.9924 31.2246 20.6784" fill="white"/>
<path fill-rule="evenodd" clip-rule="evenodd" d="M31.9042 20.1357C31.8354 20.3679 31.8147 20.7243 31.9042 21.0609C31.9741 21.3174 32.1442 21.6495 32.4688 21.8376C32.7501 21.9996 33.4101 22.0374 33.6639 21.4614C33.6639 21.4614 32.4541 21.5451 31.9042 20.1357ZM28.9908 23.9967C29.162 23.9202 29.3056 23.8644 29.5052 23.5881C29.6557 23.3721 29.8023 22.9698 29.7216 22.6836C29.6174 22.3299 29.4118 22.1886 29.2859 21.9681C29.1846 22.0563 29.1216 22.1247 28.9967 22.1904H28.9908C28.8639 22.1247 28.8 22.0554 28.6957 21.9681C28.5679 22.1895 28.3652 22.3299 28.26 22.6836C28.1793 22.9698 28.3239 23.3712 28.4764 23.5881C28.6731 23.8644 28.8197 23.9211 28.9908 23.9967ZM28.9908 26.19C29.0724 25.8444 29.8574 25.1793 29.7836 24.8157C29.6754 24.2739 29.2957 24.3882 28.9967 24.1596H28.9908C28.6879 24.3882 28.3042 24.2739 28.1951 24.8166C28.1262 25.1793 28.9052 25.8444 28.9869 26.19H28.9908ZM29.9272 25.3782C29.762 25.7697 29.1688 26.2638 29.1738 26.5698C29.1836 27.3771 29.5662 27.8721 29.6587 28.1385C29.6587 28.1385 30.362 27.6255 30.4849 27.0369C30.5508 26.7345 30.4751 25.8264 29.9272 25.3782ZM30.7111 25.9506C30.6305 25.74 30.3728 25.1676 30.0718 24.9696C30.0718 24.9696 29.6892 23.9328 30.9206 23.2929C30.9206 23.2929 31.4262 23.9112 31.562 24.4926C31.6957 25.0776 31.0249 25.4259 30.7111 25.9506ZM32.2554 23.3298C32.4511 23.5521 32.7275 23.8554 32.9479 23.9508C32.9479 23.9508 33.0187 24.4134 32.9803 24.7221C32.9144 25.1793 32.5967 25.6455 32.4629 25.9866C32.4629 25.9866 31.9229 25.3395 31.859 24.9597C31.7951 24.5781 31.8098 24.2658 31.7901 24.0822C31.7901 24.0822 32.0862 23.634 32.2554 23.3298ZM33.6708 25.5546C33.8242 25.3386 34.319 24.5556 34.3249 23.9841C34.3249 23.9841 33.717 24.2811 33.2075 24.0624C33.2075 24.0624 33.1426 24.8058 33.242 25.0569C33.3206 25.2603 33.4259 25.3818 33.6708 25.5546ZM33.5311 25.7121C33.377 25.5892 33.2308 25.4582 33.0934 25.3197C33.0934 25.3197 32.6882 25.9983 32.6213 26.1972C32.6213 26.1972 32.821 26.2458 33.0423 26.0982C33.2636 25.9497 33.3118 25.9101 33.5311 25.7121ZM31.6662 25.3134C31.7154 25.4844 32.3656 26.3178 32.4777 26.4204C32.4777 26.4204 32.4256 26.721 32.1846 27.1557C31.9456 27.5877 31.6121 27.8928 31.4311 28.0458C31.4311 28.0458 31.0298 27.4005 30.9098 27.1188C30.7731 26.793 30.7898 26.4735 30.8508 26.3538C30.9836 26.0721 31.4567 25.6653 31.6662 25.3134ZM28.9967 30.2418C29.0577 30.0141 29.4344 29.7423 29.5888 29.3454C29.6823 29.1114 29.6793 28.8387 29.579 28.6515C29.461 28.4319 29.038 27.8973 28.9908 27.7434C28.9377 27.8964 28.5216 28.4319 28.4006 28.6515C28.2993 28.8387 28.2974 29.1123 28.3888 29.3454C28.5462 29.7423 28.922 30.0141 28.9849 30.2418H28.9967ZM30.6875 27.4923C30.5459 27.7596 30.1121 28.1997 30.0433 28.548C29.9892 28.8198 30.0383 29.043 30.1151 29.2347C30.1967 29.4183 30.4613 29.7864 30.6324 30.0663C30.6324 30.0663 31.2256 29.5488 31.3564 29.1807C31.4529 28.8759 31.4239 28.5492 31.2747 28.2627C31.1331 28.0161 30.8242 27.7479 30.6875 27.4923ZM32.3734 27.4176C32.219 27.729 31.8492 28.0368 31.7656 28.3077C31.6662 28.629 31.6347 28.8306 31.802 29.205C31.9544 29.5308 32.1305 29.7225 32.1944 29.9223C32.1944 29.9223 32.6764 29.3463 32.7551 29.1069C32.8397 28.8675 32.8613 28.4733 32.7649 28.2249C32.6646 27.9711 32.4905 27.6471 32.3734 27.4176ZM28.9908 34.659C29.0213 34.3782 29.6538 33.507 29.6823 32.5827C29.698 32.1192 29.2515 31.3974 28.9967 31.1211H28.982C28.7301 31.3974 28.2826 32.1201 28.2974 32.5827C28.3279 33.5061 28.9583 34.3782 28.9908 34.659ZM29.9951 29.61C29.9951 29.61 30.8262 30.5343 30.8075 31.0248C30.7829 31.6341 30.3383 32.0418 30.2803 32.4162C30.2803 32.4162 29.8436 31.9626 29.6783 31.6575C29.4915 31.3155 29.3488 31.0248 29.402 30.636C29.4482 30.2472 29.5574 29.9997 29.9951 29.61ZM31.5246 29.5191C31.3908 29.6964 31.0229 30.3012 31.1272 30.6585C31.2354 31.0203 31.6426 31.5261 31.7783 31.7421C31.7783 31.7421 32.1059 31.1211 32.1816 30.8358C32.2554 30.5541 32.1856 30.0888 31.5246 29.5191Z" fill="white"/>
<path fill-rule="evenodd" clip-rule="evenodd" d="M29.5574 36.1413C29.6085 35.424 30.0521 34.9929 30.1279 34.6203C30.2164 34.209 30.1869 33.8157 29.8407 33.3423C29.629 34.0212 29.3509 34.6811 29.0095 35.3142C29.0007 35.325 28.9967 35.3394 28.9908 35.352C28.9839 35.3394 28.981 35.325 28.9712 35.3142C28.7302 34.8732 28.4233 34.2252 28.143 33.3414C27.7967 33.8157 27.7662 34.209 27.8518 34.6203C27.9305 34.9929 28.3731 35.424 28.4223 36.1413C28.4715 36.8613 27.5931 37.1349 27.5931 37.1349C27.8882 37.2339 28.2266 37.2789 28.7636 36.81C28.862 36.7254 28.9348 36.6318 28.9908 36.5328C29.0479 36.6318 29.1217 36.7254 29.219 36.81C29.7521 37.278 30.0935 37.2339 30.3895 37.1349C30.3895 37.1349 29.5092 36.8613 29.5574 36.1413ZM26.7935 31.3623C26.8839 31.6323 27.1574 32.1291 27.1928 32.2803C27.2587 32.5656 27.1692 32.9103 26.6056 33.2766C26.6056 33.2766 26.2407 33.0408 26.0951 32.733C25.9613 32.4423 26.039 32.2362 26.1787 32.0877C26.3203 31.9383 26.6538 31.5891 26.7935 31.3623ZM27.9777 32.427C27.9777 32.571 27.8617 33.3846 27.6118 33.7905C27.2587 34.3575 26.7403 34.7769 26.2869 34.7769C25.8679 34.7769 25.7774 34.5456 25.5708 34.4529C25.5708 34.4529 25.6761 33.9597 26.1482 33.8319C26.7285 33.6708 27.6177 33.0309 27.9777 32.427Z" fill="white"/>
<path fill-rule="evenodd" clip-rule="evenodd" d="M26.463 33.4638C26.3666 33.3936 26.281 33.3486 26.1649 33.2235C26.1649 33.2235 25.7184 33.3747 25.3495 33.6033C24.9807 33.8319 24.6187 34.2216 24.4249 34.4241C24.4249 34.4241 24.9758 34.5546 25.3269 34.4079C25.3269 34.4079 25.4528 33.9219 25.8472 33.7041C25.9338 33.6582 26.2092 33.5826 26.463 33.4638ZM26.0066 33.048C25.918 32.9256 25.7439 32.6997 25.7813 32.3451C25.7813 32.3451 25.0043 32.8005 24.778 32.9688C24.542 33.1461 24.0561 33.606 23.9479 33.7581C23.9479 33.7581 24.5361 33.6384 24.9876 33.4989C25.4803 33.3486 25.8207 33.1461 26.0066 33.048ZM24.6915 33.8193C24.2744 33.9588 23.3321 34.0965 22.9407 34.2045C22.5472 34.3125 22.262 34.4988 21.8862 34.8759C21.8862 34.8759 22.4636 35.0253 22.7725 35.1135C22.7725 35.1135 23.2623 34.8075 23.7994 34.6167C24.1505 34.4925 24.3207 34.1559 24.6915 33.8193ZM23.8161 36.3753C23.9066 36.2826 24.0207 36.1773 23.9331 35.9631C23.8721 35.8038 23.5308 35.6328 23.3282 35.5419C22.9908 35.3934 22.0554 35.1621 21.7485 35.0793C21.7485 35.0793 21.5961 35.2431 21.5174 35.4159C21.482 35.4825 21.5282 35.5518 21.661 35.5734C21.9217 35.6148 22.5462 35.5068 22.7017 35.5986C22.863 35.6976 22.8039 35.829 22.8039 35.9631C22.8039 35.9631 23.0912 35.7993 23.2702 35.8371C23.522 35.8857 23.6735 35.9955 23.8161 36.3753ZM22.9839 35.1756C23.0508 35.1972 23.4167 35.2989 23.7718 35.5059C23.7718 35.5059 23.9292 35.4501 24.0079 35.3169C24.0826 35.1891 24.4013 34.7535 24.6974 34.6959C24.6974 34.6959 24.4466 34.6734 24.302 34.6311C24.302 34.6311 23.999 34.7031 23.7836 34.7841C23.5682 34.8651 23.3007 34.9875 22.9839 35.1756ZM25.3967 34.6257C25.3407 34.65 25.2443 34.6932 25.0249 34.7022C25.0249 34.7022 24.2036 35.226 24.1072 35.7516C24.0266 36.198 24.2823 36.4131 24.4053 36.468C24.5282 36.5274 25.1036 36.7443 25.4774 36.0342C25.4774 36.0342 24.84 36.2268 24.6669 35.946C24.4948 35.6625 24.7771 35.253 24.9502 35.1351C25.1754 34.9767 25.5846 34.8732 25.8305 34.9119C25.8305 34.9119 25.6328 34.7373 25.3967 34.6257Z" fill="white"/>
<path fill-rule="evenodd" clip-rule="evenodd" d="M20.0115 40.6368C20.1108 40.2498 20.2229 39.8466 20.4138 39.474C20.7856 38.7486 21.6964 36.8208 23.5957 36.4788C23.7747 36.4482 23.3901 36.0396 23.222 36.0621C23.0498 36.0792 22.7115 36.2826 22.5629 36.3753C22.5629 36.3753 22.5629 35.9631 22.557 35.8884C22.5531 35.811 22.4813 35.7885 22.4075 35.7894C22.3338 35.7912 21.8764 35.7885 21.7288 35.9406C21.2961 36.4032 20.5652 37.6452 20.1511 38.5686C19.7361 39.4929 19.4547 39.7782 19.017 39.6351C18.5803 39.4929 18.3187 39.0312 17.5574 39.1707C17.2928 39.2211 16.9987 39.384 16.7705 39.6243C16.8334 39.7377 16.9151 39.8754 17.2721 39.8754C17.6272 39.8754 18.3059 40.0122 18.6856 40.257C19.0672 40.5018 19.4656 40.581 20.0115 40.6368ZM27.5961 34.6563C27.6393 34.9551 27.7967 35.235 27.9698 35.5248C27.9698 35.5248 27.3895 37.9818 25.3013 38.1726C25.3013 38.1726 25.3416 37.6641 25.9603 37.2753C26.58 36.8883 27.5056 36.2844 27.4397 35.3709C27.4397 35.3709 27.2744 35.4024 26.9774 35.7453C26.6803 36.0873 26.0282 37.0764 25.017 37.0836C25.017 37.0836 25.1685 36.621 25.6151 36.3537C26.0626 36.0873 26.6302 35.7453 26.8879 35.3322C27.1456 34.9218 27.417 34.7328 27.5961 34.6563ZM26.6105 43.6095L27.8833 45.2511L28.8472 43.6707L28.5069 43.1082C28.2541 43.5222 27.9846 43.9704 27.8311 44.2161C27.7121 44.0658 27.3905 43.65 26.9695 43.1082L26.6105 43.6095Z" fill="white"/>
<path fill-rule="evenodd" clip-rule="evenodd" d="M26.2859 42.2199C25.0436 40.6206 23.5121 38.6406 23.3557 38.4399L23.8367 38.1213L22.321 37.5858L22.3475 39.1095L22.86 38.7684L25.9249 42.7239L26.2859 42.2199ZM15.8194 33.2343C16.1931 32.8581 16.8266 33.1839 17.4669 33.7266C18.1112 34.2702 18.5134 34.8264 18.1416 35.2017C17.7925 35.55 17.1334 35.2521 16.4872 34.7112C15.8449 34.1667 15.4407 33.6096 15.8194 33.2334" fill="white"/>
<path fill-rule="evenodd" clip-rule="evenodd" d="M16.8531 39.9159C16.8318 39.9014 16.8115 39.8858 16.7921 39.8691C16.4518 39.5955 16.258 39.1707 16.258 38.7081C16.258 37.8198 17.041 37.0962 18.0088 37.0962C18.9728 37.0962 19.7547 37.8198 19.7547 38.7081C19.7547 38.8287 19.7302 39.0249 19.7302 39.0249C19.8098 38.8881 20.097 38.2725 20.1551 38.1582C20.0252 37.7278 19.7451 37.348 19.3575 37.0768C18.9698 36.8056 18.4958 36.6579 18.0079 36.6561C17.1275 36.6561 16.3652 37.1277 16.0023 37.8117C16.139 36.9972 16.5787 36.2664 16.8895 35.9964C17.2633 35.6733 17.8957 35.5689 17.8957 35.5689C17.4797 35.6319 16.9318 35.3961 16.32 34.8759C15.7377 34.3863 15.4406 33.957 15.422 33.5979C15.4574 34.1046 15.4416 34.3881 15.2843 34.8003C15.0738 35.361 14.4974 36.3969 14.7039 37.5669C14.8161 38.2095 15.3216 39.1644 16.1675 39.9456C16.3475 40.1202 16.4134 40.3803 16.4361 40.5135C16.4361 40.5135 17.6813 40.5135 17.9764 40.5405C17.9764 40.5405 18.2734 40.5135 18.2685 40.3452C18.2656 40.1742 18.1013 40.131 17.9518 40.131C17.8043 40.131 17.1846 40.1454 16.8531 39.9159ZM23.7472 40.3074C22.9446 40.572 22.1439 40.716 21.3866 40.8231C20.9101 40.8912 20.4273 40.9153 19.9456 40.8951C19.9588 40.9742 19.9458 41.0551 19.9082 41.1273C19.9082 41.1273 20.0026 41.2281 20.0026 41.3388C20.4718 41.355 20.9606 41.3298 21.4584 41.2578C22.2905 41.1408 23.16 40.9878 24.0384 40.6818L23.7472 40.3074ZM25.0593 40.2498C26.1246 39.717 27.1613 38.8899 28.0987 37.5714L28.2659 37.3131C28.0092 37.4184 27.6826 37.3419 27.6826 37.3419C27.6629 37.3653 27.6236 37.4247 27.6039 37.4598C26.7305 38.646 25.7636 39.393 24.777 39.8826L25.0593 40.2498ZM18.0482 40.671C17.9016 40.6485 17.4344 40.6611 17.1551 40.698C16.8472 40.7439 16.499 40.8006 16.4616 40.9572C16.4282 41.1057 16.5384 41.2623 16.6938 41.4864C16.7892 41.625 17.0184 41.5449 17.1443 41.5017C17.2702 41.4594 17.9902 41.1039 18.1033 40.9887C18.2213 40.8708 18.2685 40.7052 18.0482 40.671ZM18.78 41.1075C18.7119 41.0696 18.6354 41.0461 18.5561 41.0386C18.4769 41.0312 18.3968 41.0399 18.3216 41.0643C18.1249 41.1309 17.4167 41.5152 17.3715 41.6979C17.3223 41.8779 17.4207 41.9661 17.5298 42.0075C17.639 42.048 17.7718 42.0867 17.8711 42.0957C17.9553 42.0978 18.0388 42.0823 18.1153 42.0503C18.1919 42.0183 18.2594 41.9707 18.3128 41.9112C18.4023 41.8077 18.7357 41.4396 18.78 41.355C18.8282 41.274 18.8538 41.1534 18.78 41.1075ZM18.8675 41.5125C18.7193 41.6671 18.5778 41.8272 18.4436 41.9922C18.4111 42.0444 18.4613 42.1272 18.5518 42.1173C18.6393 42.1083 19.1292 42.0633 19.4095 41.8878C19.6888 41.7105 19.8767 41.3694 19.6829 41.247C19.4902 41.1237 19.1902 41.1813 18.8675 41.5125ZM19.0259 40.5333C18.9315 40.5135 18.5616 40.4289 18.4849 40.5405C18.3826 40.6791 18.4534 40.8285 18.7406 40.9572C19.0259 41.0814 19.5649 41.1831 19.6751 41.0481C19.7774 40.9086 19.6308 40.6791 19.0259 40.5333ZM31.1882 31.3623C31.0957 31.6323 30.8233 32.1291 30.7859 32.2803C30.722 32.5656 30.8085 32.9103 31.3741 33.2766C31.3741 33.2766 31.738 33.0408 31.8836 32.733C32.0203 32.4423 31.9426 32.2362 31.801 32.0877C31.6593 31.9383 31.3298 31.5891 31.1882 31.3623ZM30 32.427C30 32.571 30.1151 33.3846 30.3688 33.7905C30.722 34.3575 31.2393 34.7769 31.6928 34.7769C32.1138 34.7769 32.2043 34.5456 32.4088 34.4529C32.4088 34.4529 32.3036 33.9597 31.8295 33.8319C31.2521 33.6708 30.362 33.0309 30 32.427Z" fill="white"/>
<path fill-rule="evenodd" clip-rule="evenodd" d="M31.5177 33.4638C31.6151 33.3936 31.6957 33.3486 31.8128 33.2235C31.8128 33.2235 32.2633 33.3747 32.6321 33.6033C32.998 33.8319 33.357 34.2216 33.5567 34.4241C33.5567 34.4241 33.0029 34.5546 32.6518 34.4079C32.6518 34.4079 32.5249 33.9219 32.1305 33.7041C32.0469 33.6582 31.7715 33.5826 31.5177 33.4638ZM31.9741 33.048C32.0607 32.9256 32.2367 32.6997 32.1964 32.3451C32.1964 32.3451 32.9715 32.8005 33.2046 32.9688C33.4397 33.1461 33.9236 33.606 34.0328 33.7581C34.0328 33.7581 33.4436 33.6384 32.9931 33.4989C32.4993 33.3486 32.158 33.1461 31.9741 33.048ZM33.2892 33.8193C33.7082 33.9588 34.6436 34.0965 35.04 34.2045C35.4334 34.3125 35.7197 34.4988 36.0954 34.8759C36.0954 34.8759 35.5151 35.0253 35.2102 35.1135C35.2102 35.1135 34.7184 34.8075 34.1793 34.6167C33.8311 34.4925 33.658 34.1559 33.2892 33.8193ZM34.1636 36.3753C34.0741 36.2826 33.96 36.1773 34.0456 35.9631C34.1075 35.8038 34.4488 35.6328 34.6554 35.5419C34.9928 35.3934 35.9272 35.1621 36.2311 35.0793C36.2311 35.0793 36.3826 35.2431 36.4643 35.4159C36.4987 35.4825 36.4495 35.5518 36.3216 35.5734C36.059 35.6148 35.4334 35.5068 35.279 35.5986C35.1157 35.6976 35.1738 35.829 35.1738 35.9631C35.1738 35.9631 34.8905 35.7993 34.7056 35.8371C34.4597 35.8857 34.3043 35.9955 34.1636 36.3753ZM34.9967 35.1756C34.9279 35.1972 34.5639 35.2989 34.2079 35.5059C34.2079 35.5059 34.0505 35.4501 33.9718 35.3169C33.898 35.1891 33.5784 34.7535 33.2833 34.6959C33.2833 34.6959 33.5331 34.6734 33.6757 34.6311C33.6757 34.6311 33.9807 34.7031 34.199 34.7841C34.4144 34.8651 34.6829 34.9875 34.9957 35.1756M32.581 34.6257C32.638 34.65 32.7344 34.6932 32.9518 34.7022C32.9518 34.7022 33.7761 35.226 33.8705 35.7516C33.957 36.198 33.6993 36.4131 33.5744 36.468C33.4495 36.5274 32.8761 36.7443 32.5033 36.0342C32.5033 36.0342 33.1387 36.2268 33.3128 35.946C33.4849 35.6625 33.2046 35.253 33.0325 35.1351C32.8052 34.9767 32.397 34.8732 32.1472 34.9119C32.1472 34.9119 32.3459 34.7373 32.581 34.6257Z" fill="white"/>
<path fill-rule="evenodd" clip-rule="evenodd" d="M37.9682 40.6368C37.8679 40.2498 37.7597 39.8466 37.5669 39.474C37.1971 38.7486 36.2853 36.8208 34.382 36.4788C34.2049 36.4482 34.5866 36.0396 34.7617 36.0621C34.9308 36.0792 35.2692 36.2826 35.4207 36.3753C35.4207 36.3753 35.4207 35.9631 35.4236 35.8884C35.4285 35.811 35.4984 35.7885 35.5712 35.7894C35.6449 35.7912 36.1043 35.7885 36.2479 35.9406C36.6836 36.4032 37.4144 37.6452 37.8295 38.5686C38.2446 39.4929 38.5279 39.7782 38.9617 39.6351C39.4003 39.4929 39.6649 39.0312 40.4233 39.1707C40.6889 39.2211 40.98 39.384 41.2131 39.6243C41.1472 39.7377 41.0646 39.8754 40.7115 39.8754C40.3515 39.8754 39.6718 40.0122 39.2951 40.257C38.9135 40.5018 38.5161 40.581 37.9682 40.6368ZM30.3807 34.6563C30.3413 34.9551 30.183 35.235 30.0118 35.5248C30.0118 35.5248 30.5892 37.9818 32.6823 38.1726C32.6823 38.1726 32.638 37.6641 32.0203 37.2753C31.3987 36.8883 30.4731 36.2844 30.54 35.3709C30.54 35.3709 30.7053 35.4024 31.0013 35.7453C31.3023 36.0873 31.9544 37.0764 32.9617 37.0836C32.9617 37.0836 32.8141 36.621 32.3656 36.3537C31.919 36.0873 31.3485 35.7453 31.0918 35.3322C30.8361 34.9218 30.5656 34.7328 30.3807 34.6563ZM28.9938 37.0395C29.1177 37.3653 29.9066 38.3958 30.2528 38.6883C30.601 38.9817 31.4439 39.7593 31.8954 40.1481C31.8954 40.1481 30.6108 39.8547 29.8879 39.2508C29.8879 39.2508 29.3735 39.5253 28.9987 39.5253H28.981C28.6053 39.5253 28.0908 39.2508 28.0908 39.2508C27.3689 39.8538 26.0862 40.1481 26.0862 40.1481C26.5358 39.7593 27.3787 38.9817 27.7249 38.6883C28.0741 38.3958 28.8659 37.3653 28.9869 37.0395H28.9938Z" fill="white"/>
<path fill-rule="evenodd" clip-rule="evenodd" d="M28.9967 39.7683C29.281 39.7683 29.5495 39.6639 29.702 39.6036C29.5495 39.8979 29.2643 40.3551 28.9908 40.5441H28.9869C28.7125 40.3551 28.4272 39.8979 28.2787 39.6036C28.4272 39.6639 28.6957 39.7674 28.981 39.7674L28.9967 39.7683Z" fill="white"/>
<path fill-rule="evenodd" clip-rule="evenodd" d="M30.0974 45.2511L35.1197 38.7693L35.6312 39.1095L35.6616 37.5858L34.14 38.1213L34.623 38.4408L30.1485 44.2161L27.8744 40.4199L27.5931 40.8159L25.5689 43.6329L25.0613 43.3206L25.0554 44.8191L26.5918 44.2584L26.0764 43.9434C26.3557 43.5546 27.4544 42.0291 27.8203 41.5152L30.0974 45.2511Z" fill="white"/>
<path fill-rule="evenodd" clip-rule="evenodd" d="M31.0131 42.705C30.6738 42.2343 30.3334 41.7591 30.1593 41.5152C30.0325 41.7339 29.7748 42.1614 29.4856 42.6339L29.1266 42.0417L30.1043 40.4199L30.3875 40.8159L31.3928 42.2154L31.0131 42.705ZM32.0508 43.1262L32.4118 43.6329L32.9174 43.3206L32.9272 44.8191L31.3889 44.2584L31.9023 43.9434C31.8492 43.8696 31.7715 43.7544 31.6692 43.6149L32.0508 43.1262ZM42.1613 33.2343C41.7875 32.8581 41.1531 33.1839 40.5088 33.7266C39.8685 34.2702 39.4652 34.8264 39.839 35.2017C40.1862 35.55 40.8521 35.2521 41.4934 34.7112C42.1328 34.1667 42.538 33.6096 42.1623 33.2334" fill="white"/>
<path fill-rule="evenodd" clip-rule="evenodd" d="M41.1276 39.9159C41.1502 39.8997 41.1669 39.8853 41.1866 39.8691C41.5269 39.5955 41.7246 39.1707 41.7246 38.7081C41.7246 37.8198 40.9387 37.0962 39.9738 37.0962C39.0079 37.0962 38.2249 37.8198 38.2249 38.7081C38.2249 38.8287 38.2505 39.0249 38.2505 39.0249C38.1718 38.8881 37.8817 38.2725 37.8246 38.1582C37.9536 37.7272 38.2336 37.3468 38.6217 37.0755C39.0097 36.8041 39.4844 36.6568 39.9728 36.6561C40.8531 36.6561 41.6154 37.1277 41.9764 37.8117C41.8387 36.9972 41.4039 36.2664 41.0912 35.9964C40.7184 35.6733 40.0849 35.5689 40.0849 35.5689C40.499 35.6319 41.0469 35.3961 41.6607 34.8759C42.241 34.3863 42.543 33.957 42.5577 33.5979C42.5223 34.1046 42.538 34.3881 42.6925 34.8003C42.9049 35.361 43.4833 36.3969 43.2787 37.5669C43.1656 38.2095 42.659 39.1644 41.8161 39.9456C41.6341 40.1202 41.5662 40.3803 41.5466 40.5135C41.5466 40.5135 40.2984 40.5135 40.0013 40.5405C40.0013 40.5405 39.7072 40.5135 39.7121 40.3452C39.718 40.1742 39.8794 40.131 40.0298 40.131C40.1744 40.131 40.7971 40.1454 41.1276 39.9159ZM32.9174 40.248C31.8551 39.7125 30.8184 38.8899 29.881 37.5714L29.7128 37.3122C29.9705 37.4175 30.298 37.3428 30.298 37.3428C30.3177 37.3653 30.3561 37.4247 30.3748 37.4598C31.2482 38.6442 32.2151 39.3939 33.2017 39.8826L32.9174 40.248ZM34.2315 40.3056C35.0351 40.572 35.8348 40.716 36.5921 40.8231C37.0889 40.8915 37.5728 40.9167 38.0331 40.8951C38.0208 40.9744 38.0345 41.0552 38.0725 41.1273C38.0725 41.1273 37.981 41.2281 37.981 41.3388C37.5079 41.355 37.022 41.3298 36.5194 41.2578C35.6951 41.1408 34.8177 40.9878 33.9433 40.68L34.2315 40.3056ZM39.9315 40.671C40.08 40.6485 40.5482 40.6611 40.8266 40.698C41.1325 40.7439 41.4816 40.8006 41.519 40.9572C41.5525 41.1057 41.4423 41.2623 41.2889 41.4864C41.1895 41.625 40.9613 41.5449 40.8384 41.5017C40.7105 41.4594 39.9905 41.1039 39.8735 40.9887C39.7613 40.8708 39.7121 40.7052 39.9315 40.671ZM39.1967 41.1075C39.2656 41.0697 39.3427 41.0463 39.4226 41.0388C39.5025 41.0314 39.5832 41.0401 39.659 41.0643C39.8538 41.1309 40.561 41.5152 40.6102 41.6979C40.6564 41.8779 40.559 41.9661 40.4489 42.0075C40.3407 42.048 40.2069 42.0867 40.1085 42.0957C40.0247 42.0976 39.9416 42.0819 39.8654 42.05C39.7892 42.018 39.722 41.9705 39.6689 41.9112C39.5764 41.8077 39.2489 41.4396 39.1967 41.355C39.1515 41.274 39.1279 41.1534 39.1967 41.1075ZM39.1141 41.5125C39.2154 41.6196 39.5036 41.9382 39.5361 41.9922C39.5715 42.0444 39.5184 42.1272 39.4289 42.1173C39.3384 42.1083 38.8525 42.0633 38.5721 41.8878C38.2918 41.7105 38.1059 41.3694 38.2997 41.247C38.4876 41.1237 38.7895 41.1813 39.1141 41.5125ZM38.9557 40.5333C39.0482 40.5135 39.418 40.4289 39.4967 40.5405C39.5951 40.6791 39.5243 40.8285 39.238 40.9572C38.9557 41.0814 38.4148 41.1831 38.3076 41.0481C38.2023 40.9086 38.3508 40.6791 38.9557 40.5333Z" fill="white"/>
<mask id="mask0_27_2027" style="mask-type:luminance" maskUnits="userSpaceOnUse" x="0" y="0" width="120" height="54">
<path d="M0 53.4213H119.69V0.024292H0V53.4213Z" fill="#CC003D"/>
</mask>
<g mask="url(#mask0_27_2027)">
<path fill-rule="evenodd" clip-rule="evenodd" d="M61.7085 53.7102H119.69V0.313171H61.7085V53.7102Z" fill="#CC003D"/>
</g>
<mask id="mask1_27_2027" style="mask-type:luminance" maskUnits="userSpaceOnUse" x="0" y="0" width="120" height="54">
<path d="M0 53.4213H119.69V0.024292H0V53.4213Z" fill="white"/>
</mask>
<g mask="url(#mask1_27_2027)">
<path fill-rule="evenodd" clip-rule="evenodd" d="M108.415 17.2503C108.421 17.0145 108.468 15.3567 108.472 15.1335H108.911C110.605 15.1335 110.889 15.4089 111.046 17.2512H108.415V17.2503ZM113.235 16.3305C112.969 14.2695 111.919 13.1967 109.436 13.1967H106.279L105.85 24.8427H108.151C108.151 24.8427 108.363 19.4409 108.375 19.1853L111.281 19.188C111.308 19.4229 111.744 24.8418 111.744 24.8418H114.118C114.118 24.8418 113.301 16.8417 113.235 16.3305ZM80.5023 33.2442C80.5072 33.0084 80.5544 31.3506 80.5584 31.1265L80.9715 31.1031C82.6653 31.1031 82.9751 31.4028 83.1325 33.2451L80.5023 33.2442ZM85.322 32.3244C85.0564 30.2634 84.004 29.1897 81.5223 29.1897H78.3649L77.9361 40.8357H80.2367C80.2367 40.8357 80.4482 35.4339 80.461 35.1783L83.3676 35.181C83.3941 35.4168 83.8299 40.8357 83.8299 40.8357H86.2043C86.2043 40.8357 85.3879 32.8356 85.321 32.3244H85.322ZM68.0597 13.1967V24.8391H70.3849V15.1326H73.2659V24.8391H75.5941V13.1967H68.0597ZM92.6558 17.2512H91.3899C90.8666 17.2512 90.4781 17.1432 90.2312 16.9263C90.0561 16.7751 89.9705 16.5699 89.9705 16.3035V13.1967H87.6394V16.5204C87.6394 17.2872 87.9699 17.9352 88.619 18.45C89.2594 18.9594 90.0443 19.2168 90.9541 19.2168H92.6558V24.8391H94.983V13.1967H92.6558V17.2512ZM97.559 13.1967V15.1326H99.4908V24.8391H101.846V15.1326H103.777V13.1967H97.559ZM94.1449 29.1897V32.9112H90.9541V29.1897H88.6328V40.8375H90.9541V34.8471H94.1459V40.8375H96.4672V29.1897H94.1449ZM71.1787 39.0348C70.9525 39.0348 70.3849 38.9862 70.3849 38.9862V34.8876C70.3849 34.8876 70.5669 34.848 70.7676 34.848C71.9469 34.848 73.3407 34.785 73.3407 36.9396C73.3407 38.9142 71.8092 39.0348 71.1787 39.0348ZM71.461 33.0003C71.0597 33.0003 70.7036 33.0093 70.3849 33.0228V31.1265H74.5574V29.1906H68.0597V40.833H71.5889C75.1072 40.833 75.6522 37.953 75.6522 36.8865C75.6522 35.6247 75.1112 33.0003 71.461 33.0003ZM80.1 19.0386C80.1197 15.8859 80.9656 14.8491 81.8577 14.8338C82.7489 14.8491 83.5948 15.8868 83.6144 19.0377V19.0386C83.5948 22.1166 82.7489 23.1678 81.8577 23.184C80.9656 23.1678 80.1197 22.1166 80.1 19.0386ZM85.9308 18.6066C85.8905 16.9416 85.5797 15.7482 85.0987 14.9004C84.3413 13.4514 83.1325 12.9114 81.8853 12.897L81.8774 12.8961H81.8292C80.582 12.9105 79.3741 13.4514 78.6158 14.9004C78.1338 15.7482 77.824 16.9416 77.7836 18.6066L77.7787 18.9846C77.7807 20.0223 77.9066 21.0267 78.1505 21.8376C78.7899 24.2226 80.2653 25.0668 81.8046 25.0929L81.8371 25.0938H81.8774L81.9099 25.0929C83.4492 25.0668 84.9246 24.2235 85.564 21.8376C85.8099 21.0276 85.9348 20.0214 85.9358 18.9837L85.9308 18.6066ZM108.049 40.8339L105.251 34.0092C105.832 33.6105 106.284 32.8473 106.485 32.0868C106.681 31.3488 106.938 29.1897 106.938 29.1897H104.649C104.612 29.7602 104.567 30.3303 104.513 30.8997C104.408 32.0121 104.051 33.039 102.815 33.039H101.861C101.859 32.9463 101.861 29.1897 101.861 29.1897H99.5341V40.8375H101.861V34.9236C101.861 34.9236 103.092 34.9254 103.266 34.9236L105.552 40.8339H108.049Z" fill="white"/>
</g>
</g>
<defs>
<clipPath id="clip0_27_2027">
<rect width="120" height="54" fill="white"/>
</clipPath>
</defs>
</svg>
