<svg width="33" height="34" viewBox="0 0 33 34" fill="none" xmlns="http://www.w3.org/2000/svg">
<g clip-path="url(#clip0_27_900)">
<path d="M16 3C8.265 3 2 9.265 2 17C2 24.735 8.265 31 16 31C23.735 31 30 24.735 30 17C30 9.265 23.735 3 16 3ZM17.4 26.8H14.6V24H17.4V26.8ZM20.291 15.957L19.038 17.245C18.03 18.253 17.4 19.1 17.4 21.2H14.6V20.5C14.6 18.953 15.23 17.553 16.238 16.538L17.981 14.774C18.485 14.27 18.8 13.57 18.8 12.8C18.8 11.253 17.547 10 16 10C14.453 10 13.2 11.253 13.2 12.8H10.4C10.4 9.706 12.906 7.2 16 7.2C19.094 7.2 21.6 9.706 21.6 12.8C21.6 14.032 21.103 15.145 20.291 15.957Z" fill="#FFB51E"/>
</g>
<defs>
<clipPath id="clip0_27_900">
<rect width="33" height="34" fill="white"/>
</clipPath>
</defs>
</svg>
