<svg width="56" height="56" viewBox="0 0 56 56" fill="none" xmlns="http://www.w3.org/2000/svg">
<path fill-rule="evenodd" clip-rule="evenodd" d="M11.4555 9.62063C11.4555 9.646 11.4555 9.67138 11.4327 9.69588L11.4555 9.62063ZM11.375 45.3162V9.54012C11.375 8.1375 12.5142 7 13.9169 7H43.33C44.7326 7 45.8701 8.1375 45.8701 9.54012V28.7499C44.4886 28.2521 43.031 27.9983 41.5625 28C34.5555 28 28.875 33.6805 28.875 40.6875C28.875 43.4656 29.7675 46.0355 31.2821 48.125H13.9694C13.2958 48.1247 12.6498 47.8571 12.1735 47.3807C11.6972 46.9045 11.4295 46.2584 11.4293 45.5849V45.451L11.375 45.3162ZM24.185 41.5529H19.0601C18.8895 41.5529 18.7513 41.0778 18.7513 40.4906C18.7513 39.9026 18.8895 39.4284 19.0601 39.4284H24.1841C24.3547 39.4284 24.493 39.9035 24.493 40.4906C24.493 41.0769 24.3556 41.5529 24.185 41.5529ZM19.2482 36.7973H27.496C27.7708 36.7973 27.993 36.3221 27.993 35.7341C27.993 35.1479 27.7708 34.6719 27.496 34.6719H19.2482C18.9744 34.6719 18.7513 35.147 18.7513 35.735C18.7513 36.3213 18.9744 36.7973 19.2482 36.7973ZM33.7435 21.9748C33.6674 21.763 33.5151 21.5513 33.362 21.3395C33.2276 21.1586 33.0742 20.9925 32.9044 20.8443C32.7521 20.7025 32.5238 20.5616 32.2945 20.4199C32.0661 20.279 31.8369 20.1372 31.6085 20.0673C31.3792 19.9964 31.0748 19.8546 30.7694 19.7138C30.464 19.572 30.1595 19.502 29.8541 19.4311C29.7212 19.398 29.5898 19.3588 29.4604 19.3139C29.2652 19.2446 29.0656 19.189 28.8628 19.1476C27.9475 18.865 27.3376 18.6533 26.9561 18.3706C26.7907 18.282 26.6533 18.1492 26.5591 17.9869C26.4648 17.8246 26.4175 17.6395 26.4224 17.4519C26.4224 17.0984 26.5746 16.7449 26.88 16.5331C27.1854 16.3214 27.643 16.1796 28.2529 16.1796C29.3204 16.1796 30.464 16.5331 31.6085 17.2401C31.7607 17.3101 31.99 17.3101 32.0661 17.1701L33.439 15.5435C33.5912 15.4026 33.5151 15.19 33.362 15.0491C32.9044 14.7665 32.3706 14.4839 31.8369 14.2004C31.146 13.9242 30.4314 13.7116 29.7019 13.5651V11.7276C29.7019 11.5159 29.5487 11.3741 29.3204 11.3741H27.566C27.3376 11.3741 27.1854 11.5159 27.1854 11.7276V13.4951C25.8116 13.6351 24.7441 14.0595 23.982 14.8374C23.219 15.6144 22.8384 16.5331 22.8384 17.6636C22.8384 17.9471 22.8384 18.1589 22.9145 18.4415C22.9399 18.5115 22.9565 18.5903 22.974 18.669C23.0073 18.8265 23.0414 18.984 23.1429 19.0776C23.1962 19.2255 23.2864 19.3734 23.3616 19.4976C23.3949 19.5501 23.4246 19.6 23.4482 19.6429C23.5244 19.7846 23.6766 19.9964 23.9059 20.1372C24.0581 20.279 24.2104 20.4199 24.4396 20.5616C24.5315 20.6474 24.6522 20.7069 24.7835 20.7716C24.8692 20.8145 24.9594 20.8591 25.0495 20.9151C25.2788 21.056 25.5071 21.1269 25.7364 21.1978C25.8501 21.2327 25.9648 21.2853 26.0794 21.3395C26.1931 21.392 26.3078 21.4445 26.4224 21.4804C26.7278 21.5504 26.9561 21.6221 27.1854 21.6921C27.4137 21.763 27.643 21.8339 27.9475 21.9048C28.1391 21.9485 28.3308 22.0211 28.5031 22.0859C28.6055 22.1244 28.7017 22.1611 28.7866 22.1874C29.015 22.2574 29.2442 22.3282 29.4726 22.47C29.6161 22.5138 29.7299 22.5864 29.8323 22.6511C29.8935 22.6896 29.9504 22.7264 30.0072 22.7526C30.1131 22.8016 30.1823 22.8856 30.2409 22.9556C30.2654 22.9863 30.289 23.0134 30.3117 23.0344C30.3502 23.1061 30.3879 23.1586 30.4255 23.212C30.464 23.2645 30.5025 23.3179 30.541 23.3888C30.6171 23.5296 30.6171 23.6714 30.6171 23.8123C30.6171 24.2366 30.464 24.5901 30.0834 24.8019C29.6636 25.036 29.1904 25.1578 28.7096 25.1554C28.0236 25.1554 27.3376 25.0136 26.5746 24.731C25.9648 24.5193 25.3549 24.1658 24.8211 23.7423C24.7489 23.6743 24.6535 23.6364 24.5543 23.6364C24.455 23.6364 24.3596 23.6743 24.2874 23.7423L22.8375 25.368C22.6844 25.5098 22.7614 25.7215 22.8375 25.7924C24.1334 26.8529 25.5824 27.5599 27.2606 27.7708V29.3965C27.2606 29.6091 27.4129 29.75 27.6421 29.75H29.3956C29.6249 29.75 29.7771 29.6091 29.7771 29.3965V27.8425C31.15 27.6308 32.2184 27.2064 32.9796 26.4294C33.7426 25.6515 34.1241 24.7327 34.1241 23.6031C34.1241 23.3196 34.1241 22.9661 34.048 22.7544C33.8957 22.4009 33.8188 22.1891 33.7426 21.9765L33.7435 21.9748Z" fill="#FFB51E"/>
<path d="M41.8416 30.625C36.1375 30.625 31.5 35.2625 31.5 40.9666C31.5 46.6707 36.1375 51.3083 41.8416 51.3083C47.5449 51.3083 52.1833 46.6708 52.1833 40.9658C52.1833 35.2625 47.5466 30.625 41.8416 30.625ZM46.5964 39.165L41.4689 44.2925C41.3691 44.3917 41.2507 44.4703 41.1204 44.5235C40.9901 44.5768 40.8505 44.6036 40.7098 44.6027C40.5691 44.6017 40.4299 44.5728 40.3004 44.5178C40.1709 44.4628 40.0535 44.3826 39.9551 44.282L37.0764 41.3822C36.9771 41.2835 36.8985 41.166 36.8452 41.0366C36.7919 40.9072 36.765 40.7684 36.7659 40.6284C36.7669 40.4884 36.7958 40.3501 36.8509 40.2214C36.906 40.0927 36.9862 39.9763 37.0869 39.879C37.513 39.4739 38.185 39.4634 38.5901 39.8895L40.7111 42.0332L45.0826 37.6617C45.1812 37.563 45.2985 37.4846 45.4274 37.4311C45.5563 37.3776 45.6946 37.3502 45.8342 37.3502C45.9739 37.3502 46.1122 37.3776 46.2411 37.4311C46.37 37.4846 46.4873 37.563 46.5859 37.6617C47.012 38.0669 47.012 38.7485 46.5964 39.165Z" fill="#FFB51E"/>
</svg>
