<svg width="56" height="56" viewBox="0 0 56 56" fill="none" xmlns="http://www.w3.org/2000/svg">
<g clip-path="url(#clip0_27_401)">
<mask id="mask0_27_401" style="mask-type:luminance" maskUnits="userSpaceOnUse" x="0" y="0" width="56" height="56">
<path d="M56 0H0V56H56V0Z" fill="white"/>
</mask>
<g mask="url(#mask0_27_401)">
<path d="M31.5044 25.2587L38.8185 28.3999L35.6877 21.0849L19.544 4.94116L15.365 9.11929L31.5044 25.2587ZM17.1045 13.643H7.32812C6.54562 13.6453 5.79582 13.9573 5.2425 14.5105C4.68918 15.0639 4.37731 15.8136 4.375 16.5962V19.5493H23.0107L17.1045 13.643ZM48.6719 13.643H31.0301L36.9364 19.5493H51.625V16.5962C51.6243 15.8131 51.313 15.0625 50.7593 14.5088C50.2056 13.9551 49.4549 13.6437 48.6719 13.643Z" fill="#FFB51E"/>
<path d="M42.2275 31.3618H46.7031V39.2368H36.8594V31.3618H40.7286L30.3791 26.9186L24.9795 21.5181H4.375V40.2212C4.37731 41.0037 4.68918 41.7535 5.2425 42.3068C5.79582 42.8601 6.54562 43.172 7.32812 43.1743H48.6719C49.4549 43.1736 50.2056 42.8623 50.7593 42.3086C51.313 41.755 51.6243 41.0042 51.625 40.2212V21.5181H38.0153L42.2284 31.3618H42.2275ZM33.9106 38.2524H9.30125V36.2837H33.9106V38.2524ZM33.9106 33.3306H9.30125V31.3618H33.9106V33.3306ZM13.9738 7.72807L18.1519 3.54907L15.015 0.413071C14.4637 -0.138179 13.489 -0.138179 12.9281 0.413071L10.8421 2.51132C10.7041 2.64778 10.5945 2.81028 10.5198 2.98939C10.445 3.1685 10.4065 3.36066 10.4065 3.55476C10.4065 3.74885 10.445 3.94102 10.5198 4.12013C10.5945 4.29923 10.7041 4.46173 10.8421 4.59819L13.9729 7.72894L13.9738 7.72807Z" fill="#FFB51E"/>
</g>
</g>
<defs>
<clipPath id="clip0_27_401">
<rect width="56" height="56" fill="white"/>
</clipPath>
</defs>
</svg>
