<svg width="56" height="56" viewBox="0 0 56 56" fill="none" xmlns="http://www.w3.org/2000/svg">
<path d="M9.7055 6.12063C9.7055 6.146 9.7055 6.17137 9.68275 6.19587L9.7055 6.12063ZM9.625 41.8162V6.04012C9.625 4.6375 10.7642 3.5 12.1669 3.5H41.58C42.9826 3.5 44.1201 4.6375 44.1201 6.04012V28.5338L41.2247 25.6349C40.8681 25.2753 40.4436 24.9897 39.9761 24.795C39.5085 24.6001 39.007 24.4998 38.5004 24.4998C37.9939 24.4998 37.4923 24.6001 37.0247 24.795C36.5572 24.9897 36.1328 25.2753 35.7761 25.6349L27.3761 34.0436C25.4013 36.0203 26.1791 39.263 28.5127 40.2946V44.625H12.2202C11.5467 44.6247 10.9007 44.3571 10.4244 43.8807C9.94805 43.4045 9.68039 42.7584 9.68012 42.0849V41.951L9.625 41.8162ZM22.435 38.0529H17.3101C17.1395 38.0529 17.0013 37.5778 17.0013 36.9906C17.0013 36.4026 17.1395 35.9284 17.3101 35.9284H22.4341C22.6047 35.9284 22.743 36.4035 22.743 36.9906C22.743 37.5769 22.6056 38.0529 22.435 38.0529ZM17.4982 33.2973H25.746C26.0208 33.2973 26.243 32.8221 26.243 32.2341C26.243 31.6479 26.0208 31.1719 25.746 31.1719H17.4982C17.2244 31.1719 17.0013 31.647 17.0013 32.235C17.0013 32.8213 17.2244 33.2973 17.4982 33.2973ZM31.9935 18.4748C31.9174 18.263 31.7651 18.0513 31.612 17.8395C31.4776 17.6586 31.3242 17.4925 31.1544 17.3443C31.0021 17.2025 30.7738 17.0616 30.5445 16.9199C30.3161 16.779 30.0869 16.6372 29.8585 16.5673C29.6292 16.4964 29.3248 16.3546 29.0194 16.2138C28.714 16.072 28.4095 16.002 28.1041 15.9311C27.9712 15.898 27.8398 15.8588 27.7104 15.8139C27.5153 15.7446 27.3156 15.689 27.1128 15.6476C26.1975 15.365 25.5876 15.1533 25.2061 14.8706C25.0407 14.782 24.9033 14.6492 24.8091 14.4869C24.7148 14.3246 24.6675 14.1395 24.6724 13.9519C24.6724 13.5984 24.8246 13.2458 25.13 13.0331C25.4354 12.8214 25.893 12.6796 26.5029 12.6796C27.5704 12.6796 28.714 13.0331 29.8585 13.7401C30.0107 13.8101 30.24 13.8101 30.3161 13.6701L31.689 12.0435C31.8412 11.9026 31.7651 11.69 31.612 11.5491C31.1544 11.2665 30.6206 10.9839 30.0869 10.7004C29.396 10.4242 28.6814 10.2116 27.9519 10.0651V8.22762C27.9519 8.01587 27.7987 7.87412 27.5704 7.87412H25.816C25.5876 7.87412 25.4354 8.01587 25.4354 8.22762V9.99513C24.0616 10.1351 22.9941 10.5595 22.232 11.3374C21.469 12.1144 21.0884 13.0331 21.0884 14.1636C21.0884 14.4471 21.0884 14.6589 21.1645 14.9415C21.1899 15.0115 21.2065 15.0903 21.224 15.169C21.2573 15.3265 21.2914 15.484 21.3929 15.5776C21.4462 15.7255 21.5364 15.8734 21.6116 15.9976C21.6449 16.0501 21.6746 16.1 21.6982 16.1429C21.7744 16.2846 21.9266 16.4964 22.1559 16.6372C22.3081 16.779 22.4604 16.9199 22.6896 17.0616C22.7815 17.1474 22.9022 17.2069 23.0335 17.2716C23.1192 17.3145 23.2094 17.3591 23.2995 17.4151C23.5288 17.556 23.7571 17.6269 23.9864 17.6978C24.1001 17.7327 24.2148 17.7853 24.3294 17.8395C24.4431 17.892 24.5578 17.9445 24.6724 17.9804C24.9778 18.0504 25.2061 18.1221 25.4354 18.1921C25.6637 18.263 25.893 18.3339 26.1975 18.4048C26.3891 18.4485 26.5808 18.5211 26.7531 18.5859C26.8555 18.6244 26.9517 18.6611 27.0366 18.6874C27.265 18.7574 27.4943 18.8282 27.7226 18.97C27.867 19.0138 27.9799 19.0864 28.0823 19.1511C28.1435 19.1896 28.2004 19.2264 28.2572 19.2526C28.3631 19.3016 28.4323 19.3856 28.4909 19.4556C28.5154 19.4863 28.539 19.5134 28.5617 19.5344C28.6002 19.6061 28.6379 19.6586 28.6755 19.712C28.714 19.7645 28.7525 19.8179 28.791 19.8888C28.8671 20.0296 28.8671 20.1714 28.8671 20.3123C28.8671 20.7366 28.714 21.0901 28.3334 21.3019C27.9136 21.536 27.4404 21.6578 26.9596 21.6554C26.2736 21.6554 25.5876 21.5136 24.8246 21.231C24.2148 21.0193 23.6049 20.6658 23.0711 20.2423C22.9989 20.1743 22.9035 20.1364 22.8043 20.1364C22.705 20.1364 22.6096 20.1743 22.5374 20.2423L21.0875 21.868C20.9344 22.0098 21.0114 22.2215 21.0875 22.2924C22.3834 23.3529 23.8324 24.0599 25.5106 24.2708V25.8965C25.5106 26.1082 25.6629 26.25 25.8921 26.25H27.6456C27.8749 26.25 28.0271 26.1082 28.0271 25.8965V24.3425C29.4 24.1308 30.4684 23.7064 31.2296 22.9294C31.9926 22.1515 32.3741 21.2327 32.3741 20.1031C32.3741 19.8196 32.3741 19.4661 32.298 19.2544C32.1457 18.9009 32.0688 18.6891 31.9926 18.4765L31.9935 18.4748Z" fill="#FFB51E"/>
<path d="M47.7663 35.8986L39.3672 27.4899C39.2543 27.3744 39.1194 27.2826 38.9705 27.2199C38.8216 27.1573 38.6616 27.125 38.5001 27.125C38.3386 27.125 38.1786 27.1573 38.0297 27.2199C37.8808 27.2826 37.7459 27.3744 37.633 27.4899L29.233 35.8986C28.4717 36.6599 29.0011 37.9951 30.101 37.9951H31.1379V46.2971C31.1379 46.8265 31.5605 47.25 32.0898 47.25H44.9103C45.4397 47.25 45.8624 46.8265 45.8624 46.2962V37.9951H46.9001C48 37.9951 48.5293 36.6608 47.7681 35.8986H47.7663Z" fill="#FFB51E"/>
</svg>
