<svg width="56" height="56" viewBox="0 0 56 56" fill="none" xmlns="http://www.w3.org/2000/svg">
<path d="M48.9877 29.4386C48.708 29.0911 48.3234 28.8433 47.8914 28.7323C47.4593 28.6213 47.0029 28.653 46.5902 28.8226L33.782 34.1994L32.6524 34.5416C32.2411 34.6448 31.8299 34.7472 31.4186 34.7472C30.4946 34.7822 29.1585 34.8154 28.9529 34.8496H21.4191C21.2969 34.8526 21.1767 34.8167 21.0761 34.7472C20.8705 34.6448 20.7681 34.4392 20.7681 34.1994C20.7681 33.8232 21.0761 33.5484 21.4532 33.5484H29.981C30.5629 33.5484 31.1106 33.3087 31.4877 32.9324C31.8299 32.5894 32.0355 32.1791 32.1037 31.6646V31.4248C32.1037 30.3976 31.3845 29.5077 30.3914 29.3362C25.6314 28.4113 20.9396 27.2817 16.0414 27.5897C15.8366 27.5897 14.1242 27.6579 13.2335 27.7612V40.3979L13.2685 41.4602C14.9459 41.6649 26.4189 43.0702 26.5904 43.1034C28.4051 43.4114 30.2207 43.3432 31.9672 42.3159H32.0014C32.0014 42.3159 43.4744 35.8436 48.5082 32.5553C49.5355 31.7678 49.742 30.3634 48.9877 29.4386Z" fill="#FFB51E"/>
<path d="M17.9943 16.0825L19.7408 15.1917V25.0898C22.994 25.2954 26.1449 25.9123 29.1925 26.5283C29.7412 26.6306 30.323 26.768 30.8708 26.8704C31.887 27.0726 32.8052 27.6121 33.4765 28.4014C34.1478 29.1907 34.5329 30.1836 34.5694 31.2191L42.9607 27.6929V15.1568L44.7072 16.0475C44.9469 16.2181 45.1867 16.2873 45.4947 16.2873C45.94 16.2873 46.3504 16.0816 46.6252 15.7045C46.8299 15.3965 46.9332 15.0544 46.8649 14.6772C46.7958 14.301 46.6252 13.9921 46.3163 13.7874L46.2822 13.7524L32.1037 6.356C31.6242 6.048 31.0082 6.048 30.5628 6.356L16.4184 13.7883L16.3843 13.8224C16.0763 14.028 15.9048 14.3701 15.8365 14.7122C15.7674 15.0885 15.8707 15.4315 16.0763 15.7395C16.2903 16.0326 16.6093 16.2319 16.9665 16.2957C17.3238 16.3596 17.6919 16.2832 17.9943 16.0825ZM11.864 26.2194H7.24054V41.3919H11.864V26.2194Z" fill="#FFB51E"/>
</svg>
