<svg width="56" height="56" viewBox="0 0 56 56" fill="none" xmlns="http://www.w3.org/2000/svg">
<path fill-rule="evenodd" clip-rule="evenodd" d="M7.0805 9.62063C7.0805 9.646 7.0805 9.67138 7.05775 9.69588L7.0805 9.62063ZM7 45.3162V9.54012C7 8.1375 8.13925 7 9.54187 7H38.955C40.3576 7 41.4951 8.1375 41.4951 9.54012V25.6742C40.6884 25.7644 39.9297 26.2868 39.7031 27.2939C38.6794 31.9498 34.8005 35.0901 33.53 36.0063C33.4373 36.0728 33.355 36.1594 33.2876 36.2582H30.4176C30.3856 36.255 30.3535 36.2533 30.3214 36.253H25.4887C24.9244 36.253 24.5009 36.7115 24.5009 37.2409V47.6105C24.5009 47.8021 24.5534 47.9771 24.6435 48.125H9.59438C8.92063 48.125 8.27443 47.8574 7.79793 47.3811C7.32142 46.9047 7.05361 46.2586 7.05337 45.5849V45.451L7 45.3162ZM19.81 41.5529H14.6851C14.5145 41.5529 14.3763 41.0778 14.3763 40.4906C14.3763 39.9026 14.5145 39.4284 14.6851 39.4284H19.8091C19.9797 39.4284 20.118 39.9035 20.118 40.4906C20.118 41.0769 19.9806 41.5529 19.81 41.5529ZM14.8732 36.7973H23.121C23.3958 36.7973 23.618 36.3221 23.618 35.7341C23.618 35.1479 23.3958 34.6719 23.121 34.6719H14.8732C14.5994 34.6719 14.3763 35.147 14.3763 35.735C14.3763 36.3213 14.5994 36.7973 14.8732 36.7973ZM29.3685 21.9748C29.2924 21.763 29.1401 21.5513 28.987 21.3395C28.8526 21.1586 28.6992 20.9925 28.5294 20.8443C28.3771 20.7034 28.1488 20.5616 27.9195 20.4199C27.6911 20.279 27.4619 20.1372 27.2335 20.0673C27.0042 19.9964 26.6998 19.8546 26.3944 19.7138C26.089 19.572 25.7845 19.502 25.4791 19.4311C25.3462 19.398 25.2148 19.3588 25.0854 19.3139C24.8903 19.2446 24.6906 19.189 24.4878 19.1476C23.5725 18.865 22.9626 18.6533 22.5811 18.3706C22.4157 18.282 22.2783 18.1492 22.1841 17.9869C22.0898 17.8246 22.0425 17.6395 22.0474 17.4519C22.0474 17.0984 22.1996 16.7449 22.505 16.5331C22.8104 16.3214 23.268 16.1796 23.8779 16.1796C24.9454 16.1796 26.089 16.5331 27.2335 17.2401C27.3857 17.3101 27.615 17.3101 27.6911 17.1701L29.064 15.5435C29.2162 15.4026 29.1401 15.19 28.987 15.0491C28.5294 14.7665 27.9956 14.4839 27.4619 14.2004C26.771 13.9242 26.0564 13.7116 25.3269 13.5651V11.7276C25.3269 11.5159 25.1737 11.3741 24.9454 11.3741H23.191C22.9626 11.3741 22.8104 11.5159 22.8104 11.7276V13.4951C21.4366 13.6351 20.3691 14.0595 19.607 14.8374C18.844 15.6144 18.4634 16.5331 18.4634 17.6636C18.4634 17.9471 18.4634 18.1589 18.5395 18.4415C18.5649 18.5115 18.5815 18.5903 18.599 18.669C18.6323 18.8265 18.6664 18.984 18.7679 19.0776C18.8212 19.2255 18.9114 19.3734 18.9866 19.4976C19.0199 19.5501 19.0496 19.6 19.0732 19.6429C19.1494 19.7846 19.3016 19.9964 19.5309 20.1372C19.6831 20.279 19.8354 20.4199 20.0646 20.5616C20.1565 20.6474 20.2772 20.7069 20.4085 20.7716C20.4942 20.8145 20.5844 20.8591 20.6745 20.9151C20.9038 21.056 21.1321 21.1269 21.3614 21.1978C21.4751 21.2327 21.5898 21.2853 21.7044 21.3395C21.8181 21.392 21.9328 21.4445 22.0474 21.4804C22.3528 21.5504 22.5811 21.6221 22.8104 21.6921C23.0387 21.763 23.268 21.8339 23.5725 21.9048C23.7641 21.9485 23.9558 22.0211 24.1281 22.0859C24.2305 22.1244 24.3267 22.1611 24.4116 22.1874C24.64 22.2574 24.8693 22.3282 25.0976 22.47C25.242 22.5138 25.3549 22.5864 25.4573 22.6511C25.5185 22.6896 25.5754 22.7264 25.6322 22.7526C25.7381 22.8016 25.8073 22.8856 25.8659 22.9556C25.8878 22.9834 25.9115 23.0096 25.9368 23.0344C25.9753 23.1061 26.0129 23.1586 26.0505 23.212C26.089 23.2645 26.1275 23.3179 26.166 23.3888C26.2421 23.5296 26.2421 23.6714 26.2421 23.8123C26.2421 24.2366 26.089 24.5901 25.7084 24.8019C25.2886 25.036 24.8154 25.1578 24.3346 25.1554C23.6486 25.1554 22.9626 25.0136 22.1996 24.731C21.5898 24.5193 20.9799 24.1658 20.4461 23.7423C20.3739 23.6743 20.2785 23.6364 20.1793 23.6364C20.08 23.6364 19.9846 23.6743 19.9124 23.7423L18.4625 25.368C18.3094 25.5098 18.3864 25.7215 18.4625 25.7924C19.7584 26.8529 21.2074 27.5599 22.8856 27.7708V29.3965C22.8856 29.6091 23.0379 29.75 23.2671 29.75H25.0206C25.2499 29.75 25.4021 29.6091 25.4021 29.3965V27.8425C26.775 27.6308 27.8434 27.2064 28.6046 26.4294C29.3676 25.6515 29.7491 24.7327 29.7491 23.6031C29.7491 23.3196 29.7491 22.9661 29.673 22.7544C29.5207 22.4009 29.4438 22.1891 29.3676 21.9765L29.3685 21.9748Z" fill="#FFB51E"/>
<path fill-rule="evenodd" clip-rule="evenodd" d="M50.0955 37.0659C51.093 37.0659 51.898 37.8709 51.898 38.8684C51.898 39.8353 51.093 40.6394 50.0631 40.6394H49.7744C50.8358 40.6394 51.6731 41.573 51.5445 42.6676C51.4483 43.5689 50.6109 44.2138 49.7088 44.2138H49.4839C50.5461 44.2138 51.3826 45.1465 51.2549 46.2411C51.1586 47.1424 50.3213 47.7873 49.4191 47.7873H49.1943C50.1918 47.7873 50.9968 48.5923 50.9968 49.5898C50.9968 50.5873 50.1918 51.3923 49.1943 51.3923H42.658C39.2595 51.3923 37.6871 50.6074 36.5435 50.036C36.2784 49.9039 36.0369 49.7831 35.8015 49.686C35.4795 49.5574 35.2538 49.2039 35.2538 48.8495V38.675C35.2538 38.3854 35.4148 38.0958 35.6405 37.9348C36.799 37.0974 40.3401 34.2318 41.2746 29.9828C41.7891 27.6964 45.2988 28.147 45.0406 30.5944C44.912 32.0451 44.6898 32.9411 44.45 33.9036C44.2698 34.6273 44.0799 35.3894 43.9145 36.4534C43.8498 36.8078 44.107 37.0659 44.429 37.0659H50.0955ZM28.2993 38.1605H32.7101C33.2264 38.1605 33.6114 38.5788 33.6114 39.0941V48.5266C33.6114 49.0105 33.2264 49.4288 32.7101 49.4288H28.3001C27.8171 49.4288 27.3989 49.042 27.3989 48.5275V39.0618C27.3989 38.5788 27.7839 38.1605 28.2993 38.1605Z" fill="#FFB51E"/>
</svg>
