<svg width="56" height="56" viewBox="0 0 56 56" fill="none" xmlns="http://www.w3.org/2000/svg">
<mask id="mask0_27_491" style="mask-type:luminance" maskUnits="userSpaceOnUse" x="5" y="0" width="46" height="56">
<path d="M50.444 0H5.25V56H50.444V0Z" fill="white"/>
</mask>
<g mask="url(#mask0_27_491)">
<path fill-rule="evenodd" clip-rule="evenodd" d="M8.01306 0H41.0977C41.8297 0.00237561 42.5312 0.294246 43.0489 0.811906C43.5665 1.32956 43.8583 2.03098 43.8608 2.76306V27.6907H40.9656C40.0045 27.6907 39.0584 28.3634 39.0645 29.3545V31.1565C35.3944 32.2256 33.7155 34.5473 33.6104 37.8599C33.8296 41.3378 35.7608 43.6023 39.1486 44.8367L41.7554 45.7376C43.3111 46.1071 42.8726 46.6206 41.4551 46.6386C40.2387 46.6146 38.9053 46.5005 37.8511 45.8007C36.5897 44.8727 35.1481 45.2751 34.7697 46.3713L34.3823 47.5216H8.01306C7.27942 47.5192 6.57665 47.2261 6.05874 46.7065C5.54082 46.1869 5.25 45.4832 5.25 44.7495V2.76306C5.25237 2.03098 5.54424 1.32956 6.0619 0.811906C6.57956 0.294246 7.28098 0.00237561 8.01306 0ZM20.9905 10.2594H27.7299L27.6938 9.52954C27.6957 9.51081 27.6933 9.49191 27.6871 9.47415C27.6808 9.45647 27.6707 9.44029 27.6576 9.42681C27.6444 9.41343 27.6285 9.40301 27.6109 9.39636C27.5933 9.38971 27.5745 9.387 27.5557 9.3884H21.1346C21.0994 9.39391 21.067 9.41062 21.0421 9.43609C21.0172 9.46146 21.0011 9.49428 20.9964 9.52954L20.9905 10.2594ZM22.474 25.7685H26.1471V10.884H22.4981L22.474 25.7685ZM26.5346 25.7685H27.4355V10.8601H26.5346V25.7685ZM21.2367 25.7925H22.1377L22.1617 10.884H21.2608L21.2367 25.7925ZM13.1577 24.354C13.347 25.0778 13.5572 25.7625 14.7045 25.7625H20.8884V11.1994C20.4138 11.1994 20.0925 11.1363 20.0204 10.7129V9.52954C20.02 9.3828 20.0484 9.23746 20.1043 9.10175C20.16 8.96604 20.242 8.84266 20.3455 8.73866C20.4489 8.63464 20.5719 8.55201 20.7072 8.49551C20.8427 8.43899 20.9878 8.4097 21.1346 8.40931H27.5557C27.7041 8.40473 27.8518 8.43057 27.9898 8.48525C28.1278 8.53992 28.253 8.62228 28.3581 8.72722C28.463 8.83216 28.5453 8.95755 28.6 9.09545C28.6547 9.23344 28.6805 9.38122 28.6759 9.52954V10.7129C28.6764 10.7769 28.664 10.8403 28.6397 10.8995C28.6154 10.9588 28.5796 11.0125 28.5344 11.0578C28.489 11.1031 28.4352 11.1388 28.3761 11.1632C28.3168 11.1875 28.2534 11.1998 28.1894 11.1994H27.802V25.7625H33.8627C34.7246 25.7625 35.3644 25.321 35.4064 24.363V12.614C35.4109 12.4285 35.3777 12.2441 35.3089 12.0719C35.24 11.8997 35.1369 11.7433 35.0057 11.6121C34.8745 11.481 34.7181 11.3778 34.5459 11.3089C34.3737 11.2401 34.1892 11.2069 34.0038 11.2114H30.0724C29.9408 11.2106 29.8148 11.1577 29.7219 11.0644C29.6291 10.9709 29.5769 10.8446 29.5769 10.7129V9.52954C29.5379 8.32822 28.7751 7.5894 27.5497 7.4993H21.1346C20.6003 7.51155 20.0912 7.72948 19.7136 8.10769C19.336 8.48589 19.1188 8.99517 19.1074 9.52954V10.7129C19.0988 10.8396 19.0445 10.9589 18.9543 11.0484C18.8642 11.138 18.7446 11.1917 18.6178 11.1994H15.0769C14.6835 11.1994 13.3019 11.1604 13.2749 12.6019L13.1487 24.354H13.1577ZM12.0435 37.5205C12.0435 37.9985 12.2334 38.4568 12.5713 38.7947C12.9092 39.1327 13.3676 39.3225 13.8455 39.3225C15.2961 39.3225 25.964 39.3646 26.6396 39.1153C28.4958 38.4366 28.0423 35.6495 26.039 35.6315C24.5884 35.6315 13.9206 35.5924 13.2418 35.8387C12.8938 35.9624 12.5922 36.1901 12.3778 36.4909C12.1636 36.7917 12.0468 37.1512 12.0435 37.5205ZM12.1577 31.9764C12.1577 32.4544 12.3475 32.9127 12.6854 33.2506C13.0234 33.5885 13.4817 33.7784 13.9597 33.7784C15.5845 33.7784 28.1474 33.8235 28.8351 33.5711C30.6882 32.8924 30.2376 30.1053 28.2164 30.0873C26.5916 30.0873 14.0287 30.0452 13.341 30.2945C12.9958 30.4208 12.6974 30.6495 12.4858 30.9501C12.2743 31.2507 12.1598 31.6088 12.1577 31.9764Z" fill="#FFB51E"/>
<path d="M34.7006 51.2997C36.2653 52.2699 38.5568 52.6633 39.8483 52.8165V54.8918C39.8483 55.1658 39.9571 55.4285 40.1509 55.6223C40.3446 55.8161 40.6074 55.9249 40.8814 55.9249H44.0469C44.1823 55.9256 44.3167 55.8994 44.4419 55.8478C44.5672 55.7963 44.681 55.7204 44.7767 55.6246C44.9699 55.4297 45.0779 55.1662 45.077 54.8918V52.4891C47.5548 51.8884 50.0356 49.7711 50.3388 46.5215C50.7233 42.443 48.0083 40.7881 47.4587 40.4968C47.1314 40.3226 46.6418 40.1274 46.0201 39.8812C44.7511 39.4149 43.5251 38.8391 42.356 38.1602C42.1925 38.077 42.0576 37.9467 41.9687 37.7861C41.8799 37.6255 41.8411 37.442 41.8575 37.2592C41.9386 36.9439 42.368 36.8658 42.6173 36.8478C44.4734 36.7187 47.3505 37.6647 47.3776 37.6737C47.5145 37.7191 47.6595 37.7354 47.8032 37.7214C47.9468 37.7075 48.0859 37.6636 48.2115 37.5925C48.3372 37.5216 48.4465 37.425 48.5326 37.3091C48.6186 37.1933 48.6794 37.0606 48.7111 36.9198L49.4769 33.5231C49.5224 33.3155 49.5034 33.099 49.4223 32.9024C49.3413 32.706 49.202 32.539 49.0234 32.4239C48.0353 31.7932 46.2003 31.4778 45.038 31.3336V29.4836C45.038 29.347 45.0109 29.2116 44.9582 29.0854C44.9055 28.9593 44.8284 28.8449 44.7311 28.7488C44.6339 28.6527 44.5186 28.5769 44.3919 28.5257C44.2651 28.4744 44.1295 28.4489 43.9928 28.4505H40.8334C40.6967 28.4489 40.561 28.4744 40.4343 28.5257C40.3076 28.5769 40.1923 28.6527 40.095 28.7488C39.9978 28.8449 39.9207 28.9593 39.868 29.0854C39.8153 29.2116 39.7882 29.347 39.7882 29.4836V31.8352C36.1031 32.8834 34.3131 35.3852 34.7336 38.9471C35.1931 42.8514 40.3799 44.5363 41.413 44.8336C43.5663 45.4493 43.4853 45.8067 43.3772 46.2992C43.269 46.7917 41.458 47.1792 39.7161 46.8188C38.7435 46.6025 37.8021 46.2644 36.914 45.8127C36.7802 45.7407 36.6322 45.6992 36.4805 45.6912C36.3288 45.6831 36.1772 45.7087 36.0366 45.7661C35.8959 45.8235 35.7697 45.9113 35.667 46.0232C35.5643 46.1351 35.4876 46.2683 35.4424 46.4134L34.241 50.1104C34.1689 50.3312 34.1732 50.5697 34.2534 50.7877C34.3334 51.0057 34.4846 51.1903 34.6826 51.3118L34.7006 51.2997Z" fill="#FFB51E"/>
</g>
</svg>
