<svg width="83" height="48" viewBox="0 0 83 48" fill="none" xmlns="http://www.w3.org/2000/svg">
<path d="M16.4744 46.5966C13.4631 46.5966 10.7784 46.0426 8.42046 44.9347C6.0767 43.8267 4.21591 42.2997 2.83807 40.3537C1.46023 38.4077 0.742898 36.1776 0.68608 33.6634H9.63494C9.73438 35.3537 10.4446 36.7244 11.7656 37.7756C13.0866 38.8267 14.6562 39.3523 16.4744 39.3523C17.9233 39.3523 19.2017 39.0327 20.3097 38.3935C21.4318 37.7401 22.3054 36.8381 22.9304 35.6875C23.5696 34.5227 23.8892 33.1875 23.8892 31.6818C23.8892 30.1477 23.5625 28.7983 22.9091 27.6335C22.2699 26.4687 21.3821 25.5597 20.2457 24.9062C19.1094 24.2528 17.8097 23.919 16.3466 23.9048C15.0682 23.9048 13.8253 24.1676 12.6179 24.6932C11.4247 25.2187 10.4943 25.9361 9.82671 26.8452L1.62358 25.375L3.69034 2.36364H30.3665V9.90625H11.2969L10.1676 20.8366H10.4233C11.1903 19.7571 12.348 18.8622 13.8963 18.152C15.4446 17.4418 17.1776 17.0866 19.0952 17.0866C21.723 17.0866 24.0668 17.7045 26.1264 18.9403C28.1861 20.1761 29.8125 21.8736 31.0057 24.0327C32.1989 26.1776 32.7884 28.6491 32.7741 31.4474C32.7884 34.3878 32.1065 37.0014 30.7287 39.2884C29.3651 41.5611 27.4545 43.3509 24.9972 44.6577C22.554 45.9503 19.7131 46.5966 16.4744 46.5966ZM63.0938 37.8182V35.517C63.0938 33.7699 63.4631 32.1648 64.2017 30.7017C64.9545 29.2244 66.0412 28.0455 67.4616 27.1648C68.8963 26.2699 70.6435 25.8224 72.7031 25.8224C74.7912 25.8224 76.5455 26.2628 77.9659 27.1435C79.4006 28.0241 80.4801 29.2031 81.2045 30.6804C81.9432 32.1435 82.3125 33.7557 82.3125 35.517V37.8182C82.3125 39.5653 81.9432 41.1776 81.2045 42.6548C80.4659 44.1179 79.3793 45.2898 77.9446 46.1705C76.5099 47.0653 74.7628 47.5128 72.7031 47.5128C70.6151 47.5128 68.8608 47.0653 67.4403 46.1705C66.0199 45.2898 64.9403 44.1179 64.2017 42.6548C63.4631 41.1776 63.0938 39.5653 63.0938 37.8182ZM69.294 35.517V37.8182C69.294 38.8267 69.5355 39.7784 70.0185 40.6733C70.5156 41.5682 71.4105 42.0156 72.7031 42.0156C73.9957 42.0156 74.8764 41.5753 75.3452 40.6946C75.8281 39.8139 76.0696 38.8551 76.0696 37.8182V35.517C76.0696 34.4801 75.8423 33.5142 75.3878 32.6193C74.9332 31.7244 74.0384 31.277 72.7031 31.277C71.4247 31.277 70.5369 31.7244 70.0398 32.6193C69.5426 33.5142 69.294 34.4801 69.294 35.517ZM40.7003 12.8466V10.5455C40.7003 8.78409 41.0767 7.17187 41.8295 5.7088C42.5824 4.23153 43.669 3.05256 45.0895 2.17188C46.5241 1.29119 48.2571 0.850851 50.2884 0.850851C52.3906 0.850851 54.152 1.29119 55.5724 2.17188C56.9929 3.05256 58.0724 4.23153 58.8111 5.7088C59.5497 7.17187 59.919 8.78409 59.919 10.5455V12.8466C59.919 14.608 59.5426 16.2202 58.7898 17.6832C58.0511 19.1463 56.9645 20.3182 55.5298 21.1989C54.1094 22.0653 52.3622 22.4986 50.2884 22.4986C48.2145 22.4986 46.4602 22.0582 45.0256 21.1776C43.6051 20.2827 42.5256 19.1108 41.7869 17.6619C41.0625 16.1989 40.7003 14.5937 40.7003 12.8466ZM46.9432 10.5455V12.8466C46.9432 13.8835 47.1847 14.8423 47.6676 15.723C48.1648 16.6037 49.0384 17.044 50.2884 17.044C51.5952 17.044 52.483 16.6037 52.9517 15.723C53.4347 14.8423 53.6761 13.8835 53.6761 12.8466V10.5455C53.6761 9.50852 53.4489 8.54261 52.9943 7.64773C52.5398 6.75284 51.6378 6.3054 50.2884 6.3054C49.0241 6.3054 48.1506 6.75994 47.6676 7.66903C47.1847 8.57812 46.9432 9.53693 46.9432 10.5455ZM43.5128 46L73.5128 2.36364H79.0952L49.0952 46H43.5128Z" fill="#FFB51E"/>
</svg>
