<svg width="54" height="54" viewBox="0 0 54 54" fill="none" xmlns="http://www.w3.org/2000/svg">
<rect x="0.5" y="0.5" width="53" height="53" rx="26.5" fill="black"/>
<g clip-path="url(#clip0_27_212)">
<path d="M18.5 28.4167C17.7209 28.4167 17.0834 29.0542 17.0834 29.8334C17.0834 30.6126 17.7209 31.2501 18.5 31.2501C19.2792 31.2501 19.9167 30.6126 19.9167 29.8334C19.9167 29.0542 19.2792 28.4167 18.5 28.4167ZM18.5 34.0834C17.7209 34.0834 17.0834 34.7209 17.0834 35.5001C17.0834 36.2792 17.7209 36.9167 18.5 36.9167C19.2792 36.9167 19.9167 36.2792 19.9167 35.5001C19.9167 34.7209 19.2792 34.0834 18.5 34.0834ZM18.5 22.7501C17.7209 22.7501 17.0834 23.3876 17.0834 24.1667C17.0834 24.9459 17.7209 25.5834 18.5 25.5834C19.2792 25.5834 19.9167 24.9459 19.9167 24.1667C19.9167 23.3876 19.2792 22.7501 18.5 22.7501ZM14.25 23.4584C13.8604 23.4584 13.5417 23.7772 13.5417 24.1667C13.5417 24.5563 13.8604 24.8751 14.25 24.8751C14.6396 24.8751 14.9584 24.5563 14.9584 24.1667C14.9584 23.7772 14.6396 23.4584 14.25 23.4584ZM18.5 17.0834C17.7209 17.0834 17.0834 17.7209 17.0834 18.5001C17.0834 19.2792 17.7209 19.9167 18.5 19.9167C19.2792 19.9167 19.9167 19.2792 19.9167 18.5001C19.9167 17.7209 19.2792 17.0834 18.5 17.0834ZM39.75 24.8751C40.1396 24.8751 40.4584 24.5563 40.4584 24.1667C40.4584 23.7772 40.1396 23.4584 39.75 23.4584C39.3604 23.4584 39.0417 23.7772 39.0417 24.1667C39.0417 24.5563 39.3604 24.8751 39.75 24.8751ZM29.8334 19.9167C30.6125 19.9167 31.25 19.2792 31.25 18.5001C31.25 17.7209 30.6125 17.0834 29.8334 17.0834C29.0542 17.0834 28.4167 17.7209 28.4167 18.5001C28.4167 19.2792 29.0542 19.9167 29.8334 19.9167ZM29.8334 14.9584C30.2229 14.9584 30.5417 14.6397 30.5417 14.2501C30.5417 13.8605 30.2229 13.5417 29.8334 13.5417C29.4438 13.5417 29.125 13.8605 29.125 14.2501C29.125 14.6397 29.4438 14.9584 29.8334 14.9584ZM14.25 29.1251C13.8604 29.1251 13.5417 29.4438 13.5417 29.8334C13.5417 30.223 13.8604 30.5417 14.25 30.5417C14.6396 30.5417 14.9584 30.223 14.9584 29.8334C14.9584 29.4438 14.6396 29.1251 14.25 29.1251ZM24.1667 39.0417C23.7771 39.0417 23.4584 39.3605 23.4584 39.7501C23.4584 40.1397 23.7771 40.4584 24.1667 40.4584C24.5563 40.4584 24.875 40.1397 24.875 39.7501C24.875 39.3605 24.5563 39.0417 24.1667 39.0417ZM24.1667 14.9584C24.5563 14.9584 24.875 14.6397 24.875 14.2501C24.875 13.8605 24.5563 13.5417 24.1667 13.5417C23.7771 13.5417 23.4584 13.8605 23.4584 14.2501C23.4584 14.6397 23.7771 14.9584 24.1667 14.9584ZM24.1667 19.9167C24.9459 19.9167 25.5834 19.2792 25.5834 18.5001C25.5834 17.7209 24.9459 17.0834 24.1667 17.0834C23.3875 17.0834 22.75 17.7209 22.75 18.5001C22.75 19.2792 23.3875 19.9167 24.1667 19.9167ZM24.1667 27.7084C22.9909 27.7084 22.0417 28.6576 22.0417 29.8334C22.0417 31.0092 22.9909 31.9584 24.1667 31.9584C25.3425 31.9584 26.2917 31.0092 26.2917 29.8334C26.2917 28.6576 25.3425 27.7084 24.1667 27.7084ZM35.5 28.4167C34.7209 28.4167 34.0834 29.0542 34.0834 29.8334C34.0834 30.6126 34.7209 31.2501 35.5 31.2501C36.2792 31.2501 36.9167 30.6126 36.9167 29.8334C36.9167 29.0542 36.2792 28.4167 35.5 28.4167ZM35.5 34.0834C34.7209 34.0834 34.0834 34.7209 34.0834 35.5001C34.0834 36.2792 34.7209 36.9167 35.5 36.9167C36.2792 36.9167 36.9167 36.2792 36.9167 35.5001C36.9167 34.7209 36.2792 34.0834 35.5 34.0834ZM35.5 22.7501C34.7209 22.7501 34.0834 23.3876 34.0834 24.1667C34.0834 24.9459 34.7209 25.5834 35.5 25.5834C36.2792 25.5834 36.9167 24.9459 36.9167 24.1667C36.9167 23.3876 36.2792 22.7501 35.5 22.7501ZM35.5 17.0834C34.7209 17.0834 34.0834 17.7209 34.0834 18.5001C34.0834 19.2792 34.7209 19.9167 35.5 19.9167C36.2792 19.9167 36.9167 19.2792 36.9167 18.5001C36.9167 17.7209 36.2792 17.0834 35.5 17.0834ZM39.75 29.1251C39.3604 29.1251 39.0417 29.4438 39.0417 29.8334C39.0417 30.223 39.3604 30.5417 39.75 30.5417C40.1396 30.5417 40.4584 30.223 40.4584 29.8334C40.4584 29.4438 40.1396 29.1251 39.75 29.1251ZM29.8334 34.0834C29.0542 34.0834 28.4167 34.7209 28.4167 35.5001C28.4167 36.2792 29.0542 36.9167 29.8334 36.9167C30.6125 36.9167 31.25 36.2792 31.25 35.5001C31.25 34.7209 30.6125 34.0834 29.8334 34.0834ZM29.8334 39.0417C29.4438 39.0417 29.125 39.3605 29.125 39.7501C29.125 40.1397 29.4438 40.4584 29.8334 40.4584C30.2229 40.4584 30.5417 40.1397 30.5417 39.7501C30.5417 39.3605 30.2229 39.0417 29.8334 39.0417ZM24.1667 22.0417C22.9909 22.0417 22.0417 22.9909 22.0417 24.1667C22.0417 25.3426 22.9909 26.2917 24.1667 26.2917C25.3425 26.2917 26.2917 25.3426 26.2917 24.1667C26.2917 22.9909 25.3425 22.0417 24.1667 22.0417ZM24.1667 34.0834C23.3875 34.0834 22.75 34.7209 22.75 35.5001C22.75 36.2792 23.3875 36.9167 24.1667 36.9167C24.9459 36.9167 25.5834 36.2792 25.5834 35.5001C25.5834 34.7209 24.9459 34.0834 24.1667 34.0834ZM29.8334 27.7084C28.6575 27.7084 27.7084 28.6576 27.7084 29.8334C27.7084 31.0092 28.6575 31.9584 29.8334 31.9584C31.0092 31.9584 31.9584 31.0092 31.9584 29.8334C31.9584 28.6576 31.0092 27.7084 29.8334 27.7084ZM29.8334 22.0417C28.6575 22.0417 27.7084 22.9909 27.7084 24.1667C27.7084 25.3426 28.6575 26.2917 29.8334 26.2917C31.0092 26.2917 31.9584 25.3426 31.9584 24.1667C31.9584 22.9909 31.0092 22.0417 29.8334 22.0417Z" fill="url(#paint0_linear_27_212)"/>
</g>
<rect x="0.5" y="0.5" width="53" height="53" rx="26.5" stroke="url(#paint1_linear_27_212)"/>
<defs>
<linearGradient id="paint0_linear_27_212" x1="13.5417" y1="27.0003" x2="40.4584" y2="27.0003" gradientUnits="userSpaceOnUse">
<stop stop-color="#623620"/>
<stop offset="0.121569" stop-color="#CD9F1E"/>
<stop offset="0.25098" stop-color="#E6CD8F"/>
<stop offset="0.521569" stop-color="#CF9A2F"/>
<stop offset="1" stop-color="#662D29"/>
</linearGradient>
<linearGradient id="paint1_linear_27_212" x1="-3.62433e-05" y1="27.0003" x2="54" y2="27.0003" gradientUnits="userSpaceOnUse">
<stop stop-color="#623620"/>
<stop offset="0.121569" stop-color="#CD9F1E"/>
<stop offset="0.25098" stop-color="#E6CD8F"/>
<stop offset="0.521569" stop-color="#CF9A2F"/>
<stop offset="1" stop-color="#662D29"/>
</linearGradient>
<clipPath id="clip0_27_212">
<rect width="34" height="34" fill="white" transform="translate(10 10)"/>
</clipPath>
</defs>
</svg>
