<svg width="148" height="40" viewBox="0 0 148 40" fill="none" xmlns="http://www.w3.org/2000/svg">
<g clip-path="url(#clip0_27_2077)">
<path d="M47.8715 21.6699H55.2671V23.9399H50.641V26.2699H52.1796C53.2156 26.2699 54.5491 26.3899 55.5543 27.3499C55.9851 27.7699 56.5185 28.5399 56.5185 29.7799C56.5185 30.7799 56.18 31.6699 55.5543 32.2799C54.6722 33.1399 53.4002 33.3299 51.9437 33.3299H47.8715V21.6699ZM51.7283 31.1599C52.1078 31.1599 52.7848 31.1299 53.2156 30.7899C53.3592 30.6699 53.6772 30.3499 53.6772 29.7599C53.6772 29.1999 53.39 28.8499 53.1438 28.6799C52.713 28.3799 52.0155 28.3699 51.7283 28.3699H50.6307V31.1699H51.7283V31.1599Z" fill="white"/>
<path d="M63.9654 25.53H66.5502V33.33H63.9654V32.39C63.2679 33.44 62.2626 33.6 61.5959 33.6C60.4471 33.6 59.4829 33.32 58.6007 32.41C57.7596 31.54 57.4314 30.52 57.4314 29.49C57.4314 28.18 57.934 27.06 58.6725 26.34C59.3701 25.66 60.3445 25.27 61.4523 25.27C62.1293 25.27 63.2268 25.43 63.9654 26.41V25.53ZM60.683 28C60.4163 28.26 60.0881 28.72 60.0881 29.42C60.0881 30.12 60.3958 30.57 60.6215 30.82C60.9805 31.19 61.5344 31.43 62.1498 31.43C62.6729 31.43 63.155 31.22 63.4935 30.89C63.832 30.58 64.1192 30.09 64.1192 29.42C64.1192 28.86 63.9038 28.34 63.5243 27.99C63.1345 27.62 62.5601 27.45 62.0883 27.45C61.5344 27.44 61.0215 27.67 60.683 28Z" fill="white"/>
<path d="M68.1094 25.53H70.6943V28.24H73.5868V25.53H76.1716V33.33H73.5868V30.27H70.6943V33.33H68.1094V25.53Z" fill="white"/>
<path d="M77.7205 25.53H80.3054V28.63L82.921 25.53H86.1316L82.7056 29.15L86.3675 33.33H83.0339L80.3054 29.87V33.33H77.7205V25.53Z" fill="white"/>
<path d="M52.0873 6.66992C53.1233 6.66992 54.2721 6.80992 55.2261 7.62993C56.2518 8.49993 56.3954 9.65993 56.3954 10.4599C56.3954 11.9299 55.821 12.7499 55.3697 13.2099C54.4157 14.1499 53.1643 14.2399 52.3232 14.2399H50.641V18.3299H47.8817V6.66992H52.0873ZM50.6307 12.0399H51.6154C51.995 12.0399 52.6515 12.0199 53.1028 11.5999C53.349 11.3599 53.5541 10.9499 53.5541 10.4499C53.5541 9.95993 53.3797 9.55993 53.1028 9.30993C52.6925 8.92993 52.0975 8.86993 51.5642 8.86993H50.6307V12.0399Z" fill="white"/>
<path d="M63.1345 10.53H65.7194V18.33H63.1345V17.39C62.437 18.44 61.4318 18.6 60.7651 18.6C59.6162 18.6 58.652 18.32 57.7699 17.41C56.9288 16.54 56.6006 15.52 56.6006 14.49C56.6006 13.18 57.1032 12.06 57.8417 11.34C58.5392 10.66 59.5137 10.27 60.6215 10.27C61.2985 10.27 62.396 10.43 63.1345 11.41V10.53ZM59.8522 13C59.5855 13.26 59.2572 13.72 59.2572 14.42C59.2572 15.12 59.565 15.57 59.7906 15.82C60.1496 16.19 60.7035 16.43 61.319 16.43C61.8421 16.43 62.3242 16.22 62.6627 15.89C63.0012 15.58 63.2884 15.09 63.2884 14.42C63.2884 13.86 63.073 13.34 62.6935 12.99C62.3037 12.62 61.7293 12.45 61.2574 12.45C60.7138 12.44 60.1907 12.67 59.8522 13Z" fill="white"/>
<path d="M69.8635 10.5299V14.9899L73.2688 10.5299H75.669V18.3299H73.0843V13.7999L69.6788 18.3299H67.2786V10.5299H69.8635ZM74.7253 7.3799C74.5099 8.0099 74.0791 8.5499 73.5765 8.8699C72.8997 9.3099 72.0688 9.3599 71.4739 9.3599C70.8789 9.3599 70.0584 9.3099 69.3711 8.8699C68.8685 8.5599 68.4377 8.0099 68.2223 7.3799L70.0173 6.69989C70.0891 7.04989 70.2635 7.3299 70.4789 7.4999C70.7148 7.6899 71.0123 7.8099 71.4636 7.8099C71.9149 7.8099 72.2124 7.6899 72.4483 7.4999C72.6637 7.3299 72.8381 7.04989 72.9099 6.69989L74.7253 7.3799Z" fill="white"/>
<path d="M81.3824 22.2199V18.4499H81.2798C79.4643 18.4499 78.459 17.7199 77.9975 17.2799C77.423 16.7399 76.8486 15.8099 76.8486 14.3899C76.8486 12.8499 77.5667 11.8699 78.2334 11.3499C79.0232 10.7399 80.2028 10.4099 81.2696 10.4099H81.3927V6.66992H83.9775V10.4099H84.1006C85.1572 10.4099 86.347 10.7399 87.1368 11.3499C87.8036 11.8699 88.5216 12.8499 88.5216 14.3899C88.5216 15.8099 87.9472 16.7299 87.3728 17.2799C86.9112 17.7199 85.9059 18.4499 84.0904 18.4499H83.9878V22.2199H81.3824ZM81.5055 12.4399C80.9003 12.4099 80.2644 12.6099 79.8951 12.9799C79.5874 13.2799 79.372 13.7799 79.372 14.3999C79.372 15.0099 79.5874 15.5199 79.8951 15.8299C80.2336 16.1999 80.849 16.4399 81.5055 16.4199V12.4399ZM83.8442 16.4299C84.5109 16.4499 85.1161 16.1999 85.4546 15.8399C85.7623 15.5299 85.9777 15.0199 85.9777 14.4099C85.9777 13.7999 85.7623 13.2899 85.4546 12.9899C85.0751 12.6199 84.4494 12.4099 83.8442 12.4499V16.4299Z" fill="white"/>
<path d="M93.8144 22.2199V18.4499H93.7118C91.8963 18.4499 90.8911 17.7199 90.4295 17.2799C89.8551 16.7399 89.2806 15.8099 89.2806 14.3899C89.2806 12.8499 89.9987 11.8699 90.6654 11.3499C91.4552 10.7399 92.6348 10.4099 93.7016 10.4099H93.8247V6.66992H96.4095V10.4099H96.5326C97.5892 10.4099 98.779 10.7399 99.5688 11.3499C100.236 11.8699 100.954 12.8499 100.954 14.3899C100.954 15.8099 100.379 16.7299 99.8048 17.2799C99.3432 17.7199 98.3379 18.4499 96.5224 18.4499H96.4198V22.2199H93.8144ZM93.9375 12.4399C93.3323 12.4099 92.6964 12.6099 92.3271 12.9799C92.0194 13.2799 91.804 13.7799 91.804 14.3999C91.804 15.0099 92.0194 15.5199 92.3271 15.8299C92.6656 16.1999 93.281 16.4399 93.9375 16.4199V12.4399ZM96.2762 16.4299C96.9429 16.4499 97.5481 16.1999 97.8866 15.8399C98.1943 15.5299 98.4097 15.0199 98.4097 14.4099C98.4097 13.7999 98.1943 13.2899 97.8866 12.9899C97.5071 12.6199 96.8814 12.4099 96.2762 12.4499V16.4299Z" fill="white"/>
<path d="M108.236 10.53H110.821V18.33H108.236V17.39C107.539 18.44 106.534 18.6 105.867 18.6C104.718 18.6 103.754 18.32 102.872 17.41C102.031 16.54 101.702 15.52 101.702 14.49C101.702 13.18 102.205 12.06 102.944 11.34C103.641 10.66 104.616 10.27 105.723 10.27C106.4 10.27 107.498 10.43 108.236 11.41V10.53ZM104.954 13C104.687 13.26 104.359 13.72 104.359 14.42C104.359 15.12 104.667 15.57 104.892 15.82C105.251 16.19 105.805 16.43 106.421 16.43C106.944 16.43 107.426 16.22 107.765 15.89C108.103 15.58 108.39 15.09 108.39 14.42C108.39 13.86 108.175 13.34 107.795 12.99C107.406 12.62 106.831 12.45 106.359 12.45C105.816 12.44 105.292 12.67 104.954 13Z" fill="white"/>
<path d="M114.965 10.5299V14.9899L118.371 10.5299H120.771V18.3299H118.186V13.7999L114.781 18.3299H112.38V10.5299H114.965ZM119.827 7.3799C119.612 8.0099 119.181 8.5499 118.678 8.8699C118.001 9.3099 117.171 9.3599 116.576 9.3599C115.981 9.3599 115.16 9.3099 114.473 8.8699C113.97 8.5599 113.539 8.0099 113.324 7.3799L115.119 6.69989C115.191 7.04989 115.365 7.3299 115.581 7.4999C115.817 7.6899 116.114 7.8099 116.565 7.8099C117.017 7.8099 117.314 7.6899 117.55 7.4999C117.766 7.3299 117.94 7.04989 118.012 6.69989L119.827 7.3799Z" fill="white"/>
<path d="M122.074 11.2C122.412 10.99 122.966 10.71 123.397 10.55C124.002 10.34 124.669 10.27 125.284 10.27C125.715 10.27 127.182 10.3 127.992 11.07C128.443 11.49 128.587 11.98 128.587 12.5C128.587 12.99 128.495 13.43 128.105 13.83C127.91 14.02 127.674 14.18 127.428 14.27C128.023 14.41 128.392 14.72 128.505 14.83C128.895 15.2 129.038 15.62 129.038 16.12C129.038 16.66 128.864 17.24 128.341 17.75C127.664 18.4 126.73 18.59 125.397 18.59C124.679 18.59 123.93 18.5 123.212 18.24C122.515 17.98 121.992 17.59 121.776 17.42L122.874 15.76C123.161 16 123.54 16.25 123.858 16.39C124.197 16.53 124.679 16.63 125.1 16.63C125.387 16.63 125.777 16.58 126.033 16.44C126.341 16.27 126.392 16.02 126.392 15.85C126.392 15.59 126.248 15.43 126.012 15.33C125.797 15.24 125.366 15.19 125.079 15.19H124.115V13.48H124.853C125.089 13.48 125.571 13.45 125.818 13.34C126.125 13.2 126.197 12.97 126.197 12.82C126.197 12.68 126.125 12.45 125.807 12.31C125.684 12.26 125.428 12.17 124.997 12.17C124.587 12.17 124.279 12.24 123.94 12.38C123.602 12.52 123.335 12.68 123.079 12.89L122.074 11.2Z" fill="white"/>
<path d="M138.393 14.87H132.423C132.423 15.29 132.587 15.85 132.905 16.2C133.295 16.62 133.839 16.69 134.229 16.69C134.608 16.69 134.998 16.62 135.265 16.46C135.295 16.44 135.603 16.25 135.819 15.81L138.26 16.05C137.901 17.15 137.183 17.73 136.721 18.01C135.952 18.46 135.09 18.59 134.188 18.59C132.988 18.59 131.931 18.38 130.998 17.47C130.3 16.79 129.797 15.76 129.797 14.46C129.797 13.34 130.208 12.19 131.018 11.38C131.982 10.44 133.193 10.26 134.085 10.26C134.977 10.26 136.27 10.42 137.265 11.43C138.219 12.41 138.393 13.63 138.393 14.6V14.87ZM136.013 13.37C135.993 13.3 135.87 12.81 135.49 12.46C135.203 12.2 134.793 12.02 134.27 12.02C133.603 12.02 133.213 12.28 132.957 12.53C132.762 12.74 132.577 13.02 132.505 13.37H136.013Z" fill="white"/>
<path d="M139.562 10.53H142.147V13.24H145.04V10.53H147.625V18.33H145.04V15.27H142.147V18.33H139.562V10.53Z" fill="white"/>
<path d="M41.0297 32.44C41.0297 37.3 38.2602 40 33.2751 40H7.75461C2.7695 40 0 37.3 0 32.44V7.56C0 2.7 2.7695 0 7.75461 0H33.2853C38.2602 0 41.0297 2.7 41.0297 7.56V32.44Z" fill="#FEE600"/>
<path d="M26.382 18.0498V14.2298L27.7975 12.8498V16.1598L29.0284 17.3598L33.9828 12.5298L35.2034 13.7198C35.1932 12.8198 35.0085 10.2098 32.7416 8.03983C30.3004 5.73985 27.6539 6.77985 26.7513 7.65983L21.8072 12.4798L23.0689 13.7098L20.5148 16.2198L17.9607 13.7298L19.2223 12.4998L14.2783 7.67983C13.3756 6.79985 10.7292 5.75985 8.28792 8.05983C6.02103 10.2298 5.8364 12.8398 5.82614 13.7398L7.04677 12.5498L12.0011 17.3798L13.232 16.1798V12.8698L14.6475 14.2498V18.0698L16.6375 19.9998L6.83137 29.5598L10.7087 33.3298L20.5148 23.7798L30.3209 33.3398L34.1982 29.5698L24.3921 19.9998L26.382 18.0498Z" fill="#2B2D33"/>
</g>
<defs>
<clipPath id="clip0_27_2077">
<rect width="148" height="40" fill="white"/>
</clipPath>
</defs>
</svg>
