<svg width="128" height="54" viewBox="0 0 128 54" fill="none" xmlns="http://www.w3.org/2000/svg">
<path d="M0 17.3158H12.5745C18.2251 27.2019 26.3796 35.4036 36.2067 41.0848V53.7386C27.8051 50.8589 20.1721 46.0779 13.8951 39.7634C7.61807 33.4489 2.86442 25.7694 0 17.3158Z" fill="#00ABAA"/>
<path d="M36.2067 17.3158V41.0848C26.3796 35.4036 18.2251 27.2019 12.5745 17.3158H36.2067Z" fill="#005599"/>
<path d="M36.2067 17.3158H12.5745C9.59537 12.1097 7.35944 6.50737 5.93251 0.673869H19.5712C23.9692 0.664055 28.1914 2.41111 31.3105 5.53139C34.4295 8.65166 36.1905 12.8901 36.2067 17.3158Z" fill="#00ABAA"/>
<path d="M52.7933 34.007V47.7686C46.9774 46.3434 41.3926 44.0929 36.2067 41.0848V17.3158C40.6057 17.3158 44.8246 19.0743 47.9352 22.2045C51.0458 25.3347 52.7933 29.5802 52.7933 34.007Z" fill="#F59D15"/>
<path d="M36.0722 0.673828C36.9905 4.77729 39.0505 8.53293 42.0116 11.5017C44.9726 14.4705 48.7122 16.5298 52.7933 17.4389V0.673828H36.0722Z" fill="#00ABAA"/>
<path d="M80.3642 21.23V38.2289H75.2145V21.23H69.7224V17.2418H85.8319V21.23H80.3642ZM112.718 19.1374C114.455 17.7323 116.605 16.9446 118.834 16.8972C124.779 16.8972 127.629 21.1315 127.629 27.1999C127.629 34.8562 123.347 38.7705 117.17 38.7705C110.993 38.7705 107.727 34.8562 107.727 25.8336C107.727 18.3374 109.415 13.1675 112.008 10.7549C114.981 8.05921 115.898 8.05921 119.384 7.18526C121.525 6.63135 123.592 6.31131 124.387 5.95435L126.283 10.2625C125.256 10.9026 123.347 11.2965 119.543 12.0966C115.176 12.9829 113.195 14.5584 112.718 19.1251V19.1374ZM117.427 34.5608C120.84 34.5608 122.112 31.7666 122.112 27.7785C122.112 24.1842 121.084 21.23 117.586 21.23C116.018 21.1373 114.47 21.6231 113.232 22.5963C113.06 24.2315 113.006 25.8771 113.073 27.52C113.073 31.8282 114.418 34.6224 117.427 34.6224V34.5608ZM100.779 38.2536L93.7949 28.4062V38.2536H88.6086V17.328H93.8438V26.5106L100.033 17.328H105.746L99.0058 26.8307L106.932 38.3151L100.779 38.2536Z" fill="white"/>
</svg>
