<svg width="148" height="30" viewBox="0 0 148 30" fill="none" xmlns="http://www.w3.org/2000/svg">
<path d="M14.5324 0.202271C6.50651 0.202271 0 6.82708 0 14.9977C0 23.1686 6.50651 29.7967 14.5324 29.7967C22.5571 29.7967 29.0669 23.1686 29.0669 14.9977C29.0669 6.82708 22.5571 0.202271 14.5324 0.202271ZM12.4706 21.2928L11.3994 24.527C7.37321 23.1445 4.66857 19.2889 4.66857 14.9327C4.66857 10.5713 7.37849 6.71443 11.4115 5.33564L12.4788 8.57184C9.81238 9.48331 8.0212 12.0394 8.0212 14.9327C8.0212 17.8228 9.80947 20.3787 12.4706 21.2928ZM17.4694 24.5923L16.4656 21.3354C19.205 20.4601 21.0457 17.8869 21.0457 14.9327C21.0457 12.0155 19.2344 9.45257 16.5383 8.55556L17.5801 5.31065C21.6582 6.66774 24.3983 10.5347 24.3983 14.9327C24.3983 19.3863 21.6137 23.2683 17.4694 24.5923Z" fill="#02BAE8"/>
<path d="M145.536 17.4535L147.125 19.3909C145.501 21.1328 143.442 21.6127 141.801 21.6127C140.247 21.6127 139.077 21.3639 138.117 20.8662C136.005 19.7998 134.94 17.6312 134.94 15.0005C134.94 11.0012 137.593 8.08612 141.503 8.08612C145.833 8.08612 147.946 11.3923 147.666 15.6937L137.751 15.7115C137.803 16.7958 138.414 17.8268 139.269 18.3422C139.985 18.7866 140.823 19.0176 141.975 19.0176C143.179 19.0176 144.437 18.5911 145.536 17.4535ZM137.786 13.383H144.786C144.611 11.8188 143.354 10.5035 141.329 10.5035C139.269 10.5035 138.03 11.961 137.786 13.383ZM71.2376 21.275H74.8168L69.195 14.6451L74.7289 8.40609H71.2026L66.978 13.4008H65.7387V8.40609H62.9979V21.275H65.7387V16.1559H66.9958L71.2376 21.275ZM82.8815 10.7168C80.5951 10.7168 79.0764 12.5299 79.0764 14.8406C79.0764 17.1513 80.5951 18.9643 82.8815 18.9643C85.2214 18.9643 86.6701 17.1868 86.6701 14.8406C86.6701 12.5476 85.2558 10.7168 82.8815 10.7168ZM83.3532 8.08612C86.9145 8.08612 89.5332 10.9301 89.5332 14.8406C89.5332 18.6977 86.9317 21.6127 83.3532 21.6127C81.6072 21.6127 80.2457 21.0084 79.268 19.9241V26.6253H76.5099V8.40609H79.1986V9.95251C80.2457 8.67271 81.6072 8.08612 83.3532 8.08612ZM119.333 8.40609H108.02V10.9834H112.298V21.275H115.056V10.9834H119.333V8.40609ZM61.095 8.40609H49.7826V10.9834H54.0597V21.275H56.818V10.9834H61.095V8.40609ZM46.4308 14.8406C46.4308 12.4409 44.7549 10.6635 42.4855 10.6635C40.2334 10.6635 38.5401 12.3877 38.5401 14.8406C38.5401 17.2579 40.181 19.0354 42.4855 19.0354C44.7375 19.0354 46.4308 17.2757 46.4308 14.8406ZM35.712 14.8406C35.712 10.9834 38.6448 8.08612 42.4855 8.08612C46.3261 8.08612 49.2589 10.9834 49.2589 14.8406C49.2589 18.6977 46.3261 21.6127 42.4855 21.6127C38.6448 21.6127 35.712 18.6977 35.712 14.8406ZM132.705 8.40609V21.275H130V12.9742L123.383 21.275H121.218V8.40609H123.924V16.6892L130.558 8.40609H132.705ZM106.135 21.275H103.394V8.40609H106.135V21.275ZM99.1174 16.8847C99.1174 15.7293 98.3319 14.9294 97.2491 14.9294H94.4733V18.8932H97.2491C98.3319 18.8932 99.1174 18.04 99.1174 16.8847ZM101.84 16.8847C101.84 19.462 100.008 21.275 97.3363 21.275H91.7674V8.40609H94.4911V12.5654H97.5808C100.199 12.5654 101.84 14.2896 101.84 16.8847Z" fill="white"/>
</svg>
