<svg width="144" height="15" viewBox="0 0 144 15" fill="none" xmlns="http://www.w3.org/2000/svg">
<path d="M10.1704 0.157837V4.02641H8.4656C6.312 4.02641 4.5768 5.55284 4.5768 7.44784C4.5768 9.34212 6.312 10.8686 8.4648 10.8686H10.1704V14.7371C14.0584 14.0793 16.9608 11.0793 16.9608 7.44712C16.9608 3.84212 14.0592 0.842123 10.1704 0.157837Z" fill="#003791"/>
<path d="M8.4656 12.0786C5.564 12.0786 3.2 10 3.2 7.44786C3.2 4.89571 5.5632 2.81643 8.464 2.81643H8.7936V0H8.4648C3.7992 0 0 3.34214 0 7.44714C0 11.5793 3.7992 14.9214 8.4656 14.9214H8.7944V12.08H8.4656V12.0786Z" fill="#FC5055"/>
<path d="M28.9256 10.0529C28.2402 10.548 27.3848 10.8173 26.5032 10.8157C24.3792 10.8157 22.6744 9.31574 22.6744 7.44717C22.6744 5.57931 24.3784 4.07931 26.5032 4.07931C27.4277 4.07577 28.3215 4.37516 29.0152 4.92074L30.3616 3.73717C29.3029 2.88619 27.9277 2.417 26.5032 2.42074C23.332 2.42074 20.7896 4.68431 20.7896 7.44717C20.7896 10.2107 23.332 12.5 26.5032 12.5C27.9688 12.5 29.2848 12.0265 30.272 11.2372L28.9256 10.0529ZM89.7992 2.81574L85.5816 7.28931L81.3336 2.81574L81.304 2.86859V2.81574H79.5984V12.0793H81.304V5.28931L85.5816 9.76288L89.7992 5.39502V12.0793H91.4744V2.81574H89.7992ZM43.0448 7.44717C43.0448 10.2372 40.472 12.4736 37.3312 12.4736C34.1608 12.4736 31.6184 10.2107 31.6184 7.44717C31.6184 4.68431 34.1904 2.42074 37.3312 2.42074C40.472 2.42074 43.0448 4.68431 43.0448 7.44717ZM41.1304 7.44717C41.1304 5.57931 39.4256 4.07931 37.3016 4.07931C35.1776 4.07931 33.4728 5.57931 33.4728 7.44717C33.4728 9.31574 35.1776 10.8157 37.3016 10.8157C39.4256 10.8157 41.1304 9.31574 41.1304 7.44717ZM77.864 7.44717C77.864 10.2372 75.2912 12.4736 72.1504 12.4736C68.9792 12.4736 66.4368 10.2107 66.4368 7.44717C66.4368 4.68431 69.0096 2.42074 72.1504 2.42074C75.3208 2.42074 77.864 4.68431 77.864 7.44717ZM75.9792 7.44717C75.9792 5.57931 74.2744 4.07931 72.1504 4.07931C70.0264 4.07931 68.3216 5.57931 68.3216 7.44717C68.3216 9.31574 70.0264 10.8157 72.1504 10.8157C74.244 10.8157 75.9792 9.31574 75.9792 7.44717ZM66.4072 2.81574H64.1032L59.7664 6.71074H58.0016V2.81574H56.3264V12.0793H58.0016V8.21074H59.736L64.0736 12.0793H66.3472L61.2024 7.4736L66.4072 2.81574Z" fill="white"/>
<path d="M137.36 2.81573H135.088L130.72 6.71074H128.955V2.81573H127.28V12.0793H128.955V8.21073H130.72L135.027 12.0793H137.301L132.186 7.47359L137.36 2.81573ZM112.592 12.0786H114.448L109.81 2.81573H107.896L103.26 12.0793H105.114L106.131 10.0793H111.576L112.592 12.0786ZM106.88 8.60502L108.854 4.71073L110.828 8.60502H106.879H106.88Z" fill="white"/>
<path d="M54.1728 9.39503C54.1729 9.02886 54.0878 8.66667 53.9229 8.33138C53.7581 7.99609 53.5171 7.695 53.2152 7.44717C53.7832 6.94717 54.1728 6.26288 54.1728 5.50003C54.1703 4.78645 53.8506 4.10296 53.2841 3.59966C52.7175 3.09636 51.9504 2.81441 51.1512 2.81574H44.9896V12.105H51.1512C52.8264 12.0793 54.1728 10.8686 54.1728 9.39503ZM46.6944 4.31645H51.1216C51.8696 4.31645 52.4672 4.84217 52.4672 5.50003C52.4672 6.15788 51.8696 6.68431 51.1216 6.68431H46.6944V4.31574V4.31645ZM51.1216 10.605H46.6944V8.21074H51.1512C51.8992 8.21074 52.4976 8.76288 52.4976 9.39503C52.4672 10.0522 51.8696 10.605 51.1216 10.605Z" fill="white"/>
<path d="M123.481 2.84216V6.71074H117.349V2.84216H115.644V12.0529H117.349V8.21002H123.481V12.0529H125.186V2.84216H123.481ZM102.662 9.39502C102.662 7.92074 101.286 6.71074 99.6104 6.71074H95.1832V4.31573H101.645V2.81573H93.4784V12.105H99.6104C101.286 12.0793 102.662 10.8686 102.662 9.39502ZM99.6104 10.605H95.1832V8.21073H99.6104C100.358 8.21073 100.957 8.76288 100.957 9.39502C100.957 10.0522 100.358 10.605 99.6104 10.605Z" fill="white"/>
</svg>
