<svg width="74" height="24" viewBox="0 0 74 24" fill="none" xmlns="http://www.w3.org/2000/svg">
<path d="M29.9719 15.2102H28.24V8.46878H33.4839V9.81707H29.9719V15.2102Z" fill="white"/>
<path d="M36.4978 15.3065C36.1771 15.3065 35.8467 15.2744 35.5067 15.2102V13.9101H36.3727C36.5587 13.9101 36.687 13.8362 36.7576 13.6886C36.7896 13.6244 36.8057 13.5569 36.8057 13.4863C36.8057 13.4093 36.7896 13.3419 36.7576 13.2841L34.1116 8.46878H36.0359L37.7679 11.8876L39.2111 8.46878H41.1355L38.6819 13.7656C38.4574 14.2728 38.188 14.6516 37.8737 14.902C37.5273 15.1717 37.0687 15.3065 36.4978 15.3065Z" fill="white"/>
<path d="M42.5318 8.46878H47.5832V13.8619H48.3049V16.4622H46.6692L46.5729 15.2102H42.8204L42.7242 16.4622H41.0885V13.8619H41.7139C41.9 13.65 42.0379 13.4125 42.1277 13.1493C42.2239 12.8796 42.2784 12.6356 42.2912 12.4173L42.5318 8.46878ZM45.8513 13.8619V9.81707H44.0713L43.927 12.2247C43.9077 12.6164 43.8115 13.0112 43.6383 13.4093C43.5677 13.5762 43.4876 13.7271 43.3978 13.8619H45.8513Z" fill="white"/>
<path d="M55.1371 11.069H57.4464C58.1199 11.069 58.6074 11.2231 58.9089 11.5313C59.2168 11.8331 59.3707 12.321 59.3707 12.9952V13.2841C59.3707 13.9582 59.2168 14.4494 58.9089 14.7576C58.6074 15.0593 58.1199 15.2102 57.4464 15.2102H53.4052V8.46878H58.7453V9.81707H55.1371V11.069ZM57.6388 12.9952C57.6388 12.6099 57.4464 12.4173 57.0615 12.4173H55.1371V13.8619H57.0615C57.4464 13.8619 57.6388 13.6693 57.6388 13.2841V12.9952Z" fill="white"/>
<path d="M66.8272 15.2102H65.0953V11.069L62.7861 15.2102H60.9579V8.46878H62.6899V12.6099L64.9991 8.46878H66.8272V15.2102Z" fill="white"/>
<path d="M71.9794 15.2102H70.2475V9.81707H68.2269V8.46878H74V9.81707H71.9794V15.2102Z" fill="white"/>
<path d="M11.2738 9.22793L6.3228 11.7974C6.14489 11.8898 5.9325 11.7605 5.9325 11.5599V6.42093C5.9325 6.22034 6.14489 6.09111 6.3228 6.18344L11.2738 8.75295C11.4661 8.85277 11.4661 9.12812 11.2738 9.22793Z" fill="#C63D3D"/>
<path fill-rule="evenodd" clip-rule="evenodd" d="M5.79886 6.42093C5.79886 6.12005 6.11745 5.9262 6.38431 6.0647L11.3353 8.63421C11.6238 8.78393 11.6238 9.19695 11.3353 9.34667L6.38431 11.9162C6.11745 12.0547 5.79886 11.8608 5.79886 11.5599V6.42093ZM6.26128 6.30219C6.17233 6.25602 6.06613 6.32064 6.06613 6.42093V11.5599C6.06613 11.6602 6.17233 11.7249 6.26128 11.6787L11.2122 9.10919C11.3084 9.05928 11.3084 8.9216 11.2122 8.8717L6.26128 6.30219Z" fill="#251E34"/>
<path d="M5.4749 12.2375L0.523939 14.807C0.346027 14.8993 0.133636 14.7701 0.133636 14.5695V9.43049C0.133636 9.2299 0.346027 9.10067 0.523939 9.193L5.4749 11.7625C5.66722 11.8623 5.66722 12.1377 5.4749 12.2375Z" fill="#C63D3D"/>
<path fill-rule="evenodd" clip-rule="evenodd" d="M0 9.43049C0 9.12961 0.318586 8.93576 0.585454 9.07426L5.53641 11.6438C5.8249 11.7935 5.8249 12.2065 5.53641 12.3562L0.585454 14.9257C0.318586 15.0642 0 14.8704 0 14.5695V9.43049ZM0.462424 9.31175C0.373468 9.26558 0.267273 9.3302 0.267273 9.43049V14.5695C0.267273 14.6698 0.373468 14.7344 0.462424 14.6883L5.41338 12.1187C5.50955 12.0688 5.50955 11.9312 5.41338 11.8813L0.462424 9.31175Z" fill="#251E34"/>
<path d="M11.2738 15.247L6.3228 17.8166C6.14489 17.9089 5.9325 17.7797 5.9325 17.5791V12.4401C5.9325 12.2395 6.14489 12.1102 6.3228 12.2026L11.2738 14.7721C11.4661 14.8719 11.4661 15.1472 11.2738 15.247Z" fill="#C63D3D"/>
<path fill-rule="evenodd" clip-rule="evenodd" d="M5.79886 12.4401C5.79886 12.1392 6.11745 11.9453 6.38431 12.0838L11.3353 14.6533C11.6238 14.803 11.6238 15.2161 11.3353 15.3658L6.38431 17.9353C6.11745 18.0738 5.79886 17.88 5.79886 17.5791V12.4401ZM6.26128 12.3213C6.17233 12.2751 6.06613 12.3398 6.06613 12.4401V17.5791C6.06613 17.6794 6.17233 17.744 6.26128 17.6978L11.2122 15.1283C11.3084 15.0784 11.3084 14.9407 11.2122 14.8908L6.26128 12.3213Z" fill="#251E34"/>
<path d="M17.0726 18.2566L12.1217 20.8261C11.9437 20.9185 11.7314 20.7892 11.7314 20.5886V15.4496C11.7314 15.249 11.9437 15.1198 12.1217 15.2121L17.0726 17.7816C17.2649 17.8814 17.2649 18.1568 17.0726 18.2566Z" fill="#C63D3D"/>
<path fill-rule="evenodd" clip-rule="evenodd" d="M11.5977 15.4496C11.5977 15.1487 11.9163 14.9549 12.1832 15.0934L17.1341 17.6629C17.4226 17.8126 17.4226 18.2256 17.1341 18.3754L12.1832 20.9449C11.9163 21.0834 11.5977 20.8895 11.5977 20.5886V15.4496ZM12.0601 15.3309C11.9712 15.2847 11.865 15.3493 11.865 15.4496V20.5886C11.865 20.6889 11.9712 20.7535 12.0601 20.7074L17.0111 18.1379C17.1073 18.088 17.1073 17.9503 17.0111 17.9004L12.0601 15.3309Z" fill="#251E34"/>
<path d="M12.189 21.2662L17.1399 23.8357C17.3178 23.928 17.5302 23.7988 17.5302 23.5982V18.4592C17.5302 18.2586 17.3178 18.1294 17.1399 18.2217L12.189 20.7912C11.9966 20.891 11.9966 21.1664 12.189 21.2662Z" fill="#FE4B4B"/>
<path fill-rule="evenodd" clip-rule="evenodd" d="M17.6639 18.4592C17.6639 18.1583 17.3453 17.9644 17.0784 18.1029L12.1274 20.6724C11.839 20.8222 11.839 21.2352 12.1274 21.3849L17.0784 23.9544C17.3453 24.0929 17.6639 23.8991 17.6639 23.5982V18.4592ZM17.2014 18.3404C17.2904 18.2943 17.3966 18.3589 17.3966 18.4592V23.5982C17.3966 23.6985 17.2904 23.7631 17.2014 23.7169L12.2505 21.1474C12.1543 21.0975 12.1543 20.9598 12.2505 20.9099L17.2014 18.3404Z" fill="#251E34"/>
<path d="M11.2738 3.20881L6.3228 5.77832C6.14489 5.87065 5.9325 5.74142 5.9325 5.54083V0.401813C5.9325 0.201224 6.14489 0.0719893 6.3228 0.164324L11.2738 2.73383C11.4661 2.83365 11.4661 3.10899 11.2738 3.20881Z" fill="#6730DC"/>
<path fill-rule="evenodd" clip-rule="evenodd" d="M5.79886 0.401813C5.79886 0.100929 6.11745 -0.0929226 6.38431 0.0455796L11.3353 2.61509C11.6238 2.76481 11.6238 3.17783 11.3353 3.32755L6.38431 5.89706C6.11745 6.03556 5.79886 5.84171 5.79886 5.54083V0.401813ZM6.26128 0.283069C6.17233 0.236901 6.06613 0.301518 6.06613 0.401813V5.54083C6.06613 5.64112 6.17233 5.70574 6.26128 5.65957L11.2122 3.09006C11.3084 3.04016 11.3084 2.90248 11.2122 2.85258L6.26128 0.283069Z" fill="#261E34"/>
<path d="M6.39012 6.21837L11.3411 8.78788C11.519 8.88021 11.7314 8.75098 11.7314 8.55039V3.41137C11.7314 3.21078 11.519 3.08155 11.3411 3.17388L6.39012 5.74339C6.1978 5.84321 6.1978 6.11855 6.39012 6.21837Z" fill="#844BFE"/>
<path fill-rule="evenodd" clip-rule="evenodd" d="M11.865 3.41137C11.865 3.11049 11.5464 2.91664 11.2796 3.05514L6.32861 5.62465C6.04012 5.77437 6.04012 6.18739 6.32861 6.33711L11.2796 8.90662C11.5464 9.04512 11.865 8.85127 11.865 8.55039V3.41137ZM11.4026 3.29263C11.4916 3.24646 11.5977 3.31108 11.5977 3.41137V8.55039C11.5977 8.65068 11.4916 8.7153 11.4026 8.66913L6.45164 6.09962C6.35547 6.04972 6.35547 5.91204 6.45164 5.86214L11.4026 3.29263Z" fill="#261E34"/>
<path d="M12.189 9.22793L17.1399 11.7974C17.3179 11.8898 17.5302 11.7605 17.5302 11.5599V6.42093C17.5302 6.22034 17.3179 6.09111 17.1399 6.18344L12.189 8.75295C11.9967 8.85277 11.9967 9.12812 12.189 9.22793Z" fill="#844BFE"/>
<path fill-rule="evenodd" clip-rule="evenodd" d="M17.6639 6.42093C17.6639 6.12005 17.3453 5.9262 17.0784 6.0647L12.1275 8.63421C11.839 8.78393 11.839 9.19695 12.1275 9.34667L17.0784 11.9162C17.3453 12.0547 17.6639 11.8608 17.6639 11.5599V6.42093ZM17.2015 6.30219C17.2904 6.25602 17.3966 6.32064 17.3966 6.42093V11.5599C17.3966 11.6602 17.2904 11.7249 17.2015 11.6787L12.2505 9.10919C12.1543 9.05928 12.1543 8.9216 12.2505 8.8717L17.2015 6.30219Z" fill="#261E34"/>
<path d="M17.9878 12.2375L22.9388 14.807C23.1167 14.8993 23.3291 14.7701 23.3291 14.5695V9.43049C23.3291 9.2299 23.1167 9.10067 22.9388 9.193L17.9878 11.7625C17.7955 11.8623 17.7955 12.1377 17.9878 12.2375Z" fill="#844BFE"/>
<path fill-rule="evenodd" clip-rule="evenodd" d="M23.4627 9.43049C23.4627 9.12961 23.1442 8.93576 22.8773 9.07426L17.9263 11.6438C17.6378 11.7935 17.6378 12.2065 17.9263 12.3562L22.8773 14.9257C23.1442 15.0642 23.4627 14.8704 23.4627 14.5695V9.43049ZM23.0003 9.31175C23.0893 9.26558 23.1955 9.3302 23.1955 9.43049V14.5695C23.1955 14.6698 23.0893 14.7344 23.0003 14.6883L18.0494 12.1187C17.9532 12.0688 17.9532 11.9312 18.0494 11.8813L23.0003 9.31175Z" fill="#261E34"/>
<path d="M17.0726 6.21837L12.1217 8.78788C11.9438 8.88021 11.7314 8.75098 11.7314 8.55039V3.41137C11.7314 3.21078 11.9438 3.08155 12.1217 3.17388L17.0726 5.74339C17.265 5.84321 17.265 6.11855 17.0726 6.21837Z" fill="#6730DC"/>
<path fill-rule="evenodd" clip-rule="evenodd" d="M11.5977 3.41137C11.5977 3.11049 11.9163 2.91664 12.1832 3.05514L17.1342 5.62465C17.4226 5.77437 17.4226 6.18739 17.1342 6.33711L12.1832 8.90662C11.9163 9.04512 11.5977 8.85127 11.5977 8.55039V3.41137ZM12.0602 3.29263C11.9712 3.24646 11.865 3.31108 11.865 3.41137V8.55039C11.865 8.65068 11.9712 8.7153 12.0602 8.66913L17.0111 6.09962C17.1073 6.04972 17.1073 5.91204 17.0111 5.86214L12.0602 3.29263Z" fill="#261E34"/>
<path d="M22.6773 9.22598L17.9242 11.7877C17.7462 11.8836 17.5302 11.7545 17.5302 11.5521V6.42876C17.5302 6.22634 17.7462 6.09725 17.9242 6.19322L22.6773 8.7549C22.8647 8.85591 22.8647 9.12498 22.6773 9.22598Z" fill="#6730DC"/>
<path fill-rule="evenodd" clip-rule="evenodd" d="M17.3966 6.42876C17.3966 6.12513 17.7205 5.9315 17.9876 6.07545L22.7407 8.63713C23.0218 8.78864 23.0218 9.19224 22.7407 9.34375L17.9876 11.9054C17.7205 12.0494 17.3966 11.8558 17.3966 11.5521V6.42876ZM17.8609 6.31099C17.7718 6.26301 17.6639 6.32755 17.6639 6.42876V11.5521C17.6639 11.6533 17.7718 11.7179 17.8609 11.6699L22.6139 9.10821C22.7076 9.05771 22.7076 8.92317 22.6139 8.87267L17.8609 6.31099Z" fill="#261E34"/>
<path d="M22.8715 15.247L17.9205 17.8166C17.7426 17.9089 17.5302 17.7797 17.5302 17.5791V12.4401C17.5302 12.2395 17.7426 12.1102 17.9205 12.2026L22.8715 14.7721C23.0638 14.8719 23.0638 15.1472 22.8715 15.247Z" fill="#6730DC"/>
<path fill-rule="evenodd" clip-rule="evenodd" d="M17.3966 12.4401C17.3966 12.1392 17.7152 11.9453 17.9821 12.0838L22.933 14.6533C23.2215 14.803 23.2215 15.2161 22.933 15.3658L17.9821 17.9353C17.7152 18.0738 17.3966 17.88 17.3966 17.5791V12.4401ZM17.859 12.3213C17.7701 12.2751 17.6639 12.3398 17.6639 12.4401V17.5791C17.6639 17.6794 17.7701 17.744 17.859 17.6978L22.81 15.1283C22.9062 15.0784 22.9062 14.9407 22.81 14.8908L17.859 12.3213Z" fill="#261E34"/>
<path d="M12.189 14.7721L17.1399 12.2026C17.3179 12.1102 17.5302 12.2395 17.5302 12.4401V17.5791C17.5302 17.7797 17.3179 17.9089 17.1399 17.8166L12.189 15.247C11.9967 15.1472 11.9967 14.8719 12.189 14.7721Z" fill="#844BFE"/>
<path fill-rule="evenodd" clip-rule="evenodd" d="M17.6639 17.5791C17.6639 17.88 17.3453 18.0738 17.0784 17.9353L12.1275 15.3658C11.839 15.2161 11.839 14.803 12.1275 14.6533L17.0784 12.0838C17.3453 11.9453 17.6639 12.1392 17.6639 12.4401V17.5791ZM17.2015 17.6978C17.2904 17.744 17.3966 17.6794 17.3966 17.5791V12.4401C17.3966 12.3398 17.2904 12.2751 17.2015 12.3213L12.2505 14.8908C12.1543 14.9407 12.1543 15.0784 12.2505 15.1283L17.2015 17.6978Z" fill="#261E34"/>
<path d="M6.39009 17.7816L11.3411 15.2121C11.519 15.1198 11.7314 15.249 11.7314 15.4496V20.5886C11.7314 20.7892 11.519 20.9185 11.3411 20.8261L6.39009 18.2566C6.19777 18.1568 6.19777 17.8814 6.39009 17.7816Z" fill="#FE4B4B"/>
<path fill-rule="evenodd" clip-rule="evenodd" d="M11.865 20.5886C11.865 20.8895 11.5464 21.0834 11.2795 20.9449L6.32858 18.3754C6.04009 18.2256 6.04009 17.8126 6.32858 17.6629L11.2795 15.0934C11.5464 14.9549 11.865 15.1487 11.865 15.4496V20.5886ZM11.4026 20.7074C11.4915 20.7535 11.5977 20.6889 11.5977 20.5886V15.4496C11.5977 15.3493 11.4915 15.2847 11.4026 15.3309L6.45161 17.9004C6.35545 17.9503 6.35545 18.088 6.45161 18.1379L11.4026 20.7074Z" fill="#251E34"/>
<path d="M0.591233 14.7721L5.54219 12.2026C5.72011 12.1102 5.9325 12.2395 5.9325 12.4401V17.5791C5.9325 17.7797 5.72011 17.9089 5.54219 17.8166L0.591233 15.247C0.39891 15.1472 0.398909 14.8719 0.591233 14.7721Z" fill="#FE4B4B"/>
<path fill-rule="evenodd" clip-rule="evenodd" d="M6.06613 17.5791C6.06613 17.88 5.74755 18.0738 5.48068 17.9353L0.529718 15.3658C0.241234 15.2161 0.241232 14.803 0.529718 14.6533L5.48068 12.0838C5.74755 11.9453 6.06613 12.1392 6.06613 12.4401V17.5791ZM5.60371 17.6978C5.69266 17.744 5.79886 17.6794 5.79886 17.5791V12.4401C5.79886 12.3398 5.69266 12.2751 5.60371 12.3213L0.652748 14.8908C0.556587 14.9407 0.556586 15.0784 0.652748 15.1283L5.60371 17.6978Z" fill="#251E34"/>
<path d="M0.591233 8.75295L5.54219 6.18344C5.72011 6.09111 5.9325 6.22034 5.9325 6.42093V11.5599C5.9325 11.7605 5.72011 11.8898 5.54219 11.7974L0.591233 9.22793C0.39891 9.12811 0.398909 8.85276 0.591233 8.75295Z" fill="#FE4B4B"/>
<path fill-rule="evenodd" clip-rule="evenodd" d="M6.06613 11.5599C6.06613 11.8608 5.74755 12.0547 5.48068 11.9162L0.529718 9.34667C0.241234 9.19695 0.241232 8.78393 0.529718 8.63421L5.48068 6.0647C5.74755 5.9262 6.06613 6.12005 6.06613 6.42093V11.5599ZM5.60371 11.6787C5.69266 11.7249 5.79886 11.6602 5.79886 11.5599V6.42093C5.79886 6.32064 5.69266 6.25602 5.60371 6.30219L0.652748 8.8717C0.556587 8.9216 0.556586 9.05928 0.652748 9.10919L5.60371 11.6787Z" fill="#251E34"/>
</svg>
