<svg width="56" height="56" viewBox="0 0 56 56" fill="none" xmlns="http://www.w3.org/2000/svg">
<path d="M19.25 19.25C19.25 17.325 17.675 15.75 15.75 15.75C13.825 15.75 12.25 17.325 12.25 19.25C12.25 21.175 13.825 22.75 15.75 22.75C17.675 22.75 19.25 21.175 19.25 19.25ZM14 19.25C14 18.2 14.7 17.5 15.75 17.5C16.8 17.5 17.5 18.2 17.5 19.25C17.5 20.3 16.8 21 15.75 21C14.7 21 14 20.3 14 19.25ZM40.25 22.75C42.175 22.75 43.75 21.175 43.75 19.25C43.75 17.325 42.175 15.75 40.25 15.75C38.325 15.75 36.75 17.325 36.75 19.25C36.75 21.175 38.325 22.75 40.25 22.75ZM40.25 17.5C41.3 17.5 42 18.2 42 19.25C42 20.3 41.3 21 40.25 21C39.2 21 38.5 20.3 38.5 19.25C38.5 18.2 39.2 17.5 40.25 17.5Z" fill="#FFB51E"/>
<path d="M47.2745 10.213L38.5 8.75L34.5319 4.781C34.1263 4.3748 33.6445 4.05257 33.1142 3.83276C32.5839 3.61295 32.0155 3.49988 31.4414 3.5H19.3139C18.7391 3.49976 18.1698 3.61276 17.6386 3.83256C17.1075 4.05235 16.6247 4.37464 16.2181 4.781L12.25 8.75H8.75C7.78754 8.75 7.00004 9.5375 7.00004 10.5V17.5L10.5 19.25C10.5 16.275 12.775 14 15.75 14C18.725 14 21 16.275 21 19.25H35C35 16.275 37.275 14 40.25 14C43.225 14 45.5 16.275 45.5 19.25L49 17.493V12.25C49 11.2875 48.2247 10.3705 47.2745 10.213ZM24.5 10.5H15.75L18.9901 5.63938C19.0701 5.51957 19.1783 5.42135 19.3054 5.35343C19.4323 5.28551 19.5742 5.24998 19.7181 5.25H23.625C23.8571 5.25 24.0796 5.34219 24.2438 5.50628C24.4079 5.67038 24.5 5.89293 24.5 6.125V10.5ZM26.25 10.5V6.125C26.25 5.89293 26.3422 5.67038 26.5063 5.50628C26.6704 5.34219 26.8929 5.25 27.125 5.25H31.1377C31.3698 5.25005 31.5924 5.34227 31.7564 5.50638L36.75 10.5H26.25ZM36.9967 42.0122L25.4625 40.3708L21.1522 36.75H26.2482C26.7124 36.75 27.1575 36.5656 27.4858 36.2374C27.8139 35.9092 27.9982 35.4641 27.9982 35C27.9982 34.5359 27.8139 34.0908 27.4858 33.7626C27.1575 33.4344 26.7124 33.25 26.2482 33.25H12.2482V40.25H15.0237L21.511 44.9873C21.8382 45.318 22.281 45.5 22.7482 45.5H36.7482C37.6617 45.5 38.4282 44.7895 38.493 43.8725C38.57 42.9782 37.9032 42.147 36.9967 42.0122ZM10.4982 33.25H6.99829V43.75H10.4982V33.25Z" fill="#FFB51E"/>
<path fill-rule="evenodd" clip-rule="evenodd" d="M29.75 32.375C29.75 28.028 33.278 24.5 37.625 24.5C41.972 24.5 45.5 28.028 45.5 32.375C45.5 36.722 41.972 40.25 37.625 40.25C33.278 40.25 29.75 36.722 29.75 32.375ZM40.656 32.4187C40.7496 32.55 40.8432 32.6812 40.8905 32.8125C40.9369 32.9438 40.9841 33.075 41.0777 33.2937C41.125 33.425 41.125 33.6438 41.125 33.8188C41.125 34.5188 40.8905 35.0875 40.4215 35.5688C39.9516 36.05 39.2945 36.3125 38.4501 36.4438V37.4062C38.4501 37.5375 38.3565 37.625 38.2156 37.625H37.135C36.995 37.625 36.9005 37.5375 36.9005 37.4062V36.4C35.868 36.2687 34.9755 35.8313 34.1784 35.175C34.1311 35.1313 34.0848 35 34.1784 34.9125L35.07 33.9062C35.1636 33.8188 35.3045 33.8188 35.3981 33.9062C35.7271 34.1687 36.1025 34.3875 36.4779 34.5188C36.9469 34.6938 37.3704 34.7812 37.7921 34.7812C38.1203 34.7812 38.402 34.6938 38.6365 34.5625C38.8719 34.4312 38.9655 34.2125 38.9655 33.95C38.9655 33.8625 38.9655 33.775 38.9183 33.6875C38.8946 33.6438 38.8719 33.6114 38.8482 33.5781C38.8246 33.5449 38.801 33.5125 38.7783 33.4688C38.7634 33.4556 38.7494 33.4381 38.7336 33.4198C38.6961 33.3673 38.647 33.3242 38.5901 33.2937C38.5551 33.2771 38.5201 33.2553 38.4825 33.2308C38.4195 33.1905 38.3495 33.1459 38.2611 33.1187C38.1211 33.0312 37.9794 32.9875 37.8385 32.9438C37.786 32.9271 37.7274 32.9052 37.6644 32.8807C37.5585 32.8405 37.4404 32.7959 37.3231 32.7688C37.135 32.725 36.9941 32.6812 36.8533 32.6375C36.7133 32.5937 36.5715 32.55 36.3843 32.5063C36.3143 32.4844 36.2434 32.4511 36.1725 32.4187C36.1045 32.385 36.0343 32.3558 35.9625 32.3313C35.8207 32.2875 35.6799 32.2438 35.539 32.1562C35.4859 32.1242 35.4313 32.0947 35.3754 32.0679C35.2949 32.0276 35.2205 31.9909 35.1636 31.9375C35.0236 31.85 34.9291 31.7625 34.8355 31.675C34.7174 31.5983 34.6204 31.4929 34.5538 31.3687C34.5398 31.3425 34.5214 31.3119 34.5013 31.2786C34.448 31.1966 34.4028 31.1096 34.3665 31.0188C34.3035 30.9601 34.2825 30.863 34.2615 30.7659C34.2526 30.7182 34.2406 30.6711 34.2256 30.625C34.1784 30.45 34.1784 30.3188 34.1784 30.1438C34.1784 29.4438 34.4129 28.875 34.8828 28.3938C35.3518 27.9125 36.0089 27.65 36.8533 27.5625V26.4688C36.8533 26.3375 36.9469 26.25 37.0878 26.25H38.1675C38.3075 26.25 38.402 26.3375 38.402 26.4688V27.6062C38.8246 27.6937 39.2945 27.825 39.7162 28C40.0444 28.175 40.3725 28.35 40.6551 28.525C40.7488 28.6125 40.7951 28.7438 40.7015 28.8313L39.8571 29.8375C39.8099 29.925 39.669 29.925 39.5754 29.8813C38.8719 29.4438 38.1675 29.225 37.5104 29.225C37.135 29.225 36.8541 29.3125 36.666 29.4438C36.5767 29.5089 36.5046 29.5946 36.4555 29.6937C36.4065 29.7926 36.382 29.902 36.3843 30.0125C36.3843 30.2312 36.4779 30.45 36.7124 30.5813C36.9469 30.7563 37.3231 30.8875 37.8857 31.0625C38.0205 31.0879 38.1404 31.1273 38.2532 31.1649C38.3364 31.1929 38.416 31.2191 38.4956 31.2375C38.6837 31.2813 38.8719 31.325 39.0591 31.4125C39.2472 31.5 39.4354 31.5875 39.5754 31.6313C39.7154 31.675 39.8571 31.7625 39.998 31.85C40.138 31.9375 40.2797 32.025 40.3734 32.1125C40.467 32.2 40.5615 32.2875 40.656 32.4187Z" fill="#FFB51E"/>
</svg>
