<svg width="56" height="56" viewBox="0 0 56 56" fill="none" xmlns="http://www.w3.org/2000/svg">
<path d="M31.2944 30.9278C31.2413 30.8082 31.1725 30.6964 31.0896 30.5952C31.0169 30.5 30.9342 30.4129 30.8429 30.3354C30.7606 30.2619 30.6372 30.1875 30.5148 30.1131C30.3914 30.0396 30.268 29.9652 30.1446 29.9285C30.0221 29.8909 29.8576 29.8174 29.6931 29.743C29.5286 29.6695 29.365 29.6319 29.2005 29.5951C29.036 29.5584 28.8715 29.484 28.6668 29.4464C28.1741 29.2994 27.8451 29.1882 27.6395 29.0395C27.5513 28.9943 27.4776 28.9252 27.4269 28.8401C27.3761 28.755 27.3503 28.6573 27.3525 28.5583C27.3525 28.3736 27.4348 28.1881 27.5984 28.077C27.7629 27.9659 28.0096 27.8924 28.3378 27.8924C28.9126 27.8924 29.5286 28.0779 30.1446 28.4471C30.2269 28.4848 30.3503 28.4848 30.3914 28.4104L31.1307 27.559C31.2121 27.4855 31.1719 27.3744 31.0896 27.3C30.8205 27.1433 30.5465 26.9951 30.268 26.8555C29.8954 26.7108 29.5106 26.5995 29.1182 26.523V25.5605C29.1182 25.4494 29.036 25.375 28.9126 25.375H27.9676C27.8451 25.375 27.7629 25.4494 27.7629 25.5605V26.4854C27.0235 26.5597 26.4486 26.782 26.0391 27.1889C25.8391 27.3793 25.681 27.6092 25.5748 27.8641C25.4685 28.1191 25.4167 28.3933 25.4223 28.6694C25.4223 28.8181 25.4222 28.9292 25.4634 29.0771C25.5045 29.1882 25.5045 29.3361 25.5859 29.4096C25.6279 29.5216 25.7101 29.6319 25.7513 29.7063C25.7924 29.7806 25.8738 29.8909 25.9971 29.9652C26.0794 30.0396 26.1616 30.114 26.285 30.1875C26.3673 30.2619 26.4898 30.2986 26.6131 30.373C26.7365 30.4465 26.8599 30.4841 26.9832 30.5209C27.1057 30.5576 27.2291 30.632 27.3525 30.6687C27.517 30.7055 27.6395 30.7431 27.7637 30.7799C27.8862 30.8166 28.0088 30.8534 28.1741 30.891C28.3378 30.9278 28.5022 31.0021 28.6256 31.0397C28.7481 31.0756 28.8715 31.1132 28.9949 31.1867C29.1183 31.2244 29.2005 31.2979 29.2827 31.3355C29.365 31.3723 29.4052 31.4466 29.4464 31.4834C29.4875 31.5569 29.5286 31.5945 29.5697 31.668C29.6031 31.737 29.6173 31.8139 29.6109 31.8902C29.6109 32.1125 29.5286 32.2971 29.3239 32.4091C29.0968 32.5318 28.8425 32.5952 28.5845 32.5938C28.2152 32.5938 27.8451 32.5194 27.4347 32.3715C27.0937 32.2514 26.7745 32.0764 26.4898 31.8535C26.4505 31.8178 26.3994 31.7981 26.3463 31.7981C26.2932 31.7981 26.242 31.8178 26.2027 31.8535L25.4223 32.7049C25.34 32.7784 25.3811 32.8904 25.4223 32.9271C26.1205 33.4819 26.901 33.852 27.804 33.9631V34.8154C27.804 34.9256 27.8863 35 28.0096 35H28.9546C29.0771 35 29.1594 34.9256 29.1594 34.8145V34.0008C29.8988 33.8896 30.4736 33.6674 30.884 33.2605C31.2953 32.8528 31.5 32.3715 31.5 31.7791C31.5 31.6313 31.5 31.4466 31.4589 31.3346C31.3766 31.15 31.3364 31.0389 31.2944 30.9278Z" fill="#FFB51E"/>
<path d="M46.5499 22.4148L30.1332 5.96479C29.9126 5.73841 29.6489 5.55849 29.3577 5.43565C29.0664 5.3128 28.7535 5.24951 28.4374 5.24951C28.1214 5.24951 27.8085 5.3128 27.5172 5.43565C27.226 5.55849 26.9622 5.73841 26.7417 5.96479L10.3249 22.4148C8.83741 23.9067 9.86991 26.5168 12.0207 26.5168H14.0472V42.7612C14.046 43.0059 14.0933 43.2486 14.1864 43.4749C14.2794 43.7014 14.4163 43.9071 14.5892 44.0803C14.7621 44.2536 14.9677 44.391 15.1939 44.4844C15.4201 44.5779 15.6626 44.6256 15.9074 44.6249H40.9657C41.2106 44.6257 41.4532 44.578 41.6797 44.4846C41.906 44.3911 42.1117 44.2538 42.2847 44.0803C42.4577 43.907 42.5947 43.7011 42.6877 43.4746C42.7808 43.248 42.8281 43.0052 42.8268 42.7603V26.5168H44.8533C47.0032 26.5168 48.0374 23.9067 46.549 22.4148H46.5499ZM28.4374 38.3267C24.0537 38.3267 20.4565 34.7628 20.4565 30.3292C20.4565 25.9367 24.0125 22.3317 28.4374 22.3317C32.8623 22.3317 36.4183 25.9367 36.4183 30.3292C36.4183 34.7628 32.8212 38.3267 28.4374 38.3267Z" fill="#FFB51E"/>
</svg>
