<svg width="56" height="56" viewBox="0 0 56 56" fill="none" xmlns="http://www.w3.org/2000/svg">
<path d="M44.2987 19.0619L49.1401 20.0541L46.0846 40.2036L41.2406 39.2175L44.2987 19.0619Z" fill="#FFB51E"/>
<path d="M50.4638 19.1975L43.4349 17.7651L43.8812 14.8233L50.8698 16.2478C50.9197 15.8471 50.9599 15.4997 51.0072 15.1549C51.0334 14.9642 51.0509 14.7673 51.1122 14.5888C51.2023 14.3237 51.4123 14.2152 51.6888 14.2861C51.9513 14.3543 52.0764 14.5512 52.086 14.8172C52.0887 14.9021 52.065 14.987 52.0519 15.0718L50.1164 27.8337C50.1015 27.9291 50.0972 28.0288 50.0648 28.1163C49.9747 28.3631 49.7918 28.4908 49.5258 28.4427C49.2642 28.3946 49.1032 28.224 49.0883 27.9475C49.0822 27.8197 49.1058 27.6902 49.1242 27.5633C49.5267 24.9077 49.9283 22.2521 50.3343 19.5964C50.3518 19.4827 50.4052 19.3742 50.4638 19.1975Z" fill="#FFB51E"/>
<path d="M50.0063 14.9546C48.3184 14.6116 46.6725 14.2756 45.0161 13.9379C45.0126 13.9239 44.996 13.8906 44.9995 13.8626C45.1876 12.6578 45.3495 11.4459 45.5744 10.2506C45.8255 8.91975 46.9954 8.17076 48.3788 8.39476C49.6178 8.59426 50.5986 9.772 50.5531 11.0688C50.533 11.6463 50.4149 12.2159 50.3326 12.7881C50.2285 13.5056 50.1165 14.2231 50.0063 14.9546ZM42.5513 46.7574L41.0139 40.3821L45.9576 41.3875L42.6388 46.7705L42.5513 46.7574Z" fill="#FFB51E"/>
<path fill-rule="evenodd" clip-rule="evenodd" d="M4.4555 9.62063C4.4555 9.646 4.4555 9.67138 4.43275 9.69588L4.4555 9.62063ZM4.375 9.8875V45.3162L4.42837 45.4501V45.584C4.42837 46.9875 5.56588 48.125 6.96938 48.125H36.3283C37.7318 48.125 38.8693 46.9875 38.8693 45.5849V9.54012C38.8693 8.1375 37.7318 7 36.33 7H6.916C6.24239 7.00024 5.59643 7.26793 5.12012 7.74424C4.6438 8.22056 4.3761 8.86655 4.37587 9.54012L4.375 9.8875ZM34.8705 22.0255L28.9546 21.0394L26.6963 18.781C26.2903 18.3749 25.8085 18.0527 25.278 17.8329C24.7476 17.6131 24.179 17.5 23.6049 17.5H16.6075C15.447 17.5002 14.3341 17.9613 13.5135 18.7819L11.2551 21.0394H8.89525C8.246 21.0394 7.71488 21.5705 7.71488 22.2197V26.9386L10.0747 28.1199C10.0747 26.1135 11.6086 24.5796 13.615 24.5796C15.6205 24.5796 17.1544 26.1135 17.1544 28.119H26.5939C26.5939 26.1135 28.1278 24.5796 30.1332 24.5796C32.1396 24.5796 33.6735 26.1135 33.6735 28.119L36.0334 26.9342V23.3993C36.0334 22.7509 35.511 22.1323 34.8705 22.0255ZM19.5151 22.218H13.6159L15.7159 19.068C15.7959 18.9484 15.9042 18.8503 16.0312 18.7826C16.1582 18.7148 16.2999 18.6794 16.4439 18.6795H18.6401C18.8722 18.6795 19.0948 18.7717 19.2588 18.9358C19.4229 19.0998 19.5151 19.3224 19.5151 19.5545V22.218ZM20.6946 22.218V19.5563C20.6946 19.3242 20.7868 19.1016 20.9509 18.9375C21.115 18.7735 21.3376 18.6813 21.5696 18.6813H23.8726C24.1046 18.6811 24.327 18.773 24.4912 18.9368L27.7743 22.2206H20.6955L20.6946 22.218ZM13.6159 25.7582C14.2411 25.7601 14.8404 26.0093 15.2825 26.4515C15.7247 26.8937 15.9739 27.4928 15.9757 28.1181C15.9739 28.7434 15.7247 29.3426 15.2825 29.7847C14.8404 30.227 14.2411 30.4762 13.6159 30.478C12.9906 30.4762 12.3914 30.227 11.9493 29.7847C11.507 29.3426 11.2578 28.7434 11.256 28.1181C11.2578 27.4928 11.507 26.8937 11.9493 26.4515C12.3914 26.0093 12.9906 25.7601 13.6159 25.7582ZM13.6159 26.9386C12.9071 26.9386 12.4355 27.4111 12.4355 28.1181C12.4355 28.8269 12.908 29.2985 13.6159 29.2985C14.3237 29.2985 14.7954 28.826 14.7954 28.1181C14.7954 27.4102 14.3229 26.9386 13.6159 26.9386ZM32.494 28.1181C32.4922 28.7434 32.243 29.3426 31.8007 29.7847C31.3586 30.227 30.7594 30.4762 30.1341 30.478C29.5089 30.4762 28.9097 30.227 28.4675 29.7847C28.0253 29.3426 27.7761 28.7434 27.7743 28.1181C27.7761 27.4928 28.0253 26.8937 28.4675 26.4515C28.9097 26.0093 29.5089 25.7601 30.1341 25.7582C30.7594 25.7601 31.3586 26.0093 31.8007 26.4515C32.243 26.8937 32.4922 27.4928 32.494 28.1181ZM31.3145 28.1181C31.3145 27.4102 30.842 26.9386 30.1341 26.9386C29.4262 26.9386 28.9546 27.4111 28.9546 28.1181C28.9546 28.8269 29.4271 29.2985 30.1341 29.2985C30.8429 29.2985 31.3145 28.826 31.3145 28.1181ZM30.4307 41.5529H12.8135C12.5317 41.5529 12.2615 41.441 12.0624 41.2417C11.8632 41.0426 11.7513 40.7724 11.7513 40.4906C11.7513 40.2089 11.8632 39.9387 12.0624 39.7395C12.2615 39.5403 12.5317 39.4284 12.8135 39.4284H30.4307C30.7125 39.4284 30.9827 39.5403 31.1818 39.7395C31.3811 39.9387 31.493 40.2089 31.493 40.4906C31.493 40.7724 31.3811 41.0426 31.1818 41.2417C30.9827 41.441 30.7125 41.5529 30.4307 41.5529ZM12.8135 36.7973H30.4307C30.7126 36.7973 30.9829 36.6852 31.1822 36.486C31.3814 36.2867 31.4934 36.0164 31.4934 35.7346C31.4934 35.4527 31.3814 35.1824 31.1822 34.9831C30.9829 34.7839 30.7126 34.6719 30.4307 34.6719H12.8135C12.5317 34.6719 12.2614 34.7839 12.062 34.9831C11.8628 35.1824 11.7508 35.4527 11.7508 35.7346C11.7508 36.0164 11.8628 36.2867 12.062 36.486C12.2614 36.6852 12.5317 36.7973 12.8135 36.7973Z" fill="#FFB51E"/>
</svg>
