<svg width="56" height="56" viewBox="0 0 56 56" fill="none" xmlns="http://www.w3.org/2000/svg">
<path d="M52.542 16.2138H6.9125V20.9037H52.5438V16.2138H52.542ZM49.3439 8.75H10.1097C9.26249 8.7528 8.45073 9.09064 7.85171 9.68984C7.25267 10.289 6.91504 11.1009 6.9125 11.9481V14.0805H52.5438V11.9481C52.543 11.0997 52.2056 10.2862 51.6053 9.68651C51.0051 9.08688 50.1914 8.75 49.343 8.75H49.3439ZM44.0667 33.4311C44.3397 33.4311 44.6101 33.3773 44.8624 33.2728C45.1146 33.1684 45.3438 33.0152 45.5368 32.8222C45.7299 32.6292 45.883 32.3999 45.9875 32.1478C46.0919 31.8955 46.1457 31.6251 46.1457 31.3521C46.1457 31.0791 46.0919 30.8088 45.9875 30.5565C45.883 30.3043 45.7299 30.0751 45.5368 29.882C45.3438 29.689 45.1146 29.5359 44.8624 29.4314C44.6101 29.3269 44.3397 29.2731 44.0667 29.2731C43.5153 29.2731 42.9866 29.4921 42.5967 29.882C42.2068 30.2719 41.9878 30.8007 41.9878 31.3521C41.9878 31.9036 42.2068 32.4323 42.5967 32.8222C42.9866 33.2121 43.5153 33.4311 44.0667 33.4311ZM13.8416 26.9167C8.1375 26.9167 3.5 31.5543 3.5 37.2593C3.5 42.9625 8.1375 47.6 13.8416 47.6C19.5449 47.6 24.1833 42.9625 24.1833 37.2584C24.1833 31.5543 19.5457 26.9167 13.8407 26.9167H13.8416ZM18.5964 35.4567L13.4689 40.5842C13.3691 40.6836 13.2507 40.7622 13.1205 40.8155C12.9902 40.8689 12.8506 40.8958 12.7098 40.8948C12.569 40.8938 12.4299 40.865 12.3003 40.8098C12.1708 40.7548 12.0535 40.6745 11.9551 40.5737L9.07638 37.674C8.97706 37.5753 8.89849 37.4578 8.8452 37.3284C8.79191 37.199 8.76496 37.0602 8.76592 36.9202C8.76689 36.7802 8.79576 36.6419 8.85089 36.5131C8.90601 36.3844 8.98625 36.2681 9.08687 36.1708C9.513 35.7656 10.185 35.7551 10.5901 36.1812L12.7111 38.325L17.0826 33.9535C17.1813 33.8547 17.2985 33.7763 17.4274 33.7229C17.5563 33.6694 17.6946 33.6419 17.8342 33.6419C17.9739 33.6419 18.1122 33.6694 18.2411 33.7229C18.37 33.7763 18.4872 33.8547 18.5859 33.9535C19.012 34.3586 19.012 35.0411 18.5964 35.4567Z" fill="#FFB51E"/>
<path d="M6.91156 26.8958C8.95965 25.5175 11.3728 24.7822 13.8415 24.7844C20.7182 24.7844 26.3155 30.3818 26.3155 37.2584C26.3155 37.5996 26.305 37.9409 26.2718 38.2716H49.3438C50.1914 38.2691 51.0035 37.9313 51.6027 37.3318C52.202 36.7324 52.5396 35.9202 52.5419 35.0726V23.0256H6.91243L6.91156 26.8958ZM36.6038 27.1303C37.3728 27.1303 38.1271 27.341 38.7848 27.7395C39.4425 28.1379 39.9786 28.7088 40.3348 29.3904C40.7709 28.5548 41.4746 27.8898 42.3335 27.5015C43.1924 27.1134 44.1567 27.0246 45.072 27.2495C45.9873 27.4743 46.8007 27.9997 47.3819 28.7417C47.9632 29.4837 48.2787 30.3991 48.278 31.3416C48.2784 32.2838 47.9627 33.1989 47.3815 33.9405C46.8002 34.6821 45.9871 35.2073 45.0721 35.4321C44.1571 35.6569 43.1931 35.5682 42.3344 35.1804C41.4758 34.7926 40.7719 34.128 40.3357 33.2929C39.8996 34.1284 39.1958 34.7936 38.3369 35.1817C37.4781 35.5699 36.5137 35.6586 35.5985 35.4337C34.6832 35.209 33.8698 34.6835 33.2885 33.9416C32.7072 33.1996 32.3917 32.2842 32.3924 31.3416C32.3929 30.2249 32.8367 29.154 33.6264 28.3643C34.4161 27.5746 35.487 27.1307 36.6038 27.1303Z" fill="#FFB51E"/>
<path d="M36.6039 33.4311C36.877 33.4311 37.1472 33.3773 37.3995 33.2729C37.6518 33.1683 37.8809 33.0152 38.074 32.8222C38.267 32.6291 38.4202 32.3999 38.5247 32.1477C38.6291 31.8954 38.6829 31.6251 38.6829 31.3521C38.6829 31.0791 38.6291 30.8087 38.5247 30.5565C38.4202 30.3043 38.267 30.0751 38.074 29.882C37.8809 29.689 37.6518 29.5358 37.3995 29.4314C37.1472 29.3269 36.877 29.2731 36.6039 29.2731C36.0525 29.2731 35.5237 29.4921 35.1338 29.882C34.744 30.2719 34.5249 30.8007 34.5249 31.3521C34.5249 31.9035 34.744 32.4323 35.1338 32.8222C35.5237 33.2121 36.0525 33.4311 36.6039 33.4311Z" fill="#FFB51E"/>
</svg>
