<svg width="56" height="56" viewBox="0 0 56 56" fill="none" xmlns="http://www.w3.org/2000/svg">
<path d="M44.2987 19.0619L49.1401 20.0541L46.0846 40.2036L41.2406 39.2175L44.2987 19.0619Z" fill="#FFB51E"/>
<path d="M50.4638 19.1975L43.4349 17.7651L43.8812 14.8233L50.8698 16.2478C50.9197 15.8471 50.9599 15.4997 51.0072 15.1549C51.0334 14.9642 51.0509 14.7673 51.1122 14.5888C51.2023 14.3237 51.4123 14.2152 51.6888 14.2861C51.9513 14.3543 52.0764 14.5512 52.086 14.8172C52.0887 14.9021 52.065 14.987 52.0519 15.0718L50.1164 27.8337C50.1015 27.9291 50.0972 28.0288 50.0648 28.1163C49.9747 28.3631 49.7918 28.4908 49.5258 28.4427C49.2642 28.3946 49.1032 28.224 49.0883 27.9475C49.0822 27.8197 49.1058 27.6902 49.1242 27.5633C49.5267 24.9077 49.9283 22.2521 50.3343 19.5964C50.3518 19.4827 50.4052 19.3742 50.4638 19.1975Z" fill="#FFB51E"/>
<path d="M50.0063 14.9546C48.3184 14.6116 46.6725 14.2756 45.0161 13.9379C45.0126 13.9239 44.996 13.8906 44.9995 13.8626C45.1876 12.6578 45.3495 11.4459 45.5744 10.2506C45.8264 8.91976 46.9954 8.17076 48.3788 8.39476C49.6178 8.59426 50.5986 9.77201 50.5531 11.0688C50.533 11.6463 50.4149 12.2159 50.3326 12.7881C50.2285 13.5056 50.1165 14.2231 50.0063 14.9546ZM42.5513 46.7574L41.0139 40.3821L45.9576 41.3875L42.6388 46.7705L42.5513 46.7574Z" fill="#FFB51E"/>
<path fill-rule="evenodd" clip-rule="evenodd" d="M4.4555 9.62063C4.4555 9.646 4.4555 9.67138 4.43275 9.69588L4.4555 9.62063ZM4.375 9.8875V45.3162L4.42837 45.4501V45.584C4.42837 46.9875 5.56588 48.125 6.96938 48.125H36.3283C37.7318 48.125 38.8693 46.9875 38.8693 45.5849V9.54012C38.8693 8.1375 37.7318 7 36.33 7H6.916C6.24239 7.00024 5.59643 7.26793 5.12012 7.74424C4.6438 8.22056 4.3761 8.86655 4.37587 9.54012L4.375 9.8875ZM28.7962 14.434V17.703L31.4825 19.3655V23.6136L29.8226 22.5864V30.3039C29.8226 31.0782 29.1926 31.7074 28.4183 31.7074H14.8269C14.0516 31.7074 13.4225 31.0774 13.4225 30.303V22.5837L11.7653 23.6128V19.3611L20.6579 13.8416C20.9437 13.6648 21.2733 13.5711 21.6094 13.5711C21.9456 13.5711 22.2751 13.6648 22.561 13.8416L25.487 15.6529V14.4349C25.487 14.2065 25.6716 14.021 25.9 14.021H28.3832C28.6108 14.021 28.7962 14.2056 28.7962 14.434ZM23.9724 29.8471H27.9615V21.4331L26.2876 20.3971L23.2829 18.536L21.6099 17.5L19.9404 18.536L16.9417 20.3971L15.2801 21.4288V29.8471H19.2692V26.1126H20.6806C20.8018 26.1074 20.9163 26.0556 21.0003 25.9679C21.0843 25.8803 21.1311 25.7637 21.1311 25.6423C21.1311 25.521 21.0843 25.4043 21.0003 25.3167C20.9163 25.229 20.8018 25.1772 20.6806 25.172H19.2692V22.8209C19.2692 22.561 19.4792 22.3501 19.7391 22.3501H23.5016C23.7615 22.3501 23.9724 22.561 23.9724 22.8209V29.8471ZM30.4307 41.5529H12.8135C12.674 41.5529 12.5359 41.5254 12.407 41.472C12.2781 41.4186 12.161 41.3404 12.0624 41.2417C11.9637 41.1431 11.8855 41.026 11.8321 40.8972C11.7787 40.7683 11.7513 40.6301 11.7513 40.4906C11.7513 40.3512 11.7787 40.213 11.8321 40.0841C11.8855 39.9552 11.9637 39.8381 12.0624 39.7395C12.161 39.6408 12.2781 39.5626 12.407 39.5092C12.5359 39.4558 12.674 39.4284 12.8135 39.4284H30.4307C30.7125 39.4284 30.9827 39.5403 31.1818 39.7395C31.3811 39.9387 31.493 40.2089 31.493 40.4906C31.493 40.7724 31.3811 41.0426 31.1818 41.2417C30.9827 41.441 30.7125 41.5529 30.4307 41.5529ZM12.8135 36.7973H30.4307C30.7126 36.7973 30.9829 36.6852 31.1822 36.486C31.3814 36.2867 31.4934 36.0164 31.4934 35.7346C31.4934 35.4527 31.3814 35.1824 31.1822 34.9831C30.9829 34.7839 30.7126 34.6719 30.4307 34.6719H12.8135C12.5317 34.6719 12.2614 34.7839 12.062 34.9831C11.8628 35.1824 11.7508 35.4527 11.7508 35.7346C11.7508 36.0164 11.8628 36.2867 12.062 36.486C12.2614 36.6852 12.5317 36.7973 12.8135 36.7973Z" fill="#FFB51E"/>
</svg>
