<svg width="410" height="410" viewBox="0 0 410 410" fill="none" xmlns="http://www.w3.org/2000/svg">
<rect x="407.5" y="407.5" width="405" height="405" rx="202.5" transform="rotate(180 407.5 407.5)" fill="black" stroke="url(#paint0_linear_27_186)" stroke-width="5"/>
<path fill-rule="evenodd" clip-rule="evenodd" d="M278.481 135.24C273.382 133.157 271.923 127.381 265.396 127.681C259.729 127.942 257.62 135.526 249.537 135.232L250.088 136.584C254.324 136.241 258.56 137.991 264.009 137.991C272.303 137.991 273.129 135.465 277.89 135.847L278.481 135.24ZM335.999 148.489C334.936 156.973 332.627 157.6 327.269 158.221C318.977 158.389 305.182 155.36 300.967 152.53C303.462 149.161 299.542 129.436 284.128 137.991C278.46 141.137 271.492 144.044 263.689 144.709C272.121 145.32 279.806 142.459 284.76 139.59C294.364 134.029 301.089 146.026 297.198 152.222C294.428 156.634 313.367 158.899 319.775 159.596C322 159.863 328.049 160.264 329.65 159.907C330.618 161.276 324.04 162.208 324.085 162.878C324.581 170.329 320.046 176.752 317.616 176.214C319.711 171.971 319.589 167.314 318.761 163.677L315.626 164.67L315.011 162.889C314.805 162.878 314.603 162.872 314.398 162.864C314.621 172.88 308.086 180.504 304.836 180.514C307.944 174.469 308.37 167.493 307.541 163.074C299.505 163.925 293.129 166.874 288.401 170.975C296.415 166.829 306.071 166.653 306.071 166.653C306.6 169.865 281.513 170.47 285.691 186.032C291.313 194.993 296.89 200.416 302.081 204.057C303.249 204.898 296.96 206.196 303.309 210.081C307.437 212.608 308.624 211.813 308.872 207.771C308.973 207.284 309.539 205.076 309.539 205.076C309.539 205.076 312.401 204.599 314.528 204.03C314.495 205.09 314.934 205.111 315.283 203.813C316.416 200.567 317.206 196.103 316.894 193.583C318.753 195.191 320.019 203.446 319.998 205.667C319.984 206.949 317.259 209.697 315.932 210.619C310.599 213.983 304.708 212.894 298.131 208.06C300.883 211.387 304.959 213.494 309.297 213.779C318.223 213.761 319.981 207.227 321.935 209.428C326.402 214.484 319.108 208.879 315.457 228.084C311.874 228.227 309.877 231.157 308.872 234.173C306.802 231.213 304.497 229.034 301.593 227.638C298.856 229.202 295.789 234.536 295.242 236.127C287.835 233.273 278.208 218.089 271.564 217.944C259.468 201.561 260.201 183.773 265.594 172.462C249.767 170.156 206.546 159.585 193.356 147.912C200.927 148.629 206.657 147.784 211.15 145.981C219.913 149.599 246.767 159.784 274.076 161.035C268.938 174.417 267.374 194.745 280.331 206.687C268.492 193.387 273.405 171.065 279.214 157.662C257.887 160.21 223.479 149.788 212.585 145.353C216.577 143.569 219.737 141.411 220.854 138.172C221.215 138.299 223.85 139.005 224.277 139.136C230.593 126.948 218.85 115.295 194.749 115.37C210.977 98.6589 255.012 108 258.968 99.6939C271.953 105.837 295.459 106.678 295.935 118.407C296.58 118.747 287.646 119.295 283.011 126.054C283.011 126.053 281.727 116.727 274.997 117.424C281.782 119.268 278.516 126.723 282.285 128.901C284.805 124.023 293.594 121.111 298.748 120.268C309.645 124.531 326.945 125.58 328.034 130.747C327.951 133.915 323.496 133.514 320.918 138.067C316.365 146.104 327.084 138.788 329.225 140.296C331.565 141.942 333.068 148.536 335.999 148.489ZM306.781 209.931C307.717 207.625 309.93 199.435 308.645 195.191C307.708 198.792 304.476 204.383 301.593 206.689C301.521 208.13 305.844 212.236 306.781 209.931ZM314.555 231.186C311.943 232.649 310.237 234.792 309.594 239.477C307.491 236.201 304.997 232.19 301.849 229.785C301.85 229.785 297.348 234.496 296.307 240.269C289.385 237.907 278.809 222.846 272.849 220.444C272.849 220.444 269.965 238.247 295.23 256.881C290.618 250.06 291.195 243.72 292.3 242.712C297.693 249.966 298.522 255.608 309.444 262.237C303.795 253.447 304.537 244.728 305.844 245.163C309.447 254.286 318.235 263.029 329.043 262.309C315.816 254.286 314.553 241.129 314.555 231.186ZM291.054 175.698C289.136 176.615 285.061 180.816 287.814 186.926C297.277 185.34 296.982 204.744 304.836 199.7C295.534 193.757 305.668 179.397 291.054 175.698ZM329.948 132.638C328.619 135.298 326.399 135.046 323.97 137.056C321.421 139.166 322.049 139.968 326.114 138.673C333.32 136.375 334.033 147.065 336.243 146.104C336.243 134.048 332.444 131.64 329.948 132.638ZM221.454 132.83C221.454 132.83 221.261 128.735 218.764 124.508C208.387 119.706 185.038 114.482 171.426 122.011C155.793 130.656 188.966 148.727 209.159 143.722C209.159 143.72 215.306 142.568 217.612 137.38C215.604 131.403 197.427 127.142 182.069 128.735C193.356 123.267 213.702 127.31 221.454 132.83ZM260.456 174.777L243.549 171.193C213.702 242.084 311.56 286.084 311.751 337.38C341.146 295.305 237.887 228.831 260.456 174.777ZM235.159 169.939L221.454 164.67C208.775 178.887 202.818 271.099 260.838 314.135C270.542 315.864 290.355 310.388 298.748 316.823C291.58 302.509 218.54 252.264 235.159 169.939ZM229.604 102.277C238.826 101.412 251.738 102.87 254.97 99.632C251.656 93.0046 240.774 81.0049 226.941 77.6901C215.03 73.8468 192.457 74.8315 188.519 77.4667C205.496 83.0518 226.717 94.7831 229.604 102.277ZM195.902 110.099C202.314 107.326 217.098 103.195 221.799 103.951C216.611 97.9825 193.356 80.6085 169.195 79.4675C169.195 79.4675 136.727 82.4541 126.353 93.9819C142.492 92.8074 177.266 93.3831 195.902 110.099ZM166.651 118.937C171.55 114.676 181.683 110.963 193.356 112.98C182.115 106.256 158.322 96.4578 120.484 101.645C120.484 101.645 94.4606 107.794 87.2553 130.656C102.915 123.268 123.761 115.896 166.651 118.937ZM166.651 136.372C163.769 134.21 162.04 126.574 164.489 123.836C154.691 122.971 103.01 119.898 77.5532 146.218C66.1974 155.949 60.7192 193.668 68.9543 216.441C79.2741 187.975 112.04 143.982 166.651 136.372ZM214.449 163.156C205.899 159.555 199.856 156.153 199.856 156.153C175.263 183.436 157.908 235.978 189.37 318.302C203.145 322.433 241.977 319.49 250.464 316.417C234.358 304.505 181.403 239.622 214.449 163.156ZM176.343 143.477L170.157 139.686C133.845 143.433 84.4973 174.263 76.0441 236.127C81.1353 250.631 96.1898 279.744 114.922 293.001C112.329 275.422 97.8246 187.149 176.343 143.477ZM181.3 316.823C158.246 316.056 132.117 303.375 124.816 297.227C102.915 212.5 155.451 156.229 180.812 146.046C180.812 146.046 187.89 149.504 193.356 150.849C140.471 203.874 171.695 299.533 181.3 316.823Z" fill="url(#paint1_linear_27_186)"/>
<path fill-rule="evenodd" clip-rule="evenodd" d="M335.082 288.936H333.345V284.52C333.658 284.52 333.877 284.545 334.189 284.545C334.487 284.545 334.784 284.547 335.082 284.545C335.257 284.545 335.319 284.571 335.479 284.571C335.627 284.571 335.777 284.571 335.925 284.57L336.756 284.633C337.173 284.699 337.666 284.9 337.99 285.16C338.264 285.382 338.508 285.913 338.508 286.407C338.508 286.998 338.498 287.315 338.184 287.846C337.995 288.16 337.76 288.328 337.46 288.512C336.901 288.853 335.785 288.936 335.082 288.936ZM330.938 295.837H333.345V290.825H335.627C335.715 290.825 336.297 291.507 336.428 291.638C336.496 291.705 336.566 291.765 336.627 291.836L337.794 293.103C337.87 293.177 337.93 293.235 338.004 293.311L338.589 293.945C338.886 294.241 339.298 294.732 339.567 294.999L340.162 295.621C340.227 295.698 340.282 295.806 340.374 295.831C340.468 295.857 343.267 295.837 343.62 295.837C343.592 295.733 343.03 295.21 342.943 295.123L341.751 293.884C341.622 293.731 341.21 293.361 341.057 293.189C340.752 292.841 340.443 292.589 340.198 292.285C340.006 292.043 339.701 291.83 339.51 291.584C339.325 291.342 339.039 291.105 338.823 290.879C338.754 290.81 338.735 290.766 338.664 290.694L338.135 290.154C338.2 290.139 338.329 290.079 338.4 290.047C338.832 289.845 339.503 289.473 339.84 289.155C339.883 289.118 339.899 289.094 339.944 289.057C340.483 288.625 341.088 287.578 341.088 286.904C341.088 285.829 341.203 285.197 340.507 284.306C340.468 284.256 340.452 284.247 340.412 284.204C340.184 283.947 340.146 283.914 339.855 283.693C339.298 283.276 338.327 282.878 337.462 282.787C336.951 282.734 336.362 282.808 335.87 282.74L330.938 282.707V295.837Z" fill="#9F682C"/>
<path fill-rule="evenodd" clip-rule="evenodd" d="M323.169 290.116L324.882 290.13C324.882 289.848 324.882 289.566 324.882 289.285C324.882 288.762 324.932 288.164 325.017 287.657C325.061 287.387 325.107 287.168 325.171 286.918C325.572 285.311 326.189 284.096 327.203 282.796C327.548 282.356 328.218 281.697 328.612 281.349L328.969 281.038C330.194 280.051 331.545 279.336 333.107 278.996C333.357 278.939 333.574 278.896 333.834 278.853C334.04 278.82 334.424 278.762 334.635 278.76C334.933 278.757 335.165 278.736 335.479 278.736C335.627 278.736 335.777 278.738 335.925 278.736C336.105 278.736 336.196 278.76 336.346 278.762C337.11 278.772 337.901 278.943 338.601 279.14C339.313 279.338 339.855 279.585 340.511 279.912C341.081 280.197 341.843 280.724 342.346 281.151C342.397 281.194 342.409 281.215 342.464 281.258L343.031 281.783C343.225 281.977 343.4 282.132 343.567 282.339C343.821 282.657 343.93 282.74 344.27 283.2C345.253 284.54 345.992 286.201 346.23 288.287C346.338 289.234 346.291 290.661 346.103 291.596C345.82 293.013 345.351 294.233 344.593 295.371L343.846 296.388C343.495 296.82 342.61 297.699 342.169 298.035C342.125 298.069 342.159 298.028 342.112 298.078C342.068 298.123 342.083 298.103 342.082 298.146V298.171C342.431 298.171 344.282 298.131 344.464 298.195C344.652 298.069 345.586 296.912 345.787 296.617C346.472 295.626 347.096 294.534 347.428 293.366C347.464 293.238 347.503 293.126 347.538 293.006C347.757 292.263 347.977 290.902 347.988 290.106V290.067V290.03V289.975C347.982 288.811 347.977 287.61 347.651 286.47C347.479 285.869 347.426 285.606 347.183 285.002C346.855 284.181 346.343 283.163 345.821 282.467C345.653 282.245 345.245 281.693 345.066 281.51L344.719 281.137C344.628 281.029 344.582 280.978 344.483 280.877L343.477 279.947C342.68 279.207 341.456 278.506 340.452 278.058C339.607 277.681 338.347 277.33 337.391 277.224C336.961 277.176 336.553 277.142 336.161 277.124H334.887C333.973 277.168 333.086 277.313 332.105 277.57C331.846 277.638 331.618 277.716 331.369 277.804C331.231 277.852 331.127 277.892 331.008 277.94L330.002 278.398C329.531 278.633 329.201 278.835 328.77 279.124C328.309 279.43 327.95 279.717 327.529 280.07C327.471 280.119 327.452 280.124 327.395 280.182C327.3 280.277 327.226 280.325 327.134 280.418C326.81 280.746 326.47 281.067 326.165 281.412C326.091 281.497 326.03 281.585 325.954 281.671L325.319 282.499C325.182 282.697 325.059 282.881 324.936 283.085C324.506 283.799 324.296 284.202 323.959 285.038C323.776 285.494 323.618 286.012 323.492 286.53C323.315 287.254 323.178 288.297 323.169 289.064V289.1V289.137V289.152V289.167V289.182V289.198V289.213V289.229V289.244V289.258V289.274V289.29V289.304V289.32V289.336V289.349V289.366V289.382V289.397V289.411V289.427V289.443V289.457V289.474V289.489V289.503V289.52V289.535V289.55V289.565V289.58V289.596V289.612V289.627V289.642V289.657V289.673V289.688V289.703V289.719V289.733V289.749V289.765V289.779V289.795V289.81V289.824V289.841V289.856V289.872V289.886V289.902V289.918V289.932V289.947V289.963V289.978V289.995V290.01V290.024V290.04V290.055V290.071V290.086V290.101V290.116Z" fill="#9F672B"/>
<path fill-rule="evenodd" clip-rule="evenodd" d="M344.464 298.196C344.282 298.132 342.431 298.171 342.082 298.171V298.146C341.975 298.165 342.001 298.165 341.917 298.232C341.635 298.45 340.965 298.903 340.674 299.049L339.74 299.503C339.527 299.599 339.292 299.685 339.075 299.757C338.386 299.984 337.541 300.196 336.793 300.254C335.558 300.349 334.594 300.349 333.372 300.105C332.259 299.883 330.93 299.38 330.064 298.796C329.341 298.308 328.901 298.01 328.276 297.383L328.038 297.148C327.892 296.985 327.725 296.85 327.581 296.688L327.159 296.192C327.122 296.145 327.097 296.112 327.063 296.065C327.02 296.008 326.996 295.984 326.953 295.927C324.834 293.101 324.936 290.27 324.882 290.13L323.169 290.117L323.209 290.662C323.234 290.837 323.24 291.03 323.262 291.18C323.429 292.436 323.739 293.631 324.278 294.755L324.559 295.316C325.034 296.23 325.48 296.763 326.084 297.54C326.331 297.858 326.767 298.278 327.06 298.55C327.371 298.837 327.493 298.959 327.839 299.235C328.297 299.6 328.679 299.884 329.187 300.196C329.658 300.487 330.179 300.753 330.707 300.983C330.977 301.1 331.259 301.203 331.537 301.295C332.517 301.62 333.586 301.861 334.619 301.918H336.418H336.428C336.515 301.913 336.54 301.896 336.645 301.893C337.004 301.885 337.345 301.842 337.678 301.784C339.757 301.436 341.682 300.573 343.256 299.296L343.568 299.035C343.732 298.901 344.378 298.323 344.464 298.196Z" fill="#9F682C"/>
<defs>
<linearGradient id="paint0_linear_27_186" x1="410" y1="615.003" x2="820" y2="615.003" gradientUnits="userSpaceOnUse">
<stop stop-color="#623620"/>
<stop offset="0.121569" stop-color="#CD9F1E"/>
<stop offset="0.25098" stop-color="#E6CD8F"/>
<stop offset="0.521569" stop-color="#CF9A2F"/>
<stop offset="1" stop-color="#662D29"/>
</linearGradient>
<linearGradient id="paint1_linear_27_186" x1="64.9998" y1="206.262" x2="336.243" y2="206.262" gradientUnits="userSpaceOnUse">
<stop stop-color="#623620"/>
<stop offset="0.121569" stop-color="#CD9F1E"/>
<stop offset="0.25098" stop-color="#E6CD8F"/>
<stop offset="0.521569" stop-color="#CF9A2F"/>
<stop offset="1" stop-color="#662D29"/>
</linearGradient>
</defs>
</svg>
