<svg width="80" height="80" viewBox="0 0 80 80" fill="none" xmlns="http://www.w3.org/2000/svg">
<g clip-path="url(#clip0_27_696)">
<path d="M66.6667 6.66666H13.3333C9.65 6.66666 6.70001 9.64999 6.70001 13.3333L6.66667 73.3333L20 60H66.6667C70.35 60 73.3333 57.0167 73.3333 53.3333V13.3333C73.3333 9.64999 70.35 6.66666 66.6667 6.66666ZM20 46.6667V38.4167L42.9333 15.4833C43.5833 14.8333 44.6333 14.8333 45.2833 15.4833L51.1833 21.3833C51.8333 22.0333 51.8333 23.0833 51.1833 23.7333L28.25 46.6667H20ZM60 46.6667H35L41.6667 40H60V46.6667Z" fill="#FFB51E"/>
</g>
<defs>
<clipPath id="clip0_27_696">
<rect width="80" height="80" fill="white"/>
</clipPath>
</defs>
</svg>
