<svg width="67" height="66" viewBox="0 0 67 66" fill="none" xmlns="http://www.w3.org/2000/svg">
<g clip-path="url(#clip0_27_260)">
<path d="M33.3333 22C27.2558 22 22.3333 26.9225 22.3333 33C22.3333 39.0775 27.2558 44 33.3333 44C39.4108 44 44.3333 39.0775 44.3333 33C44.3333 26.9225 39.4108 22 33.3333 22ZM57.9183 30.25C56.6533 18.7825 47.5508 9.68 36.0833 8.415V2.75H30.5833V8.415C19.1158 9.68 10.0133 18.7825 8.74834 30.25H3.08334V35.75H8.74834C10.0133 47.2175 19.1158 56.32 30.5833 57.585V63.25H36.0833V57.585C47.5508 56.32 56.6533 47.2175 57.9183 35.75H63.5833V30.25H57.9183ZM33.3333 52.25C22.7046 52.25 14.0833 43.6287 14.0833 33C14.0833 22.3713 22.7046 13.75 33.3333 13.75C43.9621 13.75 52.5833 22.3713 52.5833 33C52.5833 43.6287 43.9621 52.25 33.3333 52.25Z" fill="#19171A"/>
</g>
<defs>
<clipPath id="clip0_27_260">
<rect width="66" height="66" fill="white" transform="translate(0.333344)"/>
</clipPath>
</defs>
</svg>
